solid ASCII
  facet normal -2.826047e-02 8.722668e-01 4.882131e-01
    outer loop
      vertex   -9.062175e-01 1.397064e+01 0.000000e+00
      vertex   -2.266732e-01 6.996329e+00 1.250000e+01
      vertex   0.000000e+00 1.400000e+01 0.000000e+00
    endloop
  endfacet
  facet normal 0.000000e+00 8.723968e-01 4.887984e-01
    outer loop
      vertex   0.000000e+00 1.400000e+01 0.000000e+00
      vertex   -2.266732e-01 6.996329e+00 1.250000e+01
      vertex   2.266732e-01 6.996329e+00 1.250000e+01
    endloop
  endfacet
  facet normal 2.826047e-02 8.722668e-01 4.882131e-01
    outer loop
      vertex   0.000000e+00 1.400000e+01 0.000000e+00
      vertex   2.266732e-01 6.996329e+00 1.250000e+01
      vertex   9.062175e-01 1.397064e+01 0.000000e+00
    endloop
  endfacet
  facet normal 5.647008e-02 8.705672e-01 4.887984e-01
    outer loop
      vertex   9.062175e-01 1.397064e+01 0.000000e+00
      vertex   2.266732e-01 6.996329e+00 1.250000e+01
      vertex   6.790690e-01 6.966984e+00 1.250000e+01
    endloop
  endfacet
  facet normal 8.466287e-02 8.686082e-01 4.882131e-01
    outer loop
      vertex   9.062175e-01 1.397064e+01 0.000000e+00
      vertex   6.790690e-01 6.966984e+00 1.250000e+01
      vertex   1.808634e+00 1.388268e+01 0.000000e+00
    endloop
  endfacet
  facet normal 1.127033e-01 8.650862e-01 4.887984e-01
    outer loop
      vertex   1.808634e+00 1.388268e+01 0.000000e+00
      vertex   6.790690e-01 6.966984e+00 1.250000e+01
      vertex   1.128616e+00 6.908417e+00 1.250000e+01
    endloop
  endfacet
  facet normal 1.407102e-01 8.613063e-01 4.882131e-01
    outer loop
      vertex   1.808634e+00 1.388268e+01 0.000000e+00
      vertex   1.128616e+00 6.908417e+00 1.250000e+01
      vertex   2.703464e+00 1.373649e+01 0.000000e+00
    endloop
  endfacet
  facet normal 1.684638e-01 8.559767e-01 4.887984e-01
    outer loop
      vertex   2.703464e+00 1.373649e+01 0.000000e+00
      vertex   1.128616e+00 6.908417e+00 1.250000e+01
      vertex   1.573430e+00 6.820874e+00 1.250000e+01
    endloop
  endfacet
  facet normal 1.961673e-01 8.503919e-01 4.882131e-01
    outer loop
      vertex   2.703464e+00 1.373649e+01 0.000000e+00
      vertex   1.573430e+00 6.820874e+00 1.250000e+01
      vertex   3.586956e+00 1.353269e+01 0.000000e+00
    endloop
  endfacet
  facet normal 2.235177e-01 8.432769e-01 4.887984e-01
    outer loop
      vertex   3.586956e+00 1.353269e+01 0.000000e+00
      vertex   1.573430e+00 6.820874e+00 1.250000e+01
      vertex   2.011644e+00 6.704721e+00 1.250000e+01
    endloop
  endfacet
  facet normal 2.508016e-01 8.359106e-01 4.882131e-01
    outer loop
      vertex   3.586956e+00 1.353269e+01 0.000000e+00
      vertex   2.011644e+00 6.704721e+00 1.250000e+01
      vertex   4.455402e+00 1.327213e+01 0.000000e+00
    endloop
  endfacet
  facet normal 2.776341e-01 8.270401e-01 4.887984e-01
    outer loop
      vertex   4.455402e+00 1.327213e+01 0.000000e+00
      vertex   2.011644e+00 6.704721e+00 1.250000e+01
      vertex   2.441421e+00 6.560447e+00 1.250000e+01
    endloop
  endfacet
  facet normal 3.043840e-01 8.179232e-01 4.882131e-01
    outer loop
      vertex   4.455402e+00 1.327213e+01 0.000000e+00
      vertex   2.441421e+00 6.560447e+00 1.250000e+01
      vertex   5.305160e+00 1.295590e+01 0.000000e+00
    endloop
  endfacet
  facet normal 3.305861e-01 8.073345e-01 4.887984e-01
    outer loop
      vertex   5.305160e+00 1.295590e+01 0.000000e+00
      vertex   2.441421e+00 6.560447e+00 1.250000e+01
      vertex   2.860957e+00 6.388656e+00 1.250000e+01
    endloop
  endfacet
  facet normal 3.566896e-01 7.965052e-01 4.882131e-01
    outer loop
      vertex   5.305160e+00 1.295590e+01 0.000000e+00
      vertex   2.860957e+00 6.388656e+00 1.250000e+01
      vertex   6.132667e+00 1.258532e+01 0.000000e+00
    endloop
  endfacet
  facet normal 3.821514e-01 7.842426e-01 4.887984e-01
    outer loop
      vertex   6.132667e+00 1.258532e+01 0.000000e+00
      vertex   2.860957e+00 6.388656e+00 1.250000e+01
      vertex   3.268494e+00 6.190068e+00 1.250000e+01
    endloop
  endfacet
  facet normal 4.074992e-01 7.717463e-01 4.882131e-01
    outer loop
      vertex   6.132667e+00 1.258532e+01 0.000000e+00
      vertex   3.268494e+00 6.190068e+00 1.250000e+01
      vertex   6.934452e+00 1.216196e+01 0.000000e+00
    endloop
  endfacet
  facet normal 4.321138e-01 7.578613e-01 4.887984e-01
    outer loop
      vertex   6.934452e+00 1.216196e+01 0.000000e+00
      vertex   3.268494e+00 6.190068e+00 1.250000e+01
      vertex   3.662321e+00 5.965518e+00 1.250000e+01
    endloop
  endfacet
  facet normal 4.565996e-01 7.437505e-01 4.882131e-01
    outer loop
      vertex   6.934452e+00 1.216196e+01 0.000000e+00
      vertex   3.662321e+00 5.965518e+00 1.250000e+01
      vertex   7.707151e+00 1.168759e+01 0.000000e+00
    endloop
  endfacet
  facet normal 4.802638e-01 7.283013e-01 4.887984e-01
    outer loop
      vertex   7.707151e+00 1.168759e+01 0.000000e+00
      vertex   3.662321e+00 5.965518e+00 1.250000e+01
      vertex   4.040788e+00 5.715946e+00 1.250000e+01
    endloop
  endfacet
  facet normal 5.037849e-01 7.126351e-01 4.882131e-01
    outer loop
      vertex   7.707151e+00 1.168759e+01 0.000000e+00
      vertex   4.040788e+00 5.715946e+00 1.250000e+01
      vertex   8.447523e+00 1.116420e+01 0.000000e+00
    endloop
  endfacet
  facet normal 5.263994e-01 6.956865e-01 4.887984e-01
    outer loop
      vertex   8.447523e+00 1.116420e+01 0.000000e+00
      vertex   4.040788e+00 5.715946e+00 1.250000e+01
      vertex   4.402306e+00 5.442399e+00 1.250000e+01
    endloop
  endfacet
  facet normal 5.488571e-01 6.785307e-01 4.882131e-01
    outer loop
      vertex   8.447523e+00 1.116420e+01 0.000000e+00
      vertex   4.402306e+00 5.442399e+00 1.250000e+01
      vertex   9.152464e+00 1.059398e+01 0.000000e+00
    endloop
  endfacet
  facet normal 5.703272e-01 6.601538e-01 4.887984e-01
    outer loop
      vertex   9.152464e+00 1.059398e+01 0.000000e+00
      vertex   4.402306e+00 5.442399e+00 1.250000e+01
      vertex   4.745359e+00 5.146025e+00 1.250000e+01
    endloop
  endfacet
  facet normal 5.916272e-01 6.415802e-01 4.882131e-01
    outer loop
      vertex   9.152464e+00 1.059398e+01 0.000000e+00
      vertex   4.745359e+00 5.146025e+00 1.250000e+01
      vertex   9.819016e+00 9.979325e+00 0.000000e+00
    endloop
  endfacet
  facet normal 6.118627e-01 6.218522e-01 4.887984e-01
    outer loop
      vertex   9.819016e+00 9.979325e+00 0.000000e+00
      vertex   4.745359e+00 5.146025e+00 1.250000e+01
      vertex   5.068508e+00 4.828066e+00 1.250000e+01
    endloop
  endfacet
  facet normal 6.319159e-01 6.019388e-01 4.882131e-01
    outer loop
      vertex   9.819016e+00 9.979325e+00 0.000000e+00
      vertex   5.068508e+00 4.828066e+00 1.250000e+01
      vertex   1.044438e+01 9.322813e+00 0.000000e+00
    endloop
  endfacet
  facet normal 6.508319e-01 5.809423e-01 4.887984e-01
    outer loop
      vertex   1.044438e+01 9.322813e+00 0.000000e+00
      vertex   5.068508e+00 4.828066e+00 1.250000e+01
      vertex   5.370398e+00 4.489858e+00 1.250000e+01
    endloop
  endfacet
  facet normal 6.695540e-01 5.597726e-01 4.882131e-01
    outer loop
      vertex   1.044438e+01 9.322813e+00 0.000000e+00
      vertex   5.370398e+00 4.489858e+00 1.250000e+01
      vertex   1.102594e+01 8.627199e+00 0.000000e+00
    endloop
  endfacet
  facet normal 6.870713e-01 5.375957e-01 4.887984e-01
    outer loop
      vertex   1.102594e+01 8.627199e+00 0.000000e+00
      vertex   5.370398e+00 4.489858e+00 1.250000e+01
      vertex   5.649763e+00 4.132817e+00 1.250000e+01
    endloop
  endfacet
  facet normal 7.043838e-01 5.152586e-01 4.882131e-01
    outer loop
      vertex   1.102594e+01 8.627199e+00 0.000000e+00
      vertex   5.649763e+00 4.132817e+00 1.250000e+01
      vertex   1.156126e+01 7.895398e+00 0.000000e+00
    endloop
  endfacet
  facet normal 7.204289e-01 4.919943e-01 4.887984e-01
    outer loop
      vertex   1.156126e+01 7.895398e+00 0.000000e+00
      vertex   5.649763e+00 4.132817e+00 1.250000e+01
      vertex   5.905431e+00 3.758441e+00 1.250000e+01
    endloop
  endfacet
  facet normal 7.362592e-01 4.685834e-01 4.882131e-01
    outer loop
      vertex   1.156126e+01 7.895398e+00 0.000000e+00
      vertex   5.905431e+00 3.758441e+00 1.250000e+01
      vertex   1.204808e+01 7.130482e+00 0.000000e+00
    endloop
  endfacet
  facet normal 7.507647e-01 4.443293e-01 4.887984e-01
    outer loop
      vertex   1.204808e+01 7.130482e+00 0.000000e+00
      vertex   5.905431e+00 3.758441e+00 1.250000e+01
      vertex   6.136330e+00 3.368302e+00 1.250000e+01
    endloop
  endfacet
  facet normal 7.650465e-01 4.199427e-01 4.882131e-01
    outer loop
      vertex   1.204808e+01 7.130482e+00 0.000000e+00
      vertex   6.136330e+00 3.368302e+00 1.250000e+01
      vertex   1.248437e+01 6.335658e+00 0.000000e+00
    endloop
  endfacet
  facet normal 7.779516e-01 3.948006e-01 4.887984e-01
    outer loop
      vertex   1.248437e+01 6.335658e+00 0.000000e+00
      vertex   6.136330e+00 3.368302e+00 1.250000e+01
      vertex   6.341490e+00 2.964034e+00 1.250000e+01
    endloop
  endfacet
  facet normal 7.906248e-01 3.695407e-01 4.882131e-01
    outer loop
      vertex   1.248437e+01 6.335658e+00 0.000000e+00
      vertex   6.341490e+00 2.964034e+00 1.250000e+01
      vertex   1.286829e+01 5.514261e+00 0.000000e+00
    endloop
  endfacet
  facet normal 8.018754e-01 3.436159e-01 4.887984e-01
    outer loop
      vertex   1.286829e+01 5.514261e+00 0.000000e+00
      vertex   6.341490e+00 2.964034e+00 1.250000e+01
      vertex   6.520053e+00 2.547335e+00 1.250000e+01
    endloop
  endfacet
  facet normal 8.128871e-01 3.175887e-01 4.882131e-01
    outer loop
      vertex   1.286829e+01 5.514261e+00 0.000000e+00
      vertex   6.520053e+00 2.547335e+00 1.250000e+01
      vertex   1.319824e+01 4.669734e+00 0.000000e+00
    endloop
  endfacet
  facet normal 8.224360e-01 2.909901e-01 4.887984e-01
    outer loop
      vertex   1.319824e+01 4.669734e+00 0.000000e+00
      vertex   6.520053e+00 2.547335e+00 1.250000e+01
      vertex   6.671267e+00 2.119951e+00 1.250000e+01
    endloop
  endfacet
  facet normal 8.317398e-01 2.643047e-01 4.882131e-01
    outer loop
      vertex   1.319824e+01 4.669734e+00 0.000000e+00
      vertex   6.671267e+00 2.119951e+00 1.250000e+01
      vertex   1.347283e+01 3.805621e+00 0.000000e+00
    endloop
  endfacet
  facet normal 8.395469e-01 2.371437e-01 4.887984e-01
    outer loop
      vertex   1.347283e+01 3.805621e+00 0.000000e+00
      vertex   6.671267e+00 2.119951e+00 1.250000e+01
      vertex   6.794501e+00 1.683675e+00 1.250000e+01
    endloop
  endfacet
  facet normal 8.471038e-01 2.099120e-01 4.882131e-01
    outer loop
      vertex   1.347283e+01 3.805621e+00 0.000000e+00
      vertex   6.794501e+00 1.683675e+00 1.250000e+01
      vertex   1.369092e+01 2.925546e+00 0.000000e+00
    endloop
  endfacet
  facet normal 8.531365e-01 1.823026e-01 4.887984e-01
    outer loop
      vertex   1.369092e+01 2.925546e+00 0.000000e+00
      vertex   6.794501e+00 1.683675e+00 1.250000e+01
      vertex   6.889235e+00 1.240337e+00 1.250000e+01
    endloop
  endfacet
  facet normal 8.589149e-01 1.546389e-01 4.882131e-01
    outer loop
      vertex   1.369092e+01 2.925546e+00 0.000000e+00
      vertex   6.889235e+00 1.240337e+00 1.250000e+01
      vertex   1.385157e+01 2.033200e+00 0.000000e+00
    endloop
  endfacet
  facet normal 8.631477e-01 1.266969e-01 4.887984e-01
    outer loop
      vertex   1.385157e+01 2.033200e+00 0.000000e+00
      vertex   6.889235e+00 1.240337e+00 1.250000e+01
      vertex   6.955074e+00 7.917968e-01 1.250000e+01
    endloop
  endfacet
  facet normal 8.671233e-01 9.871720e-02 4.882131e-01
    outer loop
      vertex   1.385157e+01 2.033200e+00 0.000000e+00
      vertex   6.955074e+00 7.917968e-01 1.250000e+01
      vertex   1.395413e+01 1.132326e+00 0.000000e+00
    endloop
  endfacet
  facet normal 8.695386e-01 7.055983e-02 4.887984e-01
    outer loop
      vertex   1.395413e+01 1.132326e+00 0.000000e+00
      vertex   6.955074e+00 7.917968e-01 1.250000e+01
      vertex   6.991741e+00 3.399356e-01 1.250000e+01
    endloop
  endfacet
  facet normal 8.716948e-01 4.238144e-02 4.882131e-01
    outer loop
      vertex   1.395413e+01 1.132326e+00 0.000000e+00
      vertex   6.991741e+00 3.399356e-01 1.250000e+01
      vertex   1.399816e+01 2.267030e-01 0.000000e+00
    endloop
  endfacet
  facet normal 8.722824e-01 1.412678e-02 4.887984e-01
    outer loop
      vertex   1.399816e+01 2.267030e-01 0.000000e+00
      vertex   6.991741e+00 3.399356e-01 1.250000e+01
      vertex   6.999082e+00 -1.133515e-01 1.250000e+01
    endloop
  endfacet
  facet normal 8.726100e-01 -1.413209e-02 4.882131e-01
    outer loop
      vertex   1.399816e+01 2.267030e-01 0.000000e+00
      vertex   6.999082e+00 -1.133515e-01 1.250000e+01
      vertex   1.398348e+01 -6.798711e-01 0.000000e+00
    endloop
  endfacet
  facet normal 8.713675e-01 -4.236553e-02 4.887984e-01
    outer loop
      vertex   1.398348e+01 -6.798711e-01 0.000000e+00
      vertex   6.999082e+00 -1.133515e-01 1.250000e+01
      vertex   6.977067e+00 -5.661631e-01 1.250000e+01
    endloop
  endfacet
  facet normal 8.698652e-01 -7.058634e-02 4.882131e-01
    outer loop
      vertex   1.398348e+01 -6.798711e-01 0.000000e+00
      vertex   6.977067e+00 -5.661631e-01 1.250000e+01
      vertex   1.391015e+01 -1.583594e+00 0.000000e+00
    endloop
  endfacet
  facet normal 8.667978e-01 -9.868014e-02 4.887984e-01
    outer loop
      vertex   1.391015e+01 -1.583594e+00 0.000000e+00
      vertex   6.977067e+00 -5.661631e-01 1.250000e+01
      vertex   6.925787e+00 -1.016600e+00 1.250000e+01
    endloop
  endfacet
  facet normal 8.634719e-01 -1.267445e-01 4.882131e-01
    outer loop
      vertex   1.391015e+01 -1.583594e+00 0.000000e+00
      vertex   6.925787e+00 -1.016600e+00 1.250000e+01
      vertex   1.377847e+01 -2.480674e+00 0.000000e+00
    endloop
  endfacet
  facet normal 8.585924e-01 -1.545808e-01 4.887984e-01
    outer loop
      vertex   1.377847e+01 -2.480674e+00 0.000000e+00
      vertex   6.925787e+00 -1.016600e+00 1.250000e+01
      vertex   6.845458e+00 -1.462773e+00 1.250000e+01
    endloop
  endfacet
  facet normal 8.534569e-01 -1.823711e-01 4.882131e-01
    outer loop
      vertex   1.377847e+01 -2.480674e+00 0.000000e+00
      vertex   6.845458e+00 -1.462773e+00 1.250000e+01
      vertex   1.358900e+01 -3.367349e+00 0.000000e+00
    endloop
  endfacet
  facet normal 8.467858e-01 -2.098332e-01 4.887984e-01
    outer loop
      vertex   1.358900e+01 -3.367349e+00 0.000000e+00
      vertex   6.845458e+00 -1.462773e+00 1.250000e+01
      vertex   6.736417e+00 -1.902811e+00 1.250000e+01
    endloop
  endfacet
  facet normal 8.398623e-01 -2.372328e-01 4.882131e-01
    outer loop
      vertex   1.358900e+01 -3.367349e+00 0.000000e+00
      vertex   6.736417e+00 -1.902811e+00 1.250000e+01
      vertex   1.334253e+01 -4.239901e+00 0.000000e+00
    endloop
  endfacet
  facet normal 8.314275e-01 -2.642054e-01 4.887984e-01
    outer loop
      vertex   1.334253e+01 -4.239901e+00 0.000000e+00
      vertex   6.736417e+00 -1.902811e+00 1.250000e+01
      vertex   6.599121e+00 -2.334867e+00 1.250000e+01
    endloop
  endfacet
  facet normal 8.227449e-01 -2.910994e-01 4.882131e-01
    outer loop
      vertex   1.334253e+01 -4.239901e+00 0.000000e+00
      vertex   6.599121e+00 -2.334867e+00 1.250000e+01
      vertex   1.304011e+01 -5.094669e+00 0.000000e+00
    endloop
  endfacet
  facet normal 8.125818e-01 -3.174695e-01 4.887984e-01
    outer loop
      vertex   1.304011e+01 -5.094669e+00 0.000000e+00
      vertex   6.599121e+00 -2.334867e+00 1.250000e+01
      vertex   6.434146e+00 -2.757130e+00 1.250000e+01
    endloop
  endfacet
  facet normal 8.021766e-01 -3.437450e-01 4.882131e-01
    outer loop
      vertex   1.304011e+01 -5.094669e+00 0.000000e+00
      vertex   6.434146e+00 -2.757130e+00 1.250000e+01
      vertex   1.268298e+01 -5.928068e+00 0.000000e+00
    endloop
  endfacet
  facet normal 7.903280e-01 -3.694020e-01 4.887984e-01
    outer loop
      vertex   1.268298e+01 -5.928068e+00 0.000000e+00
      vertex   6.434146e+00 -2.757130e+00 1.250000e+01
      vertex   6.242184e+00 -3.167829e+00 1.250000e+01
    endloop
  endfacet
  facet normal 7.782438e-01 -3.949489e-01 4.882131e-01
    outer loop
      vertex   1.268298e+01 -5.928068e+00 0.000000e+00
      vertex   6.242184e+00 -3.167829e+00 1.250000e+01
      vertex   1.227266e+01 -6.736603e+00 0.000000e+00
    endloop
  endfacet
  facet normal 7.647592e-01 -4.197851e-01 4.887984e-01
    outer loop
      vertex   1.227266e+01 -6.736603e+00 0.000000e+00
      vertex   6.242184e+00 -3.167829e+00 1.250000e+01
      vertex   6.024040e+00 -3.565241e+00 1.250000e+01
    endloop
  endfacet
  facet normal 7.510467e-01 -4.444962e-01 4.882131e-01
    outer loop
      vertex   1.227266e+01 -6.736603e+00 0.000000e+00
      vertex   6.024040e+00 -3.565241e+00 1.250000e+01
      vertex   1.181086e+01 -7.516882e+00 0.000000e+00
    endloop
  endfacet
  facet normal 7.359828e-01 -4.684074e-01 4.887984e-01
    outer loop
      vertex   1.181086e+01 -7.516882e+00 0.000000e+00
      vertex   6.024040e+00 -3.565241e+00 1.250000e+01
      vertex   5.780629e+00 -3.947699e+00 1.250000e+01
    endloop
  endfacet
  facet normal 7.206995e-01 -4.921791e-01 4.882131e-01
    outer loop
      vertex   1.181086e+01 -7.516882e+00 0.000000e+00
      vertex   5.780629e+00 -3.947699e+00 1.250000e+01
      vertex   1.129953e+01 -8.265633e+00 0.000000e+00
    endloop
  endfacet
  facet normal 7.041193e-01 -5.150651e-01 4.887984e-01
    outer loop
      vertex   1.129953e+01 -8.265633e+00 0.000000e+00
      vertex   5.780629e+00 -3.947699e+00 1.250000e+01
      vertex   5.512972e+00 -4.313599e+00 1.250000e+01
    endloop
  endfacet
  facet normal 6.873294e-01 -5.377977e-01 4.882131e-01
    outer loop
      vertex   1.129953e+01 -8.265633e+00 0.000000e+00
      vertex   5.512972e+00 -4.313599e+00 1.250000e+01
      vertex   1.074080e+01 -8.979715e+00 0.000000e+00
    endloop
  endfacet
  facet normal 6.693026e-01 -5.595625e-01 4.887984e-01
    outer loop
      vertex   1.074080e+01 -8.979715e+00 0.000000e+00
      vertex   5.512972e+00 -4.313599e+00 1.250000e+01
      vertex   5.222192e+00 -4.661407e+00 1.250000e+01
    endloop
  endfacet
  facet normal 6.510764e-01 -5.811605e-01 4.882131e-01
    outer loop
      vertex   1.074080e+01 -8.979715e+00 0.000000e+00
      vertex   5.222192e+00 -4.661407e+00 1.250000e+01
      vertex   1.013702e+01 -9.656133e+00 0.000000e+00
    endloop
  endfacet
  facet normal 6.316786e-01 -6.017128e-01 4.887984e-01
    outer loop
      vertex   1.013702e+01 -9.656133e+00 0.000000e+00
      vertex   5.222192e+00 -4.661407e+00 1.250000e+01
      vertex   4.909508e+00 -4.989662e+00 1.250000e+01
    endloop
  endfacet
  facet normal 6.120925e-01 -6.220858e-01 4.882131e-01
    outer loop
      vertex   1.013702e+01 -9.656133e+00 0.000000e+00
      vertex   4.909508e+00 -4.989662e+00 1.250000e+01
      vertex   9.490717e+00 -1.029205e+01 0.000000e+00
    endloop
  endfacet
  facet normal 5.914051e-01 -6.413393e-01 4.887984e-01
    outer loop
      vertex   9.490717e+00 -1.029205e+01 0.000000e+00
      vertex   4.909508e+00 -4.989662e+00 1.250000e+01
      vertex   4.576232e+00 -5.296990e+00 1.250000e+01
    endloop
  endfacet
  facet normal 5.705414e-01 -6.604018e-01 4.882131e-01
    outer loop
      vertex   9.490717e+00 -1.029205e+01 0.000000e+00
      vertex   4.576232e+00 -5.296990e+00 1.250000e+01
      vertex   8.804611e+00 -1.088480e+01 0.000000e+00
    endloop
  endfacet
  facet normal 5.486510e-01 -6.782759e-01 4.887984e-01
    outer loop
      vertex   8.804611e+00 -1.088480e+01 0.000000e+00
      vertex   4.576232e+00 -5.296990e+00 1.250000e+01
      vertex   4.223762e+00 -5.582100e+00 1.250000e+01
    endloop
  endfacet
  facet normal 5.265972e-01 -6.959478e-01 4.882131e-01
    outer loop
      vertex   8.804611e+00 -1.088480e+01 0.000000e+00
      vertex   4.223762e+00 -5.582100e+00 1.250000e+01
      vertex   8.081575e+00 -1.143189e+01 0.000000e+00
    endloop
  endfacet
  facet normal 5.035957e-01 -7.123675e-01 4.887984e-01
    outer loop
      vertex   8.081575e+00 -1.143189e+01 0.000000e+00
      vertex   4.223762e+00 -5.582100e+00 1.250000e+01
      vertex   3.853575e+00 -5.843796e+00 1.250000e+01
    endloop
  endfacet
  facet normal 4.804442e-01 -7.285749e-01 4.882131e-01
    outer loop
      vertex   8.081575e+00 -1.143189e+01 0.000000e+00
      vertex   3.853575e+00 -5.843796e+00 1.250000e+01
      vertex   7.324643e+00 -1.193104e+01 0.000000e+00
    endloop
  endfacet
  facet normal 4.564282e-01 -7.434712e-01 4.887984e-01
    outer loop
      vertex   7.324643e+00 -1.193104e+01 0.000000e+00
      vertex   3.853575e+00 -5.843796e+00 1.250000e+01
      vertex   3.467226e+00 -6.080982e+00 1.250000e+01
    endloop
  endfacet
  facet normal 4.322761e-01 -7.581460e-01 4.882131e-01
    outer loop
      vertex   7.324643e+00 -1.193104e+01 0.000000e+00
      vertex   3.467226e+00 -6.080982e+00 1.250000e+01
      vertex   6.536988e+00 -1.238014e+01 0.000000e+00
    endloop
  endfacet
  facet normal 4.073462e-01 -7.714565e-01 4.887984e-01
    outer loop
      vertex   6.536988e+00 -1.238014e+01 0.000000e+00
      vertex   3.467226e+00 -6.080982e+00 1.250000e+01
      vertex   3.066334e+00 -6.292662e+00 1.250000e+01
    endloop
  endfacet
  facet normal 3.822949e-01 -7.845372e-01 4.882131e-01
    outer loop
      vertex   6.536988e+00 -1.238014e+01 0.000000e+00
      vertex   3.066334e+00 -6.292662e+00 1.250000e+01
      vertex   5.721915e+00 -1.277731e+01 0.000000e+00
    endloop
  endfacet
  facet normal 3.565557e-01 -7.962061e-01 4.887984e-01
    outer loop
      vertex   5.721915e+00 -1.277731e+01 0.000000e+00
      vertex   3.066334e+00 -6.292662e+00 1.250000e+01
      vertex   2.652580e+00 -6.477949e+00 1.250000e+01
    endloop
  endfacet
  facet normal 3.307102e-01 -8.076377e-01 4.882131e-01
    outer loop
      vertex   5.721915e+00 -1.277731e+01 0.000000e+00
      vertex   2.652580e+00 -6.477949e+00 1.250000e+01
      vertex   4.882842e+00 -1.312089e+01 0.000000e+00
    endloop
  endfacet
  facet normal 3.042697e-01 -8.176161e-01 4.887984e-01
    outer loop
      vertex   4.882842e+00 -1.312089e+01 0.000000e+00
      vertex   2.652580e+00 -6.477949e+00 1.250000e+01
      vertex   2.227701e+00 -6.636064e+00 1.250000e+01
    endloop
  endfacet
  facet normal 2.777384e-01 -8.273508e-01 4.882131e-01
    outer loop
      vertex   4.882842e+00 -1.312089e+01 0.000000e+00
      vertex   2.227701e+00 -6.636064e+00 1.250000e+01
      vertex   4.023289e+00 -1.340944e+01 0.000000e+00
    endloop
  endfacet
  facet normal 2.507074e-01 -8.355967e-01 4.887984e-01
    outer loop
      vertex   4.023289e+00 -1.340944e+01 0.000000e+00
      vertex   2.227701e+00 -6.636064e+00 1.250000e+01
      vertex   1.793478e+00 -6.766346e+00 1.250000e+01
    endloop
  endfacet
  facet normal 2.236017e-01 -8.435937e-01 4.882131e-01
    outer loop
      vertex   4.023289e+00 -1.340944e+01 0.000000e+00
      vertex   1.793478e+00 -6.766346e+00 1.250000e+01
      vertex   3.146860e+00 -1.364175e+01 0.000000e+00
    endloop
  endfacet
  facet normal 1.960936e-01 -8.500726e-01 4.887984e-01
    outer loop
      vertex   3.146860e+00 -1.364175e+01 0.000000e+00
      vertex   1.793478e+00 -6.766346e+00 1.250000e+01
      vertex   1.351732e+00 -6.868247e+00 1.250000e+01
    endloop
  endfacet
  facet normal 1.685271e-01 -8.562982e-01 4.882131e-01
    outer loop
      vertex   3.146860e+00 -1.364175e+01 0.000000e+00
      vertex   1.351732e+00 -6.868247e+00 1.250000e+01
      vertex   2.257233e+00 -1.381683e+01 0.000000e+00
    endloop
  endfacet
  facet normal 1.406573e-01 -8.609829e-01 4.887984e-01
    outer loop
      vertex   2.257233e+00 -1.381683e+01 0.000000e+00
      vertex   1.351732e+00 -6.868247e+00 1.250000e+01
      vertex   9.043170e-01 -6.941341e+00 1.250000e+01
    endloop
  endfacet
  facet normal 1.127456e-01 -8.654111e-01 4.882131e-01
    outer loop
      vertex   2.257233e+00 -1.381683e+01 0.000000e+00
      vertex   9.043170e-01 -6.941341e+00 1.250000e+01
      vertex   1.358138e+00 -1.393397e+01 0.000000e+00
    endloop
  endfacet
  facet normal 8.463108e-02 -8.682820e-01 4.887984e-01
    outer loop
      vertex   1.358138e+00 -1.393397e+01 0.000000e+00
      vertex   9.043170e-01 -6.941341e+00 1.250000e+01
      vertex   4.531087e-01 -6.985320e+00 1.250000e+01
    endloop
  endfacet
  facet normal 5.649130e-02 -8.708942e-01 4.882131e-01
    outer loop
      vertex   1.358138e+00 -1.393397e+01 0.000000e+00
      vertex   4.531087e-01 -6.985320e+00 1.250000e+01
      vertex   4.533465e-01 -1.399266e+01 0.000000e+00
    endloop
  endfacet
  facet normal 2.824986e-02 -8.719393e-01 4.887984e-01
    outer loop
      vertex   4.533465e-01 -1.399266e+01 0.000000e+00
      vertex   4.531087e-01 -6.985320e+00 1.250000e+01
      vertex   -8.572528e-16 -7.000000e+00 1.250000e+01
    endloop
  endfacet
  facet normal 0.000000e+00 -8.727245e-01 4.882131e-01
    outer loop
      vertex   4.533465e-01 -1.399266e+01 0.000000e+00
      vertex   -8.572528e-16 -7.000000e+00 1.250000e+01
      vertex   -4.533465e-01 -1.399266e+01 0.000000e+00
    endloop
  endfacet
  facet normal -2.824986e-02 -8.719393e-01 4.887984e-01
    outer loop
      vertex   -4.533465e-01 -1.399266e+01 0.000000e+00
      vertex   -8.572528e-16 -7.000000e+00 1.250000e+01
      vertex   -4.531087e-01 -6.985320e+00 1.250000e+01
    endloop
  endfacet
  facet normal -5.649130e-02 -8.708942e-01 4.882131e-01
    outer loop
      vertex   -4.533465e-01 -1.399266e+01 0.000000e+00
      vertex   -4.531087e-01 -6.985320e+00 1.250000e+01
      vertex   -1.358138e+00 -1.393397e+01 0.000000e+00
    endloop
  endfacet
  facet normal -8.463108e-02 -8.682820e-01 4.887984e-01
    outer loop
      vertex   -1.358138e+00 -1.393397e+01 0.000000e+00
      vertex   -4.531087e-01 -6.985320e+00 1.250000e+01
      vertex   -9.043170e-01 -6.941341e+00 1.250000e+01
    endloop
  endfacet
  facet normal -1.127456e-01 -8.654111e-01 4.882131e-01
    outer loop
      vertex   -1.358138e+00 -1.393397e+01 0.000000e+00
      vertex   -9.043170e-01 -6.941341e+00 1.250000e+01
      vertex   -2.257233e+00 -1.381683e+01 0.000000e+00
    endloop
  endfacet
  facet normal -1.406573e-01 -8.609829e-01 4.887984e-01
    outer loop
      vertex   -2.257233e+00 -1.381683e+01 0.000000e+00
      vertex   -9.043170e-01 -6.941341e+00 1.250000e+01
      vertex   -1.351732e+00 -6.868247e+00 1.250000e+01
    endloop
  endfacet
  facet normal -1.685271e-01 -8.562982e-01 4.882131e-01
    outer loop
      vertex   -2.257233e+00 -1.381683e+01 0.000000e+00
      vertex   -1.351732e+00 -6.868247e+00 1.250000e+01
      vertex   -3.146860e+00 -1.364175e+01 0.000000e+00
    endloop
  endfacet
  facet normal -1.960936e-01 -8.500726e-01 4.887984e-01
    outer loop
      vertex   -3.146860e+00 -1.364175e+01 0.000000e+00
      vertex   -1.351732e+00 -6.868247e+00 1.250000e+01
      vertex   -1.793478e+00 -6.766346e+00 1.250000e+01
    endloop
  endfacet
  facet normal -2.236017e-01 -8.435937e-01 4.882131e-01
    outer loop
      vertex   -3.146860e+00 -1.364175e+01 0.000000e+00
      vertex   -1.793478e+00 -6.766346e+00 1.250000e+01
      vertex   -4.023289e+00 -1.340944e+01 0.000000e+00
    endloop
  endfacet
  facet normal -2.507074e-01 -8.355967e-01 4.887984e-01
    outer loop
      vertex   -4.023289e+00 -1.340944e+01 0.000000e+00
      vertex   -1.793478e+00 -6.766346e+00 1.250000e+01
      vertex   -2.227701e+00 -6.636064e+00 1.250000e+01
    endloop
  endfacet
  facet normal -2.777384e-01 -8.273508e-01 4.882131e-01
    outer loop
      vertex   -4.023289e+00 -1.340944e+01 0.000000e+00
      vertex   -2.227701e+00 -6.636064e+00 1.250000e+01
      vertex   -4.882842e+00 -1.312089e+01 0.000000e+00
    endloop
  endfacet
  facet normal -3.042697e-01 -8.176161e-01 4.887984e-01
    outer loop
      vertex   -4.882842e+00 -1.312089e+01 0.000000e+00
      vertex   -2.227701e+00 -6.636064e+00 1.250000e+01
      vertex   -2.652580e+00 -6.477949e+00 1.250000e+01
    endloop
  endfacet
  facet normal -3.307102e-01 -8.076377e-01 4.882131e-01
    outer loop
      vertex   -4.882842e+00 -1.312089e+01 0.000000e+00
      vertex   -2.652580e+00 -6.477949e+00 1.250000e+01
      vertex   -5.721915e+00 -1.277731e+01 0.000000e+00
    endloop
  endfacet
  facet normal -3.565557e-01 -7.962061e-01 4.887984e-01
    outer loop
      vertex   -5.721915e+00 -1.277731e+01 0.000000e+00
      vertex   -2.652580e+00 -6.477949e+00 1.250000e+01
      vertex   -3.066334e+00 -6.292662e+00 1.250000e+01
    endloop
  endfacet
  facet normal -3.822949e-01 -7.845372e-01 4.882131e-01
    outer loop
      vertex   -5.721915e+00 -1.277731e+01 0.000000e+00
      vertex   -3.066334e+00 -6.292662e+00 1.250000e+01
      vertex   -6.536988e+00 -1.238014e+01 0.000000e+00
    endloop
  endfacet
  facet normal -4.073462e-01 -7.714565e-01 4.887984e-01
    outer loop
      vertex   -6.536988e+00 -1.238014e+01 0.000000e+00
      vertex   -3.066334e+00 -6.292662e+00 1.250000e+01
      vertex   -3.467226e+00 -6.080982e+00 1.250000e+01
    endloop
  endfacet
  facet normal -4.322761e-01 -7.581460e-01 4.882131e-01
    outer loop
      vertex   -6.536988e+00 -1.238014e+01 0.000000e+00
      vertex   -3.467226e+00 -6.080982e+00 1.250000e+01
      vertex   -7.324643e+00 -1.193104e+01 0.000000e+00
    endloop
  endfacet
  facet normal -4.564282e-01 -7.434712e-01 4.887984e-01
    outer loop
      vertex   -7.324643e+00 -1.193104e+01 0.000000e+00
      vertex   -3.467226e+00 -6.080982e+00 1.250000e+01
      vertex   -3.853575e+00 -5.843796e+00 1.250000e+01
    endloop
  endfacet
  facet normal -4.804442e-01 -7.285749e-01 4.882131e-01
    outer loop
      vertex   -7.324643e+00 -1.193104e+01 0.000000e+00
      vertex   -3.853575e+00 -5.843796e+00 1.250000e+01
      vertex   -8.081575e+00 -1.143189e+01 0.000000e+00
    endloop
  endfacet
  facet normal -5.035957e-01 -7.123675e-01 4.887984e-01
    outer loop
      vertex   -8.081575e+00 -1.143189e+01 0.000000e+00
      vertex   -3.853575e+00 -5.843796e+00 1.250000e+01
      vertex   -4.223762e+00 -5.582100e+00 1.250000e+01
    endloop
  endfacet
  facet normal -5.265972e-01 -6.959478e-01 4.882131e-01
    outer loop
      vertex   -8.081575e+00 -1.143189e+01 0.000000e+00
      vertex   -4.223762e+00 -5.582100e+00 1.250000e+01
      vertex   -8.804611e+00 -1.088480e+01 0.000000e+00
    endloop
  endfacet
  facet normal -5.486510e-01 -6.782759e-01 4.887984e-01
    outer loop
      vertex   -8.804611e+00 -1.088480e+01 0.000000e+00
      vertex   -4.223762e+00 -5.582100e+00 1.250000e+01
      vertex   -4.576232e+00 -5.296990e+00 1.250000e+01
    endloop
  endfacet
  facet normal -5.705414e-01 -6.604018e-01 4.882131e-01
    outer loop
      vertex   -8.804611e+00 -1.088480e+01 0.000000e+00
      vertex   -4.576232e+00 -5.296990e+00 1.250000e+01
      vertex   -9.490717e+00 -1.029205e+01 0.000000e+00
    endloop
  endfacet
  facet normal -5.914051e-01 -6.413393e-01 4.887984e-01
    outer loop
      vertex   -9.490717e+00 -1.029205e+01 0.000000e+00
      vertex   -4.576232e+00 -5.296990e+00 1.250000e+01
      vertex   -4.909508e+00 -4.989662e+00 1.250000e+01
    endloop
  endfacet
  facet normal -6.120925e-01 -6.220858e-01 4.882131e-01
    outer loop
      vertex   -9.490717e+00 -1.029205e+01 0.000000e+00
      vertex   -4.909508e+00 -4.989662e+00 1.250000e+01
      vertex   -1.013702e+01 -9.656133e+00 0.000000e+00
    endloop
  endfacet
  facet normal -6.316786e-01 -6.017128e-01 4.887984e-01
    outer loop
      vertex   -1.013702e+01 -9.656133e+00 0.000000e+00
      vertex   -4.909508e+00 -4.989662e+00 1.250000e+01
      vertex   -5.222192e+00 -4.661407e+00 1.250000e+01
    endloop
  endfacet
  facet normal -6.510764e-01 -5.811605e-01 4.882131e-01
    outer loop
      vertex   -1.013702e+01 -9.656133e+00 0.000000e+00
      vertex   -5.222192e+00 -4.661407e+00 1.250000e+01
      vertex   -1.074080e+01 -8.979715e+00 0.000000e+00
    endloop
  endfacet
  facet normal -6.693026e-01 -5.595625e-01 4.887984e-01
    outer loop
      vertex   -1.074080e+01 -8.979715e+00 0.000000e+00
      vertex   -5.222192e+00 -4.661407e+00 1.250000e+01
      vertex   -5.512972e+00 -4.313599e+00 1.250000e+01
    endloop
  endfacet
  facet normal -6.873294e-01 -5.377977e-01 4.882131e-01
    outer loop
      vertex   -1.074080e+01 -8.979715e+00 0.000000e+00
      vertex   -5.512972e+00 -4.313599e+00 1.250000e+01
      vertex   -1.129953e+01 -8.265633e+00 0.000000e+00
    endloop
  endfacet
  facet normal -7.041193e-01 -5.150651e-01 4.887984e-01
    outer loop
      vertex   -1.129953e+01 -8.265633e+00 0.000000e+00
      vertex   -5.512972e+00 -4.313599e+00 1.250000e+01
      vertex   -5.780629e+00 -3.947699e+00 1.250000e+01
    endloop
  endfacet
  facet normal -7.206995e-01 -4.921791e-01 4.882131e-01
    outer loop
      vertex   -1.129953e+01 -8.265633e+00 0.000000e+00
      vertex   -5.780629e+00 -3.947699e+00 1.250000e+01
      vertex   -1.181086e+01 -7.516882e+00 0.000000e+00
    endloop
  endfacet
  facet normal -7.359828e-01 -4.684074e-01 4.887984e-01
    outer loop
      vertex   -1.181086e+01 -7.516882e+00 0.000000e+00
      vertex   -5.780629e+00 -3.947699e+00 1.250000e+01
      vertex   -6.024040e+00 -3.565241e+00 1.250000e+01
    endloop
  endfacet
  facet normal -7.510467e-01 -4.444962e-01 4.882131e-01
    outer loop
      vertex   -1.181086e+01 -7.516882e+00 0.000000e+00
      vertex   -6.024040e+00 -3.565241e+00 1.250000e+01
      vertex   -1.227266e+01 -6.736603e+00 0.000000e+00
    endloop
  endfacet
  facet normal -7.647592e-01 -4.197851e-01 4.887984e-01
    outer loop
      vertex   -1.227266e+01 -6.736603e+00 0.000000e+00
      vertex   -6.024040e+00 -3.565241e+00 1.250000e+01
      vertex   -6.242184e+00 -3.167829e+00 1.250000e+01
    endloop
  endfacet
  facet normal -7.782438e-01 -3.949489e-01 4.882131e-01
    outer loop
      vertex   -1.227266e+01 -6.736603e+00 0.000000e+00
      vertex   -6.242184e+00 -3.167829e+00 1.250000e+01
      vertex   -1.268298e+01 -5.928068e+00 0.000000e+00
    endloop
  endfacet
  facet normal -7.903280e-01 -3.694020e-01 4.887984e-01
    outer loop
      vertex   -1.268298e+01 -5.928068e+00 0.000000e+00
      vertex   -6.242184e+00 -3.167829e+00 1.250000e+01
      vertex   -6.434146e+00 -2.757130e+00 1.250000e+01
    endloop
  endfacet
  facet normal -8.021766e-01 -3.437450e-01 4.882131e-01
    outer loop
      vertex   -1.268298e+01 -5.928068e+00 0.000000e+00
      vertex   -6.434146e+00 -2.757130e+00 1.250000e+01
      vertex   -1.304011e+01 -5.094669e+00 0.000000e+00
    endloop
  endfacet
  facet normal -8.125818e-01 -3.174695e-01 4.887984e-01
    outer loop
      vertex   -1.304011e+01 -5.094669e+00 0.000000e+00
      vertex   -6.434146e+00 -2.757130e+00 1.250000e+01
      vertex   -6.599121e+00 -2.334867e+00 1.250000e+01
    endloop
  endfacet
  facet normal -8.227449e-01 -2.910994e-01 4.882131e-01
    outer loop
      vertex   -1.304011e+01 -5.094669e+00 0.000000e+00
      vertex   -6.599121e+00 -2.334867e+00 1.250000e+01
      vertex   -1.334253e+01 -4.239901e+00 0.000000e+00
    endloop
  endfacet
  facet normal -8.314275e-01 -2.642054e-01 4.887984e-01
    outer loop
      vertex   -1.334253e+01 -4.239901e+00 0.000000e+00
      vertex   -6.599121e+00 -2.334867e+00 1.250000e+01
      vertex   -6.736417e+00 -1.902811e+00 1.250000e+01
    endloop
  endfacet
  facet normal -8.398623e-01 -2.372328e-01 4.882131e-01
    outer loop
      vertex   -1.334253e+01 -4.239901e+00 0.000000e+00
      vertex   -6.736417e+00 -1.902811e+00 1.250000e+01
      vertex   -1.358900e+01 -3.367349e+00 0.000000e+00
    endloop
  endfacet
  facet normal -8.467858e-01 -2.098332e-01 4.887984e-01
    outer loop
      vertex   -1.358900e+01 -3.367349e+00 0.000000e+00
      vertex   -6.736417e+00 -1.902811e+00 1.250000e+01
      vertex   -6.845458e+00 -1.462773e+00 1.250000e+01
    endloop
  endfacet
  facet normal -8.534569e-01 -1.823711e-01 4.882131e-01
    outer loop
      vertex   -1.358900e+01 -3.367349e+00 0.000000e+00
      vertex   -6.845458e+00 -1.462773e+00 1.250000e+01
      vertex   -1.377847e+01 -2.480674e+00 0.000000e+00
    endloop
  endfacet
  facet normal -8.585924e-01 -1.545808e-01 4.887984e-01
    outer loop
      vertex   -1.377847e+01 -2.480674e+00 0.000000e+00
      vertex   -6.845458e+00 -1.462773e+00 1.250000e+01
      vertex   -6.925787e+00 -1.016600e+00 1.250000e+01
    endloop
  endfacet
  facet normal -8.634719e-01 -1.267445e-01 4.882131e-01
    outer loop
      vertex   -1.377847e+01 -2.480674e+00 0.000000e+00
      vertex   -6.925787e+00 -1.016600e+00 1.250000e+01
      vertex   -1.391015e+01 -1.583594e+00 0.000000e+00
    endloop
  endfacet
  facet normal -8.667978e-01 -9.868014e-02 4.887984e-01
    outer loop
      vertex   -1.391015e+01 -1.583594e+00 0.000000e+00
      vertex   -6.925787e+00 -1.016600e+00 1.250000e+01
      vertex   -6.977067e+00 -5.661631e-01 1.250000e+01
    endloop
  endfacet
  facet normal -8.698652e-01 -7.058634e-02 4.882131e-01
    outer loop
      vertex   -1.391015e+01 -1.583594e+00 0.000000e+00
      vertex   -6.977067e+00 -5.661631e-01 1.250000e+01
      vertex   -1.398348e+01 -6.798711e-01 0.000000e+00
    endloop
  endfacet
  facet normal -8.713675e-01 -4.236553e-02 4.887984e-01
    outer loop
      vertex   -1.398348e+01 -6.798711e-01 0.000000e+00
      vertex   -6.977067e+00 -5.661631e-01 1.250000e+01
      vertex   -6.999082e+00 -1.133515e-01 1.250000e+01
    endloop
  endfacet
  facet normal -8.726100e-01 -1.413209e-02 4.882131e-01
    outer loop
      vertex   -1.398348e+01 -6.798711e-01 0.000000e+00
      vertex   -6.999082e+00 -1.133515e-01 1.250000e+01
      vertex   -1.399816e+01 2.267030e-01 0.000000e+00
    endloop
  endfacet
  facet normal -8.722824e-01 1.412678e-02 4.887984e-01
    outer loop
      vertex   -1.399816e+01 2.267030e-01 0.000000e+00
      vertex   -6.999082e+00 -1.133515e-01 1.250000e+01
      vertex   -6.991741e+00 3.399356e-01 1.250000e+01
    endloop
  endfacet
  facet normal -8.716948e-01 4.238144e-02 4.882131e-01
    outer loop
      vertex   -1.399816e+01 2.267030e-01 0.000000e+00
      vertex   -6.991741e+00 3.399356e-01 1.250000e+01
      vertex   -1.395413e+01 1.132326e+00 0.000000e+00
    endloop
  endfacet
  facet normal -8.695386e-01 7.055983e-02 4.887984e-01
    outer loop
      vertex   -1.395413e+01 1.132326e+00 0.000000e+00
      vertex   -6.991741e+00 3.399356e-01 1.250000e+01
      vertex   -6.955074e+00 7.917968e-01 1.250000e+01
    endloop
  endfacet
  facet normal -8.671233e-01 9.871720e-02 4.882131e-01
    outer loop
      vertex   -1.395413e+01 1.132326e+00 0.000000e+00
      vertex   -6.955074e+00 7.917968e-01 1.250000e+01
      vertex   -1.385157e+01 2.033200e+00 0.000000e+00
    endloop
  endfacet
  facet normal -8.631477e-01 1.266969e-01 4.887984e-01
    outer loop
      vertex   -1.385157e+01 2.033200e+00 0.000000e+00
      vertex   -6.955074e+00 7.917968e-01 1.250000e+01
      vertex   -6.889235e+00 1.240337e+00 1.250000e+01
    endloop
  endfacet
  facet normal -8.589149e-01 1.546389e-01 4.882131e-01
    outer loop
      vertex   -1.385157e+01 2.033200e+00 0.000000e+00
      vertex   -6.889235e+00 1.240337e+00 1.250000e+01
      vertex   -1.369092e+01 2.925546e+00 0.000000e+00
    endloop
  endfacet
  facet normal -8.531365e-01 1.823026e-01 4.887984e-01
    outer loop
      vertex   -1.369092e+01 2.925546e+00 0.000000e+00
      vertex   -6.889235e+00 1.240337e+00 1.250000e+01
      vertex   -6.794501e+00 1.683675e+00 1.250000e+01
    endloop
  endfacet
  facet normal -8.471038e-01 2.099120e-01 4.882131e-01
    outer loop
      vertex   -1.369092e+01 2.925546e+00 0.000000e+00
      vertex   -6.794501e+00 1.683675e+00 1.250000e+01
      vertex   -1.347283e+01 3.805621e+00 0.000000e+00
    endloop
  endfacet
  facet normal -8.395469e-01 2.371437e-01 4.887984e-01
    outer loop
      vertex   -1.347283e+01 3.805621e+00 0.000000e+00
      vertex   -6.794501e+00 1.683675e+00 1.250000e+01
      vertex   -6.671267e+00 2.119951e+00 1.250000e+01
    endloop
  endfacet
  facet normal -8.317398e-01 2.643047e-01 4.882131e-01
    outer loop
      vertex   -1.347283e+01 3.805621e+00 0.000000e+00
      vertex   -6.671267e+00 2.119951e+00 1.250000e+01
      vertex   -1.319824e+01 4.669734e+00 0.000000e+00
    endloop
  endfacet
  facet normal -8.224360e-01 2.909901e-01 4.887984e-01
    outer loop
      vertex   -1.319824e+01 4.669734e+00 0.000000e+00
      vertex   -6.671267e+00 2.119951e+00 1.250000e+01
      vertex   -6.520053e+00 2.547335e+00 1.250000e+01
    endloop
  endfacet
  facet normal -8.128871e-01 3.175887e-01 4.882131e-01
    outer loop
      vertex   -1.319824e+01 4.669734e+00 0.000000e+00
      vertex   -6.520053e+00 2.547335e+00 1.250000e+01
      vertex   -1.286829e+01 5.514261e+00 0.000000e+00
    endloop
  endfacet
  facet normal -8.018754e-01 3.436159e-01 4.887984e-01
    outer loop
      vertex   -1.286829e+01 5.514261e+00 0.000000e+00
      vertex   -6.520053e+00 2.547335e+00 1.250000e+01
      vertex   -6.341490e+00 2.964034e+00 1.250000e+01
    endloop
  endfacet
  facet normal -7.906248e-01 3.695407e-01 4.882131e-01
    outer loop
      vertex   -1.286829e+01 5.514261e+00 0.000000e+00
      vertex   -6.341490e+00 2.964034e+00 1.250000e+01
      vertex   -1.248437e+01 6.335658e+00 0.000000e+00
    endloop
  endfacet
  facet normal -7.779516e-01 3.948006e-01 4.887984e-01
    outer loop
      vertex   -1.248437e+01 6.335658e+00 0.000000e+00
      vertex   -6.341490e+00 2.964034e+00 1.250000e+01
      vertex   -6.136330e+00 3.368302e+00 1.250000e+01
    endloop
  endfacet
  facet normal -7.650465e-01 4.199427e-01 4.882131e-01
    outer loop
      vertex   -1.248437e+01 6.335658e+00 0.000000e+00
      vertex   -6.136330e+00 3.368302e+00 1.250000e+01
      vertex   -1.204808e+01 7.130482e+00 0.000000e+00
    endloop
  endfacet
  facet normal -7.507647e-01 4.443293e-01 4.887984e-01
    outer loop
      vertex   -1.204808e+01 7.130482e+00 0.000000e+00
      vertex   -6.136330e+00 3.368302e+00 1.250000e+01
      vertex   -5.905431e+00 3.758441e+00 1.250000e+01
    endloop
  endfacet
  facet normal -7.362592e-01 4.685834e-01 4.882131e-01
    outer loop
      vertex   -1.204808e+01 7.130482e+00 0.000000e+00
      vertex   -5.905431e+00 3.758441e+00 1.250000e+01
      vertex   -1.156126e+01 7.895398e+00 0.000000e+00
    endloop
  endfacet
  facet normal -7.204289e-01 4.919943e-01 4.887984e-01
    outer loop
      vertex   -1.156126e+01 7.895398e+00 0.000000e+00
      vertex   -5.905431e+00 3.758441e+00 1.250000e+01
      vertex   -5.649763e+00 4.132817e+00 1.250000e+01
    endloop
  endfacet
  facet normal -7.043838e-01 5.152586e-01 4.882131e-01
    outer loop
      vertex   -1.156126e+01 7.895398e+00 0.000000e+00
      vertex   -5.649763e+00 4.132817e+00 1.250000e+01
      vertex   -1.102594e+01 8.627199e+00 0.000000e+00
    endloop
  endfacet
  facet normal -6.870713e-01 5.375957e-01 4.887984e-01
    outer loop
      vertex   -1.102594e+01 8.627199e+00 0.000000e+00
      vertex   -5.649763e+00 4.132817e+00 1.250000e+01
      vertex   -5.370398e+00 4.489858e+00 1.250000e+01
    endloop
  endfacet
  facet normal -6.695540e-01 5.597726e-01 4.882131e-01
    outer loop
      vertex   -1.102594e+01 8.627199e+00 0.000000e+00
      vertex   -5.370398e+00 4.489858e+00 1.250000e+01
      vertex   -1.044438e+01 9.322813e+00 0.000000e+00
    endloop
  endfacet
  facet normal -6.508319e-01 5.809423e-01 4.887984e-01
    outer loop
      vertex   -1.044438e+01 9.322813e+00 0.000000e+00
      vertex   -5.370398e+00 4.489858e+00 1.250000e+01
      vertex   -5.068508e+00 4.828066e+00 1.250000e+01
    endloop
  endfacet
  facet normal -6.319159e-01 6.019388e-01 4.882131e-01
    outer loop
      vertex   -1.044438e+01 9.322813e+00 0.000000e+00
      vertex   -5.068508e+00 4.828066e+00 1.250000e+01
      vertex   -9.819016e+00 9.979325e+00 0.000000e+00
    endloop
  endfacet
  facet normal -6.118627e-01 6.218522e-01 4.887984e-01
    outer loop
      vertex   -9.819016e+00 9.979325e+00 0.000000e+00
      vertex   -5.068508e+00 4.828066e+00 1.250000e+01
      vertex   -4.745359e+00 5.146025e+00 1.250000e+01
    endloop
  endfacet
  facet normal -5.916272e-01 6.415802e-01 4.882131e-01
    outer loop
      vertex   -9.819016e+00 9.979325e+00 0.000000e+00
      vertex   -4.745359e+00 5.146025e+00 1.250000e+01
      vertex   -9.152464e+00 1.059398e+01 0.000000e+00
    endloop
  endfacet
  facet normal -5.703272e-01 6.601538e-01 4.887984e-01
    outer loop
      vertex   -9.152464e+00 1.059398e+01 0.000000e+00
      vertex   -4.745359e+00 5.146025e+00 1.250000e+01
      vertex   -4.402306e+00 5.442399e+00 1.250000e+01
    endloop
  endfacet
  facet normal -5.488571e-01 6.785307e-01 4.882131e-01
    outer loop
      vertex   -9.152464e+00 1.059398e+01 0.000000e+00
      vertex   -4.402306e+00 5.442399e+00 1.250000e+01
      vertex   -8.447523e+00 1.116420e+01 0.000000e+00
    endloop
  endfacet
  facet normal -5.263994e-01 6.956865e-01 4.887984e-01
    outer loop
      vertex   -8.447523e+00 1.116420e+01 0.000000e+00
      vertex   -4.402306e+00 5.442399e+00 1.250000e+01
      vertex   -4.040788e+00 5.715946e+00 1.250000e+01
    endloop
  endfacet
  facet normal -5.037849e-01 7.126351e-01 4.882131e-01
    outer loop
      vertex   -8.447523e+00 1.116420e+01 0.000000e+00
      vertex   -4.040788e+00 5.715946e+00 1.250000e+01
      vertex   -7.707151e+00 1.168759e+01 0.000000e+00
    endloop
  endfacet
  facet normal -4.802638e-01 7.283013e-01 4.887984e-01
    outer loop
      vertex   -7.707151e+00 1.168759e+01 0.000000e+00
      vertex   -4.040788e+00 5.715946e+00 1.250000e+01
      vertex   -3.662321e+00 5.965518e+00 1.250000e+01
    endloop
  endfacet
  facet normal -4.565996e-01 7.437505e-01 4.882131e-01
    outer loop
      vertex   -7.707151e+00 1.168759e+01 0.000000e+00
      vertex   -3.662321e+00 5.965518e+00 1.250000e+01
      vertex   -6.934452e+00 1.216196e+01 0.000000e+00
    endloop
  endfacet
  facet normal -4.321138e-01 7.578613e-01 4.887984e-01
    outer loop
      vertex   -6.934452e+00 1.216196e+01 0.000000e+00
      vertex   -3.662321e+00 5.965518e+00 1.250000e+01
      vertex   -3.268494e+00 6.190068e+00 1.250000e+01
    endloop
  endfacet
  facet normal -4.074992e-01 7.717463e-01 4.882131e-01
    outer loop
      vertex   -6.934452e+00 1.216196e+01 0.000000e+00
      vertex   -3.268494e+00 6.190068e+00 1.250000e+01
      vertex   -6.132667e+00 1.258532e+01 0.000000e+00
    endloop
  endfacet
  facet normal -3.821514e-01 7.842426e-01 4.887984e-01
    outer loop
      vertex   -6.132667e+00 1.258532e+01 0.000000e+00
      vertex   -3.268494e+00 6.190068e+00 1.250000e+01
      vertex   -2.860957e+00 6.388656e+00 1.250000e+01
    endloop
  endfacet
  facet normal -3.566896e-01 7.965052e-01 4.882131e-01
    outer loop
      vertex   -6.132667e+00 1.258532e+01 0.000000e+00
      vertex   -2.860957e+00 6.388656e+00 1.250000e+01
      vertex   -5.305160e+00 1.295590e+01 0.000000e+00
    endloop
  endfacet
  facet normal -3.305861e-01 8.073345e-01 4.887984e-01
    outer loop
      vertex   -5.305160e+00 1.295590e+01 0.000000e+00
      vertex   -2.860957e+00 6.388656e+00 1.250000e+01
      vertex   -2.441421e+00 6.560447e+00 1.250000e+01
    endloop
  endfacet
  facet normal -3.043840e-01 8.179232e-01 4.882131e-01
    outer loop
      vertex   -5.305160e+00 1.295590e+01 0.000000e+00
      vertex   -2.441421e+00 6.560447e+00 1.250000e+01
      vertex   -4.455402e+00 1.327213e+01 0.000000e+00
    endloop
  endfacet
  facet normal -2.776341e-01 8.270401e-01 4.887984e-01
    outer loop
      vertex   -4.455402e+00 1.327213e+01 0.000000e+00
      vertex   -2.441421e+00 6.560447e+00 1.250000e+01
      vertex   -2.011644e+00 6.704721e+00 1.250000e+01
    endloop
  endfacet
  facet normal -2.508016e-01 8.359106e-01 4.882131e-01
    outer loop
      vertex   -4.455402e+00 1.327213e+01 0.000000e+00
      vertex   -2.011644e+00 6.704721e+00 1.250000e+01
      vertex   -3.586956e+00 1.353269e+01 0.000000e+00
    endloop
  endfacet
  facet normal -2.235177e-01 8.432769e-01 4.887984e-01
    outer loop
      vertex   -3.586956e+00 1.353269e+01 0.000000e+00
      vertex   -2.011644e+00 6.704721e+00 1.250000e+01
      vertex   -1.573430e+00 6.820874e+00 1.250000e+01
    endloop
  endfacet
  facet normal -1.961673e-01 8.503919e-01 4.882131e-01
    outer loop
      vertex   -3.586956e+00 1.353269e+01 0.000000e+00
      vertex   -1.573430e+00 6.820874e+00 1.250000e+01
      vertex   -2.703464e+00 1.373649e+01 0.000000e+00
    endloop
  endfacet
  facet normal -1.684638e-01 8.559767e-01 4.887984e-01
    outer loop
      vertex   -2.703464e+00 1.373649e+01 0.000000e+00
      vertex   -1.573430e+00 6.820874e+00 1.250000e+01
      vertex   -1.128616e+00 6.908417e+00 1.250000e+01
    endloop
  endfacet
  facet normal -1.407102e-01 8.613063e-01 4.882131e-01
    outer loop
      vertex   -2.703464e+00 1.373649e+01 0.000000e+00
      vertex   -1.128616e+00 6.908417e+00 1.250000e+01
      vertex   -1.808634e+00 1.388268e+01 0.000000e+00
    endloop
  endfacet
  facet normal -1.127033e-01 8.650862e-01 4.887984e-01
    outer loop
      vertex   -1.808634e+00 1.388268e+01 0.000000e+00
      vertex   -1.128616e+00 6.908417e+00 1.250000e+01
      vertex   -6.790690e-01 6.966984e+00 1.250000e+01
    endloop
  endfacet
  facet normal -8.466287e-02 8.686082e-01 4.882131e-01
    outer loop
      vertex   -1.808634e+00 1.388268e+01 0.000000e+00
      vertex   -6.790690e-01 6.966984e+00 1.250000e+01
      vertex   -9.062175e-01 1.397064e+01 0.000000e+00
    endloop
  endfacet
  facet normal -5.647008e-02 8.705672e-01 4.887984e-01
    outer loop
      vertex   -9.062175e-01 1.397064e+01 0.000000e+00
      vertex   -6.790690e-01 6.966984e+00 1.250000e+01
      vertex   -2.266732e-01 6.996329e+00 1.250000e+01
    endloop
  endfacet
  facet normal -2.825693e-02 -8.721576e-01 4.884083e-01
    outer loop
      vertex   -8.572528e-16 -7.000000e+00 1.250000e+01
      vertex   0.000000e+00 0.000000e+00 2.500000e+01
      vertex   -4.531087e-01 -6.985320e+00 1.250000e+01
    endloop
  endfacet
  facet normal -8.465228e-02 -8.684995e-01 4.884083e-01
    outer loop
      vertex   -4.531087e-01 -6.985320e+00 1.250000e+01
      vertex   0.000000e+00 0.000000e+00 2.500000e+01
      vertex   -9.043170e-01 -6.941341e+00 1.250000e+01
    endloop
  endfacet
  facet normal -1.406926e-01 -8.611986e-01 4.884083e-01
    outer loop
      vertex   -9.043170e-01 -6.941341e+00 1.250000e+01
      vertex   0.000000e+00 0.000000e+00 2.500000e+01
      vertex   -1.351732e+00 -6.868247e+00 1.250000e+01
    endloop
  endfacet
  facet normal -1.961427e-01 -8.502855e-01 4.884083e-01
    outer loop
      vertex   -1.351732e+00 -6.868247e+00 1.250000e+01
      vertex   0.000000e+00 0.000000e+00 2.500000e+01
      vertex   -1.793478e+00 -6.766346e+00 1.250000e+01
    endloop
  endfacet
  facet normal -2.507702e-01 -8.358060e-01 4.884083e-01
    outer loop
      vertex   -1.793478e+00 -6.766346e+00 1.250000e+01
      vertex   0.000000e+00 0.000000e+00 2.500000e+01
      vertex   -2.227701e+00 -6.636064e+00 1.250000e+01
    endloop
  endfacet
  facet normal -3.043459e-01 -8.178209e-01 4.884083e-01
    outer loop
      vertex   -2.227701e+00 -6.636064e+00 1.250000e+01
      vertex   0.000000e+00 0.000000e+00 2.500000e+01
      vertex   -2.652580e+00 -6.477949e+00 1.250000e+01
    endloop
  endfacet
  facet normal -3.566450e-01 -7.964055e-01 4.884083e-01
    outer loop
      vertex   -2.652580e+00 -6.477949e+00 1.250000e+01
      vertex   0.000000e+00 0.000000e+00 2.500000e+01
      vertex   -3.066334e+00 -6.292662e+00 1.250000e+01
    endloop
  endfacet
  facet normal -4.074482e-01 -7.716497e-01 4.884083e-01
    outer loop
      vertex   -3.066334e+00 -6.292662e+00 1.250000e+01
      vertex   0.000000e+00 0.000000e+00 2.500000e+01
      vertex   -3.467226e+00 -6.080982e+00 1.250000e+01
    endloop
  endfacet
  facet normal -4.565425e-01 -7.436574e-01 4.884083e-01
    outer loop
      vertex   -3.467226e+00 -6.080982e+00 1.250000e+01
      vertex   0.000000e+00 0.000000e+00 2.500000e+01
      vertex   -3.853575e+00 -5.843796e+00 1.250000e+01
    endloop
  endfacet
  facet normal -5.037219e-01 -7.125459e-01 4.884083e-01
    outer loop
      vertex   -3.853575e+00 -5.843796e+00 1.250000e+01
      vertex   0.000000e+00 0.000000e+00 2.500000e+01
      vertex   -4.223762e+00 -5.582100e+00 1.250000e+01
    endloop
  endfacet
  facet normal -5.487884e-01 -6.784457e-01 4.884083e-01
    outer loop
      vertex   -4.223762e+00 -5.582100e+00 1.250000e+01
      vertex   0.000000e+00 0.000000e+00 2.500000e+01
      vertex   -4.576232e+00 -5.296990e+00 1.250000e+01
    endloop
  endfacet
  facet normal -5.915532e-01 -6.415000e-01 4.884083e-01
    outer loop
      vertex   -4.576232e+00 -5.296990e+00 1.250000e+01
      vertex   0.000000e+00 0.000000e+00 2.500000e+01
      vertex   -4.909508e+00 -4.989662e+00 1.250000e+01
    endloop
  endfacet
  facet normal -6.318368e-01 -6.018635e-01 4.884083e-01
    outer loop
      vertex   -4.909508e+00 -4.989662e+00 1.250000e+01
      vertex   0.000000e+00 0.000000e+00 2.500000e+01
      vertex   -5.222192e+00 -4.661407e+00 1.250000e+01
    endloop
  endfacet
  facet normal -6.694702e-01 -5.597026e-01 4.884083e-01
    outer loop
      vertex   -5.222192e+00 -4.661407e+00 1.250000e+01
      vertex   0.000000e+00 0.000000e+00 2.500000e+01
      vertex   -5.512972e+00 -4.313599e+00 1.250000e+01
    endloop
  endfacet
  facet normal -7.042957e-01 -5.151941e-01 4.884083e-01
    outer loop
      vertex   -5.512972e+00 -4.313599e+00 1.250000e+01
      vertex   0.000000e+00 0.000000e+00 2.500000e+01
      vertex   -5.780629e+00 -3.947699e+00 1.250000e+01
    endloop
  endfacet
  facet normal -7.361671e-01 -4.685247e-01 4.884083e-01
    outer loop
      vertex   -5.780629e+00 -3.947699e+00 1.250000e+01
      vertex   0.000000e+00 0.000000e+00 2.500000e+01
      vertex   -6.024040e+00 -3.565241e+00 1.250000e+01
    endloop
  endfacet
  facet normal -7.649507e-01 -4.198902e-01 4.884083e-01
    outer loop
      vertex   -6.024040e+00 -3.565241e+00 1.250000e+01
      vertex   0.000000e+00 0.000000e+00 2.500000e+01
      vertex   -6.242184e+00 -3.167829e+00 1.250000e+01
    endloop
  endfacet
  facet normal -7.905259e-01 -3.694945e-01 4.884083e-01
    outer loop
      vertex   -6.242184e+00 -3.167829e+00 1.250000e+01
      vertex   0.000000e+00 0.000000e+00 2.500000e+01
      vertex   -6.434146e+00 -2.757130e+00 1.250000e+01
    endloop
  endfacet
  facet normal -8.127853e-01 -3.175490e-01 4.884083e-01
    outer loop
      vertex   -6.434146e+00 -2.757130e+00 1.250000e+01
      vertex   0.000000e+00 0.000000e+00 2.500000e+01
      vertex   -6.599121e+00 -2.334867e+00 1.250000e+01
    endloop
  endfacet
  facet normal -8.316357e-01 -2.642716e-01 4.884083e-01
    outer loop
      vertex   -6.599121e+00 -2.334867e+00 1.250000e+01
      vertex   0.000000e+00 0.000000e+00 2.500000e+01
      vertex   -6.736417e+00 -1.902811e+00 1.250000e+01
    endloop
  endfacet
  facet normal -8.469978e-01 -2.098857e-01 4.884083e-01
    outer loop
      vertex   -6.736417e+00 -1.902811e+00 1.250000e+01
      vertex   0.000000e+00 0.000000e+00 2.500000e+01
      vertex   -6.845458e+00 -1.462773e+00 1.250000e+01
    endloop
  endfacet
  facet normal -8.588074e-01 -1.546196e-01 4.884083e-01
    outer loop
      vertex   -6.845458e+00 -1.462773e+00 1.250000e+01
      vertex   0.000000e+00 0.000000e+00 2.500000e+01
      vertex   -6.925787e+00 -1.016600e+00 1.250000e+01
    endloop
  endfacet
  facet normal -8.670148e-01 -9.870485e-02 4.884083e-01
    outer loop
      vertex   -6.925787e+00 -1.016600e+00 1.250000e+01
      vertex   0.000000e+00 0.000000e+00 2.500000e+01
      vertex   -6.977067e+00 -5.661631e-01 1.250000e+01
    endloop
  endfacet
  facet normal -8.715857e-01 -4.237614e-02 4.884083e-01
    outer loop
      vertex   -6.977067e+00 -5.661631e-01 1.250000e+01
      vertex   0.000000e+00 0.000000e+00 2.500000e+01
      vertex   -6.999082e+00 -1.133515e-01 1.250000e+01
    endloop
  endfacet
  facet normal -8.725008e-01 1.413032e-02 4.884083e-01
    outer loop
      vertex   -6.999082e+00 -1.133515e-01 1.250000e+01
      vertex   0.000000e+00 0.000000e+00 2.500000e+01
      vertex   -6.991741e+00 3.399356e-01 1.250000e+01
    endloop
  endfacet
  facet normal -8.697564e-01 7.057751e-02 4.884083e-01
    outer loop
      vertex   -6.991741e+00 3.399356e-01 1.250000e+01
      vertex   0.000000e+00 0.000000e+00 2.500000e+01
      vertex   -6.955074e+00 7.917968e-01 1.250000e+01
    endloop
  endfacet
  facet normal -8.633639e-01 1.267287e-01 4.884083e-01
    outer loop
      vertex   -6.955074e+00 7.917968e-01 1.250000e+01
      vertex   0.000000e+00 0.000000e+00 2.500000e+01
      vertex   -6.889235e+00 1.240337e+00 1.250000e+01
    endloop
  endfacet
  facet normal -8.533501e-01 1.823483e-01 4.884083e-01
    outer loop
      vertex   -6.889235e+00 1.240337e+00 1.250000e+01
      vertex   0.000000e+00 0.000000e+00 2.500000e+01
      vertex   -6.794501e+00 1.683675e+00 1.250000e+01
    endloop
  endfacet
  facet normal -8.397572e-01 2.372031e-01 4.884083e-01
    outer loop
      vertex   -6.794501e+00 1.683675e+00 1.250000e+01
      vertex   0.000000e+00 0.000000e+00 2.500000e+01
      vertex   -6.671267e+00 2.119951e+00 1.250000e+01
    endloop
  endfacet
  facet normal -8.226419e-01 2.910629e-01 4.884083e-01
    outer loop
      vertex   -6.671267e+00 2.119951e+00 1.250000e+01
      vertex   0.000000e+00 0.000000e+00 2.500000e+01
      vertex   -6.520053e+00 2.547335e+00 1.250000e+01
    endloop
  endfacet
  facet normal -8.020762e-01 3.437020e-01 4.884083e-01
    outer loop
      vertex   -6.520053e+00 2.547335e+00 1.250000e+01
      vertex   0.000000e+00 0.000000e+00 2.500000e+01
      vertex   -6.341490e+00 2.964034e+00 1.250000e+01
    endloop
  endfacet
  facet normal -7.781464e-01 3.948994e-01 4.884083e-01
    outer loop
      vertex   -6.341490e+00 2.964034e+00 1.250000e+01
      vertex   0.000000e+00 0.000000e+00 2.500000e+01
      vertex   -6.136330e+00 3.368302e+00 1.250000e+01
    endloop
  endfacet
  facet normal -7.206093e-01 4.921175e-01 4.884083e-01
    outer loop
      vertex   -5.905431e+00 3.758441e+00 1.250000e+01
      vertex   0.000000e+00 0.000000e+00 2.500000e+01
      vertex   -5.649763e+00 4.132817e+00 1.250000e+01
    endloop
  endfacet
  facet normal -6.872434e-01 5.377304e-01 4.884083e-01
    outer loop
      vertex   -5.649763e+00 4.132817e+00 1.250000e+01
      vertex   0.000000e+00 0.000000e+00 2.500000e+01
      vertex   -5.370398e+00 4.489858e+00 1.250000e+01
    endloop
  endfacet
  facet normal -6.509949e-01 5.810878e-01 4.884083e-01
    outer loop
      vertex   -5.370398e+00 4.489858e+00 1.250000e+01
      vertex   0.000000e+00 0.000000e+00 2.500000e+01
      vertex   -5.068508e+00 4.828066e+00 1.250000e+01
    endloop
  endfacet
  facet normal -6.120159e-01 6.220079e-01 4.884083e-01
    outer loop
      vertex   -5.068508e+00 4.828066e+00 1.250000e+01
      vertex   0.000000e+00 0.000000e+00 2.500000e+01
      vertex   -4.745359e+00 5.146025e+00 1.250000e+01
    endloop
  endfacet
  facet normal -5.704700e-01 6.603191e-01 4.884083e-01
    outer loop
      vertex   -4.745359e+00 5.146025e+00 1.250000e+01
      vertex   0.000000e+00 0.000000e+00 2.500000e+01
      vertex   -4.402306e+00 5.442399e+00 1.250000e+01
    endloop
  endfacet
  facet normal -5.265313e-01 6.958608e-01 4.884083e-01
    outer loop
      vertex   -4.402306e+00 5.442399e+00 1.250000e+01
      vertex   0.000000e+00 0.000000e+00 2.500000e+01
      vertex   -4.040788e+00 5.715946e+00 1.250000e+01
    endloop
  endfacet
  facet normal -4.803841e-01 7.284837e-01 4.884083e-01
    outer loop
      vertex   -4.040788e+00 5.715946e+00 1.250000e+01
      vertex   0.000000e+00 0.000000e+00 2.500000e+01
      vertex   -3.662321e+00 5.965518e+00 1.250000e+01
    endloop
  endfacet
  facet normal -4.322220e-01 7.580511e-01 4.884083e-01
    outer loop
      vertex   -3.662321e+00 5.965518e+00 1.250000e+01
      vertex   0.000000e+00 0.000000e+00 2.500000e+01
      vertex   -3.268494e+00 6.190068e+00 1.250000e+01
    endloop
  endfacet
  facet normal -3.822471e-01 7.844390e-01 4.884083e-01
    outer loop
      vertex   -3.268494e+00 6.190068e+00 1.250000e+01
      vertex   0.000000e+00 0.000000e+00 2.500000e+01
      vertex   -2.860957e+00 6.388656e+00 1.250000e+01
    endloop
  endfacet
  facet normal -3.306688e-01 8.075367e-01 4.884083e-01
    outer loop
      vertex   -2.860957e+00 6.388656e+00 1.250000e+01
      vertex   0.000000e+00 0.000000e+00 2.500000e+01
      vertex   -2.441421e+00 6.560447e+00 1.250000e+01
    endloop
  endfacet
  facet normal -2.777037e-01 8.272473e-01 4.884083e-01
    outer loop
      vertex   -2.441421e+00 6.560447e+00 1.250000e+01
      vertex   0.000000e+00 0.000000e+00 2.500000e+01
      vertex   -2.011644e+00 6.704721e+00 1.250000e+01
    endloop
  endfacet
  facet normal -2.235737e-01 8.434881e-01 4.884083e-01
    outer loop
      vertex   -2.011644e+00 6.704721e+00 1.250000e+01
      vertex   0.000000e+00 0.000000e+00 2.500000e+01
      vertex   -1.573430e+00 6.820874e+00 1.250000e+01
    endloop
  endfacet
  facet normal -1.685060e-01 8.561910e-01 4.884083e-01
    outer loop
      vertex   -1.573430e+00 6.820874e+00 1.250000e+01
      vertex   0.000000e+00 0.000000e+00 2.500000e+01
      vertex   -1.128616e+00 6.908417e+00 1.250000e+01
    endloop
  endfacet
  facet normal -1.127315e-01 8.653028e-01 4.884083e-01
    outer loop
      vertex   -1.128616e+00 6.908417e+00 1.250000e+01
      vertex   0.000000e+00 0.000000e+00 2.500000e+01
      vertex   -6.790690e-01 6.966984e+00 1.250000e+01
    endloop
  endfacet
  facet normal -5.648423e-02 8.707852e-01 4.884083e-01
    outer loop
      vertex   -6.790690e-01 6.966984e+00 1.250000e+01
      vertex   0.000000e+00 0.000000e+00 2.500000e+01
      vertex   -2.266732e-01 6.996329e+00 1.250000e+01
    endloop
  endfacet
  facet normal -0.000000e+00 8.726152e-01 4.884083e-01
    outer loop
      vertex   -2.266732e-01 6.996329e+00 1.250000e+01
      vertex   0.000000e+00 0.000000e+00 2.500000e+01
      vertex   2.266732e-01 6.996329e+00 1.250000e+01
    endloop
  endfacet
  facet normal 5.648423e-02 8.707852e-01 4.884083e-01
    outer loop
      vertex   2.266732e-01 6.996329e+00 1.250000e+01
      vertex   0.000000e+00 0.000000e+00 2.500000e+01
      vertex   6.790690e-01 6.966984e+00 1.250000e+01
    endloop
  endfacet
  facet normal 1.127315e-01 8.653028e-01 4.884083e-01
    outer loop
      vertex   6.790690e-01 6.966984e+00 1.250000e+01
      vertex   0.000000e+00 0.000000e+00 2.500000e+01
      vertex   1.128616e+00 6.908417e+00 1.250000e+01
    endloop
  endfacet
  facet normal 1.685060e-01 8.561910e-01 4.884083e-01
    outer loop
      vertex   1.128616e+00 6.908417e+00 1.250000e+01
      vertex   0.000000e+00 0.000000e+00 2.500000e+01
      vertex   1.573430e+00 6.820874e+00 1.250000e+01
    endloop
  endfacet
  facet normal 2.235737e-01 8.434881e-01 4.884083e-01
    outer loop
      vertex   1.573430e+00 6.820874e+00 1.250000e+01
      vertex   0.000000e+00 0.000000e+00 2.500000e+01
      vertex   2.011644e+00 6.704721e+00 1.250000e+01
    endloop
  endfacet
  facet normal 2.777037e-01 8.272473e-01 4.884083e-01
    outer loop
      vertex   2.011644e+00 6.704721e+00 1.250000e+01
      vertex   0.000000e+00 0.000000e+00 2.500000e+01
      vertex   2.441421e+00 6.560447e+00 1.250000e+01
    endloop
  endfacet
  facet normal 3.306688e-01 8.075367e-01 4.884083e-01
    outer loop
      vertex   2.441421e+00 6.560447e+00 1.250000e+01
      vertex   0.000000e+00 0.000000e+00 2.500000e+01
      vertex   2.860957e+00 6.388656e+00 1.250000e+01
    endloop
  endfacet
  facet normal 3.822471e-01 7.844390e-01 4.884083e-01
    outer loop
      vertex   2.860957e+00 6.388656e+00 1.250000e+01
      vertex   0.000000e+00 0.000000e+00 2.500000e+01
      vertex   3.268494e+00 6.190068e+00 1.250000e+01
    endloop
  endfacet
  facet normal 4.322220e-01 7.580511e-01 4.884083e-01
    outer loop
      vertex   3.268494e+00 6.190068e+00 1.250000e+01
      vertex   0.000000e+00 0.000000e+00 2.500000e+01
      vertex   3.662321e+00 5.965518e+00 1.250000e+01
    endloop
  endfacet
  facet normal 4.803841e-01 7.284837e-01 4.884083e-01
    outer loop
      vertex   3.662321e+00 5.965518e+00 1.250000e+01
      vertex   0.000000e+00 0.000000e+00 2.500000e+01
      vertex   4.040788e+00 5.715946e+00 1.250000e+01
    endloop
  endfacet
  facet normal 5.265313e-01 6.958608e-01 4.884083e-01
    outer loop
      vertex   4.040788e+00 5.715946e+00 1.250000e+01
      vertex   0.000000e+00 0.000000e+00 2.500000e+01
      vertex   4.402306e+00 5.442399e+00 1.250000e+01
    endloop
  endfacet
  facet normal 5.704700e-01 6.603191e-01 4.884083e-01
    outer loop
      vertex   4.402306e+00 5.442399e+00 1.250000e+01
      vertex   0.000000e+00 0.000000e+00 2.500000e+01
      vertex   4.745359e+00 5.146025e+00 1.250000e+01
    endloop
  endfacet
  facet normal 6.120159e-01 6.220079e-01 4.884083e-01
    outer loop
      vertex   4.745359e+00 5.146025e+00 1.250000e+01
      vertex   0.000000e+00 0.000000e+00 2.500000e+01
      vertex   5.068508e+00 4.828066e+00 1.250000e+01
    endloop
  endfacet
  facet normal 6.509949e-01 5.810878e-01 4.884083e-01
    outer loop
      vertex   5.068508e+00 4.828066e+00 1.250000e+01
      vertex   0.000000e+00 0.000000e+00 2.500000e+01
      vertex   5.370398e+00 4.489858e+00 1.250000e+01
    endloop
  endfacet
  facet normal 6.872434e-01 5.377304e-01 4.884083e-01
    outer loop
      vertex   5.370398e+00 4.489858e+00 1.250000e+01
      vertex   0.000000e+00 0.000000e+00 2.500000e+01
      vertex   5.649763e+00 4.132817e+00 1.250000e+01
    endloop
  endfacet
  facet normal 7.206093e-01 4.921175e-01 4.884083e-01
    outer loop
      vertex   5.649763e+00 4.132817e+00 1.250000e+01
      vertex   0.000000e+00 0.000000e+00 2.500000e+01
      vertex   5.905431e+00 3.758441e+00 1.250000e+01
    endloop
  endfacet
  facet normal 7.781464e-01 3.948994e-01 4.884083e-01
    outer loop
      vertex   6.136330e+00 3.368302e+00 1.250000e+01
      vertex   0.000000e+00 0.000000e+00 2.500000e+01
      vertex   6.341490e+00 2.964034e+00 1.250000e+01
    endloop
  endfacet
  facet normal 8.020762e-01 3.437020e-01 4.884083e-01
    outer loop
      vertex   6.341490e+00 2.964034e+00 1.250000e+01
      vertex   0.000000e+00 0.000000e+00 2.500000e+01
      vertex   6.520053e+00 2.547335e+00 1.250000e+01
    endloop
  endfacet
  facet normal 8.226419e-01 2.910629e-01 4.884083e-01
    outer loop
      vertex   6.520053e+00 2.547335e+00 1.250000e+01
      vertex   0.000000e+00 0.000000e+00 2.500000e+01
      vertex   6.671267e+00 2.119951e+00 1.250000e+01
    endloop
  endfacet
  facet normal 8.397572e-01 2.372031e-01 4.884083e-01
    outer loop
      vertex   6.671267e+00 2.119951e+00 1.250000e+01
      vertex   0.000000e+00 0.000000e+00 2.500000e+01
      vertex   6.794501e+00 1.683675e+00 1.250000e+01
    endloop
  endfacet
  facet normal 8.533501e-01 1.823483e-01 4.884083e-01
    outer loop
      vertex   6.794501e+00 1.683675e+00 1.250000e+01
      vertex   0.000000e+00 0.000000e+00 2.500000e+01
      vertex   6.889235e+00 1.240337e+00 1.250000e+01
    endloop
  endfacet
  facet normal 8.633639e-01 1.267287e-01 4.884083e-01
    outer loop
      vertex   6.889235e+00 1.240337e+00 1.250000e+01
      vertex   0.000000e+00 0.000000e+00 2.500000e+01
      vertex   6.955074e+00 7.917968e-01 1.250000e+01
    endloop
  endfacet
  facet normal 8.697564e-01 7.057751e-02 4.884083e-01
    outer loop
      vertex   6.955074e+00 7.917968e-01 1.250000e+01
      vertex   0.000000e+00 0.000000e+00 2.500000e+01
      vertex   6.991741e+00 3.399356e-01 1.250000e+01
    endloop
  endfacet
  facet normal 8.725008e-01 1.413032e-02 4.884083e-01
    outer loop
      vertex   6.991741e+00 3.399356e-01 1.250000e+01
      vertex   0.000000e+00 0.000000e+00 2.500000e+01
      vertex   6.999082e+00 -1.133515e-01 1.250000e+01
    endloop
  endfacet
  facet normal 8.715857e-01 -4.237614e-02 4.884083e-01
    outer loop
      vertex   6.999082e+00 -1.133515e-01 1.250000e+01
      vertex   0.000000e+00 0.000000e+00 2.500000e+01
      vertex   6.977067e+00 -5.661631e-01 1.250000e+01
    endloop
  endfacet
  facet normal 8.670148e-01 -9.870485e-02 4.884083e-01
    outer loop
      vertex   6.977067e+00 -5.661631e-01 1.250000e+01
      vertex   0.000000e+00 0.000000e+00 2.500000e+01
      vertex   6.925787e+00 -1.016600e+00 1.250000e+01
    endloop
  endfacet
  facet normal 8.588074e-01 -1.546196e-01 4.884083e-01
    outer loop
      vertex   6.925787e+00 -1.016600e+00 1.250000e+01
      vertex   0.000000e+00 0.000000e+00 2.500000e+01
      vertex   6.845458e+00 -1.462773e+00 1.250000e+01
    endloop
  endfacet
  facet normal 8.469978e-01 -2.098857e-01 4.884083e-01
    outer loop
      vertex   6.845458e+00 -1.462773e+00 1.250000e+01
      vertex   0.000000e+00 0.000000e+00 2.500000e+01
      vertex   6.736417e+00 -1.902811e+00 1.250000e+01
    endloop
  endfacet
  facet normal 8.316357e-01 -2.642716e-01 4.884083e-01
    outer loop
      vertex   6.736417e+00 -1.902811e+00 1.250000e+01
      vertex   0.000000e+00 0.000000e+00 2.500000e+01
      vertex   6.599121e+00 -2.334867e+00 1.250000e+01
    endloop
  endfacet
  facet normal 8.127853e-01 -3.175490e-01 4.884083e-01
    outer loop
      vertex   6.599121e+00 -2.334867e+00 1.250000e+01
      vertex   0.000000e+00 0.000000e+00 2.500000e+01
      vertex   6.434146e+00 -2.757130e+00 1.250000e+01
    endloop
  endfacet
  facet normal 7.905259e-01 -3.694945e-01 4.884083e-01
    outer loop
      vertex   6.434146e+00 -2.757130e+00 1.250000e+01
      vertex   0.000000e+00 0.000000e+00 2.500000e+01
      vertex   6.242184e+00 -3.167829e+00 1.250000e+01
    endloop
  endfacet
  facet normal 7.649507e-01 -4.198902e-01 4.884083e-01
    outer loop
      vertex   6.242184e+00 -3.167829e+00 1.250000e+01
      vertex   0.000000e+00 0.000000e+00 2.500000e+01
      vertex   6.024040e+00 -3.565241e+00 1.250000e+01
    endloop
  endfacet
  facet normal 7.361671e-01 -4.685247e-01 4.884083e-01
    outer loop
      vertex   6.024040e+00 -3.565241e+00 1.250000e+01
      vertex   0.000000e+00 0.000000e+00 2.500000e+01
      vertex   5.780629e+00 -3.947699e+00 1.250000e+01
    endloop
  endfacet
  facet normal 7.042957e-01 -5.151941e-01 4.884083e-01
    outer loop
      vertex   5.780629e+00 -3.947699e+00 1.250000e+01
      vertex   0.000000e+00 0.000000e+00 2.500000e+01
      vertex   5.512972e+00 -4.313599e+00 1.250000e+01
    endloop
  endfacet
  facet normal 6.694702e-01 -5.597026e-01 4.884083e-01
    outer loop
      vertex   5.512972e+00 -4.313599e+00 1.250000e+01
      vertex   0.000000e+00 0.000000e+00 2.500000e+01
      vertex   5.222192e+00 -4.661407e+00 1.250000e+01
    endloop
  endfacet
  facet normal 6.318368e-01 -6.018635e-01 4.884083e-01
    outer loop
      vertex   5.222192e+00 -4.661407e+00 1.250000e+01
      vertex   0.000000e+00 0.000000e+00 2.500000e+01
      vertex   4.909508e+00 -4.989662e+00 1.250000e+01
    endloop
  endfacet
  facet normal 5.915532e-01 -6.415000e-01 4.884083e-01
    outer loop
      vertex   4.909508e+00 -4.989662e+00 1.250000e+01
      vertex   0.000000e+00 0.000000e+00 2.500000e+01
      vertex   4.576232e+00 -5.296990e+00 1.250000e+01
    endloop
  endfacet
  facet normal 5.487884e-01 -6.784457e-01 4.884083e-01
    outer loop
      vertex   4.576232e+00 -5.296990e+00 1.250000e+01
      vertex   0.000000e+00 0.000000e+00 2.500000e+01
      vertex   4.223762e+00 -5.582100e+00 1.250000e+01
    endloop
  endfacet
  facet normal 5.037219e-01 -7.125459e-01 4.884083e-01
    outer loop
      vertex   4.223762e+00 -5.582100e+00 1.250000e+01
      vertex   0.000000e+00 0.000000e+00 2.500000e+01
      vertex   3.853575e+00 -5.843796e+00 1.250000e+01
    endloop
  endfacet
  facet normal 4.565425e-01 -7.436574e-01 4.884083e-01
    outer loop
      vertex   3.853575e+00 -5.843796e+00 1.250000e+01
      vertex   0.000000e+00 0.000000e+00 2.500000e+01
      vertex   3.467226e+00 -6.080982e+00 1.250000e+01
    endloop
  endfacet
  facet normal 4.074482e-01 -7.716497e-01 4.884083e-01
    outer loop
      vertex   3.467226e+00 -6.080982e+00 1.250000e+01
      vertex   0.000000e+00 0.000000e+00 2.500000e+01
      vertex   3.066334e+00 -6.292662e+00 1.250000e+01
    endloop
  endfacet
  facet normal 3.566450e-01 -7.964055e-01 4.884083e-01
    outer loop
      vertex   3.066334e+00 -6.292662e+00 1.250000e+01
      vertex   0.000000e+00 0.000000e+00 2.500000e+01
      vertex   2.652580e+00 -6.477949e+00 1.250000e+01
    endloop
  endfacet
  facet normal 3.043459e-01 -8.178209e-01 4.884083e-01
    outer loop
      vertex   2.652580e+00 -6.477949e+00 1.250000e+01
      vertex   0.000000e+00 0.000000e+00 2.500000e+01
      vertex   2.227701e+00 -6.636064e+00 1.250000e+01
    endloop
  endfacet
  facet normal 2.507702e-01 -8.358060e-01 4.884083e-01
    outer loop
      vertex   2.227701e+00 -6.636064e+00 1.250000e+01
      vertex   0.000000e+00 0.000000e+00 2.500000e+01
      vertex   1.793478e+00 -6.766346e+00 1.250000e+01
    endloop
  endfacet
  facet normal 1.961427e-01 -8.502855e-01 4.884083e-01
    outer loop
      vertex   1.793478e+00 -6.766346e+00 1.250000e+01
      vertex   0.000000e+00 0.000000e+00 2.500000e+01
      vertex   1.351732e+00 -6.868247e+00 1.250000e+01
    endloop
  endfacet
  facet normal 1.406926e-01 -8.611986e-01 4.884083e-01
    outer loop
      vertex   1.351732e+00 -6.868247e+00 1.250000e+01
      vertex   0.000000e+00 0.000000e+00 2.500000e+01
      vertex   9.043170e-01 -6.941341e+00 1.250000e+01
    endloop
  endfacet
  facet normal 8.465228e-02 -8.684995e-01 4.884083e-01
    outer loop
      vertex   9.043170e-01 -6.941341e+00 1.250000e+01
      vertex   0.000000e+00 0.000000e+00 2.500000e+01
      vertex   4.531087e-01 -6.985320e+00 1.250000e+01
    endloop
  endfacet
  facet normal 2.825693e-02 -8.721576e-01 4.884083e-01
    outer loop
      vertex   4.531087e-01 -6.985320e+00 1.250000e+01
      vertex   0.000000e+00 0.000000e+00 2.500000e+01
      vertex   -8.572528e-16 -7.000000e+00 1.250000e+01
    endloop
  endfacet
  facet normal -7.509527e-01 4.444405e-01 4.884083e-01
    outer loop
      vertex   -6.136330e+00 3.368302e+00 1.250000e+01
      vertex   0.000000e+00 0.000000e+00 2.500000e+01
      vertex   -5.905431e+00 3.758441e+00 1.250000e+01
    endloop
  endfacet
  facet normal 7.509527e-01 4.444405e-01 4.884083e-01
    outer loop
      vertex   5.905431e+00 3.758441e+00 1.250000e+01
      vertex   0.000000e+00 0.000000e+00 2.500000e+01
      vertex   6.136330e+00 3.368302e+00 1.250000e+01
    endloop
  endfacet
  facet normal 0.000000e+00 -0.000000e+00 -1.000000e+00
    outer loop
      vertex   0.000000e+00 1.400000e+01 0.000000e+00
      vertex   9.062175e-01 1.397064e+01 0.000000e+00
      vertex   -9.062175e-01 1.397064e+01 0.000000e+00
    endloop
  endfacet
  facet normal 0.000000e+00 -0.000000e+00 -1.000000e+00
    outer loop
      vertex   -9.062175e-01 1.397064e+01 0.000000e+00
      vertex   9.062175e-01 1.397064e+01 0.000000e+00
      vertex   -1.808634e+00 1.388268e+01 0.000000e+00
    endloop
  endfacet
  facet normal 0.000000e+00 0.000000e+00 -1.000000e+00
    outer loop
      vertex   -1.808634e+00 1.388268e+01 0.000000e+00
      vertex   9.062175e-01 1.397064e+01 0.000000e+00
      vertex   1.808634e+00 1.388268e+01 0.000000e+00
    endloop
  endfacet
  facet normal 0.000000e+00 -0.000000e+00 -1.000000e+00
    outer loop
      vertex   -1.808634e+00 1.388268e+01 0.000000e+00
      vertex   1.808634e+00 1.388268e+01 0.000000e+00
      vertex   -2.703464e+00 1.373649e+01 0.000000e+00
    endloop
  endfacet
  facet normal 0.000000e+00 0.000000e+00 -1.000000e+00
    outer loop
      vertex   -2.703464e+00 1.373649e+01 0.000000e+00
      vertex   1.808634e+00 1.388268e+01 0.000000e+00
      vertex   2.703464e+00 1.373649e+01 0.000000e+00
    endloop
  endfacet
  facet normal 0.000000e+00 -0.000000e+00 -1.000000e+00
    outer loop
      vertex   -2.703464e+00 1.373649e+01 0.000000e+00
      vertex   2.703464e+00 1.373649e+01 0.000000e+00
      vertex   -3.586956e+00 1.353269e+01 0.000000e+00
    endloop
  endfacet
  facet normal 0.000000e+00 0.000000e+00 -1.000000e+00
    outer loop
      vertex   -3.586956e+00 1.353269e+01 0.000000e+00
      vertex   2.703464e+00 1.373649e+01 0.000000e+00
      vertex   3.586956e+00 1.353269e+01 0.000000e+00
    endloop
  endfacet
  facet normal 0.000000e+00 -0.000000e+00 -1.000000e+00
    outer loop
      vertex   -3.586956e+00 1.353269e+01 0.000000e+00
      vertex   3.586956e+00 1.353269e+01 0.000000e+00
      vertex   -4.455402e+00 1.327213e+01 0.000000e+00
    endloop
  endfacet
  facet normal 0.000000e+00 0.000000e+00 -1.000000e+00
    outer loop
      vertex   -4.455402e+00 1.327213e+01 0.000000e+00
      vertex   3.586956e+00 1.353269e+01 0.000000e+00
      vertex   4.455402e+00 1.327213e+01 0.000000e+00
    endloop
  endfacet
  facet normal 0.000000e+00 -0.000000e+00 -1.000000e+00
    outer loop
      vertex   -4.455402e+00 1.327213e+01 0.000000e+00
      vertex   4.455402e+00 1.327213e+01 0.000000e+00
      vertex   -5.305160e+00 1.295590e+01 0.000000e+00
    endloop
  endfacet
  facet normal 0.000000e+00 0.000000e+00 -1.000000e+00
    outer loop
      vertex   -5.305160e+00 1.295590e+01 0.000000e+00
      vertex   4.455402e+00 1.327213e+01 0.000000e+00
      vertex   5.305160e+00 1.295590e+01 0.000000e+00
    endloop
  endfacet
  facet normal 0.000000e+00 -0.000000e+00 -1.000000e+00
    outer loop
      vertex   -5.305160e+00 1.295590e+01 0.000000e+00
      vertex   5.305160e+00 1.295590e+01 0.000000e+00
      vertex   -6.132667e+00 1.258532e+01 0.000000e+00
    endloop
  endfacet
  facet normal 0.000000e+00 0.000000e+00 -1.000000e+00
    outer loop
      vertex   -6.132667e+00 1.258532e+01 0.000000e+00
      vertex   5.305160e+00 1.295590e+01 0.000000e+00
      vertex   6.132667e+00 1.258532e+01 0.000000e+00
    endloop
  endfacet
  facet normal 0.000000e+00 -0.000000e+00 -1.000000e+00
    outer loop
      vertex   -6.132667e+00 1.258532e+01 0.000000e+00
      vertex   6.132667e+00 1.258532e+01 0.000000e+00
      vertex   -6.934452e+00 1.216196e+01 0.000000e+00
    endloop
  endfacet
  facet normal 0.000000e+00 0.000000e+00 -1.000000e+00
    outer loop
      vertex   -6.934452e+00 1.216196e+01 0.000000e+00
      vertex   6.132667e+00 1.258532e+01 0.000000e+00
      vertex   6.934452e+00 1.216196e+01 0.000000e+00
    endloop
  endfacet
  facet normal 0.000000e+00 -0.000000e+00 -1.000000e+00
    outer loop
      vertex   -6.934452e+00 1.216196e+01 0.000000e+00
      vertex   6.934452e+00 1.216196e+01 0.000000e+00
      vertex   -7.707151e+00 1.168759e+01 0.000000e+00
    endloop
  endfacet
  facet normal 0.000000e+00 0.000000e+00 -1.000000e+00
    outer loop
      vertex   -7.707151e+00 1.168759e+01 0.000000e+00
      vertex   6.934452e+00 1.216196e+01 0.000000e+00
      vertex   7.707151e+00 1.168759e+01 0.000000e+00
    endloop
  endfacet
  facet normal 0.000000e+00 -0.000000e+00 -1.000000e+00
    outer loop
      vertex   -7.707151e+00 1.168759e+01 0.000000e+00
      vertex   7.707151e+00 1.168759e+01 0.000000e+00
      vertex   -8.447523e+00 1.116420e+01 0.000000e+00
    endloop
  endfacet
  facet normal 0.000000e+00 0.000000e+00 -1.000000e+00
    outer loop
      vertex   -8.447523e+00 1.116420e+01 0.000000e+00
      vertex   7.707151e+00 1.168759e+01 0.000000e+00
      vertex   8.447523e+00 1.116420e+01 0.000000e+00
    endloop
  endfacet
  facet normal 0.000000e+00 -0.000000e+00 -1.000000e+00
    outer loop
      vertex   -8.447523e+00 1.116420e+01 0.000000e+00
      vertex   8.447523e+00 1.116420e+01 0.000000e+00
      vertex   -9.152464e+00 1.059398e+01 0.000000e+00
    endloop
  endfacet
  facet normal 0.000000e+00 0.000000e+00 -1.000000e+00
    outer loop
      vertex   -9.152464e+00 1.059398e+01 0.000000e+00
      vertex   8.447523e+00 1.116420e+01 0.000000e+00
      vertex   9.152464e+00 1.059398e+01 0.000000e+00
    endloop
  endfacet
  facet normal 0.000000e+00 -0.000000e+00 -1.000000e+00
    outer loop
      vertex   -9.152464e+00 1.059398e+01 0.000000e+00
      vertex   9.152464e+00 1.059398e+01 0.000000e+00
      vertex   -9.819016e+00 9.979325e+00 0.000000e+00
    endloop
  endfacet
  facet normal 0.000000e+00 0.000000e+00 -1.000000e+00
    outer loop
      vertex   -9.819016e+00 9.979325e+00 0.000000e+00
      vertex   9.152464e+00 1.059398e+01 0.000000e+00
      vertex   9.819016e+00 9.979325e+00 0.000000e+00
    endloop
  endfacet
  facet normal 0.000000e+00 -0.000000e+00 -1.000000e+00
    outer loop
      vertex   -9.819016e+00 9.979325e+00 0.000000e+00
      vertex   9.819016e+00 9.979325e+00 0.000000e+00
      vertex   -1.044438e+01 9.322813e+00 0.000000e+00
    endloop
  endfacet
  facet normal 0.000000e+00 0.000000e+00 -1.000000e+00
    outer loop
      vertex   -1.044438e+01 9.322813e+00 0.000000e+00
      vertex   9.819016e+00 9.979325e+00 0.000000e+00
      vertex   1.044438e+01 9.322813e+00 0.000000e+00
    endloop
  endfacet
  facet normal 0.000000e+00 -0.000000e+00 -1.000000e+00
    outer loop
      vertex   -1.044438e+01 9.322813e+00 0.000000e+00
      vertex   1.044438e+01 9.322813e+00 0.000000e+00
      vertex   -1.102594e+01 8.627199e+00 0.000000e+00
    endloop
  endfacet
  facet normal 0.000000e+00 0.000000e+00 -1.000000e+00
    outer loop
      vertex   -1.102594e+01 8.627199e+00 0.000000e+00
      vertex   1.044438e+01 9.322813e+00 0.000000e+00
      vertex   1.102594e+01 8.627199e+00 0.000000e+00
    endloop
  endfacet
  facet normal 0.000000e+00 -0.000000e+00 -1.000000e+00
    outer loop
      vertex   -1.102594e+01 8.627199e+00 0.000000e+00
      vertex   1.102594e+01 8.627199e+00 0.000000e+00
      vertex   -1.156126e+01 7.895398e+00 0.000000e+00
    endloop
  endfacet
  facet normal 0.000000e+00 0.000000e+00 -1.000000e+00
    outer loop
      vertex   -1.156126e+01 7.895398e+00 0.000000e+00
      vertex   1.102594e+01 8.627199e+00 0.000000e+00
      vertex   1.156126e+01 7.895398e+00 0.000000e+00
    endloop
  endfacet
  facet normal 0.000000e+00 -0.000000e+00 -1.000000e+00
    outer loop
      vertex   -1.156126e+01 7.895398e+00 0.000000e+00
      vertex   1.156126e+01 7.895398e+00 0.000000e+00
      vertex   -1.204808e+01 7.130482e+00 0.000000e+00
    endloop
  endfacet
  facet normal 0.000000e+00 0.000000e+00 -1.000000e+00
    outer loop
      vertex   -1.204808e+01 7.130482e+00 0.000000e+00
      vertex   1.156126e+01 7.895398e+00 0.000000e+00
      vertex   1.204808e+01 7.130482e+00 0.000000e+00
    endloop
  endfacet
  facet normal 0.000000e+00 -0.000000e+00 -1.000000e+00
    outer loop
      vertex   -1.204808e+01 7.130482e+00 0.000000e+00
      vertex   1.204808e+01 7.130482e+00 0.000000e+00
      vertex   -1.248437e+01 6.335658e+00 0.000000e+00
    endloop
  endfacet
  facet normal 0.000000e+00 0.000000e+00 -1.000000e+00
    outer loop
      vertex   -1.248437e+01 6.335658e+00 0.000000e+00
      vertex   1.204808e+01 7.130482e+00 0.000000e+00
      vertex   1.248437e+01 6.335658e+00 0.000000e+00
    endloop
  endfacet
  facet normal 0.000000e+00 -0.000000e+00 -1.000000e+00
    outer loop
      vertex   -1.248437e+01 6.335658e+00 0.000000e+00
      vertex   1.248437e+01 6.335658e+00 0.000000e+00
      vertex   -1.286829e+01 5.514261e+00 0.000000e+00
    endloop
  endfacet
  facet normal 0.000000e+00 0.000000e+00 -1.000000e+00
    outer loop
      vertex   -1.286829e+01 5.514261e+00 0.000000e+00
      vertex   1.248437e+01 6.335658e+00 0.000000e+00
      vertex   1.286829e+01 5.514261e+00 0.000000e+00
    endloop
  endfacet
  facet normal 0.000000e+00 -0.000000e+00 -1.000000e+00
    outer loop
      vertex   -1.286829e+01 5.514261e+00 0.000000e+00
      vertex   1.286829e+01 5.514261e+00 0.000000e+00
      vertex   -1.319824e+01 4.669734e+00 0.000000e+00
    endloop
  endfacet
  facet normal 0.000000e+00 0.000000e+00 -1.000000e+00
    outer loop
      vertex   -1.319824e+01 4.669734e+00 0.000000e+00
      vertex   1.286829e+01 5.514261e+00 0.000000e+00
      vertex   1.319824e+01 4.669734e+00 0.000000e+00
    endloop
  endfacet
  facet normal 0.000000e+00 -0.000000e+00 -1.000000e+00
    outer loop
      vertex   -1.319824e+01 4.669734e+00 0.000000e+00
      vertex   1.319824e+01 4.669734e+00 0.000000e+00
      vertex   -1.347283e+01 3.805621e+00 0.000000e+00
    endloop
  endfacet
  facet normal 0.000000e+00 0.000000e+00 -1.000000e+00
    outer loop
      vertex   -1.347283e+01 3.805621e+00 0.000000e+00
      vertex   1.319824e+01 4.669734e+00 0.000000e+00
      vertex   1.347283e+01 3.805621e+00 0.000000e+00
    endloop
  endfacet
  facet normal 0.000000e+00 -0.000000e+00 -1.000000e+00
    outer loop
      vertex   -1.347283e+01 3.805621e+00 0.000000e+00
      vertex   1.347283e+01 3.805621e+00 0.000000e+00
      vertex   -1.369092e+01 2.925546e+00 0.000000e+00
    endloop
  endfacet
  facet normal 0.000000e+00 0.000000e+00 -1.000000e+00
    outer loop
      vertex   -1.369092e+01 2.925546e+00 0.000000e+00
      vertex   1.347283e+01 3.805621e+00 0.000000e+00
      vertex   1.369092e+01 2.925546e+00 0.000000e+00
    endloop
  endfacet
  facet normal 0.000000e+00 -0.000000e+00 -1.000000e+00
    outer loop
      vertex   -1.369092e+01 2.925546e+00 0.000000e+00
      vertex   1.369092e+01 2.925546e+00 0.000000e+00
      vertex   -1.385157e+01 2.033200e+00 0.000000e+00
    endloop
  endfacet
  facet normal 0.000000e+00 0.000000e+00 -1.000000e+00
    outer loop
      vertex   -1.385157e+01 2.033200e+00 0.000000e+00
      vertex   1.369092e+01 2.925546e+00 0.000000e+00
      vertex   1.385157e+01 2.033200e+00 0.000000e+00
    endloop
  endfacet
  facet normal 0.000000e+00 -0.000000e+00 -1.000000e+00
    outer loop
      vertex   -1.385157e+01 2.033200e+00 0.000000e+00
      vertex   1.385157e+01 2.033200e+00 0.000000e+00
      vertex   -1.395413e+01 1.132326e+00 0.000000e+00
    endloop
  endfacet
  facet normal 0.000000e+00 0.000000e+00 -1.000000e+00
    outer loop
      vertex   -1.395413e+01 1.132326e+00 0.000000e+00
      vertex   1.385157e+01 2.033200e+00 0.000000e+00
      vertex   1.395413e+01 1.132326e+00 0.000000e+00
    endloop
  endfacet
  facet normal 0.000000e+00 -0.000000e+00 -1.000000e+00
    outer loop
      vertex   -1.395413e+01 1.132326e+00 0.000000e+00
      vertex   1.395413e+01 1.132326e+00 0.000000e+00
      vertex   -1.399816e+01 2.267030e-01 0.000000e+00
    endloop
  endfacet
  facet normal 0.000000e+00 0.000000e+00 -1.000000e+00
    outer loop
      vertex   -1.399816e+01 2.267030e-01 0.000000e+00
      vertex   1.395413e+01 1.132326e+00 0.000000e+00
      vertex   1.399816e+01 2.267030e-01 0.000000e+00
    endloop
  endfacet
  facet normal 0.000000e+00 0.000000e+00 -1.000000e+00
    outer loop
      vertex   -1.399816e+01 2.267030e-01 0.000000e+00
      vertex   1.399816e+01 2.267030e-01 0.000000e+00
      vertex   -1.398348e+01 -6.798711e-01 0.000000e+00
    endloop
  endfacet
  facet normal 0.000000e+00 0.000000e+00 -1.000000e+00
    outer loop
      vertex   -1.398348e+01 -6.798711e-01 0.000000e+00
      vertex   1.399816e+01 2.267030e-01 0.000000e+00
      vertex   1.398348e+01 -6.798711e-01 0.000000e+00
    endloop
  endfacet
  facet normal 0.000000e+00 0.000000e+00 -1.000000e+00
    outer loop
      vertex   -1.398348e+01 -6.798711e-01 0.000000e+00
      vertex   1.398348e+01 -6.798711e-01 0.000000e+00
      vertex   -1.391015e+01 -1.583594e+00 0.000000e+00
    endloop
  endfacet
  facet normal 0.000000e+00 0.000000e+00 -1.000000e+00
    outer loop
      vertex   -1.391015e+01 -1.583594e+00 0.000000e+00
      vertex   1.398348e+01 -6.798711e-01 0.000000e+00
      vertex   1.391015e+01 -1.583594e+00 0.000000e+00
    endloop
  endfacet
  facet normal 0.000000e+00 0.000000e+00 -1.000000e+00
    outer loop
      vertex   -1.391015e+01 -1.583594e+00 0.000000e+00
      vertex   1.391015e+01 -1.583594e+00 0.000000e+00
      vertex   -1.377847e+01 -2.480674e+00 0.000000e+00
    endloop
  endfacet
  facet normal 0.000000e+00 0.000000e+00 -1.000000e+00
    outer loop
      vertex   -1.377847e+01 -2.480674e+00 0.000000e+00
      vertex   1.391015e+01 -1.583594e+00 0.000000e+00
      vertex   1.377847e+01 -2.480674e+00 0.000000e+00
    endloop
  endfacet
  facet normal 0.000000e+00 0.000000e+00 -1.000000e+00
    outer loop
      vertex   -1.377847e+01 -2.480674e+00 0.000000e+00
      vertex   1.377847e+01 -2.480674e+00 0.000000e+00
      vertex   -1.358900e+01 -3.367349e+00 0.000000e+00
    endloop
  endfacet
  facet normal 0.000000e+00 0.000000e+00 -1.000000e+00
    outer loop
      vertex   -1.358900e+01 -3.367349e+00 0.000000e+00
      vertex   1.377847e+01 -2.480674e+00 0.000000e+00
      vertex   1.358900e+01 -3.367349e+00 0.000000e+00
    endloop
  endfacet
  facet normal 0.000000e+00 0.000000e+00 -1.000000e+00
    outer loop
      vertex   -1.358900e+01 -3.367349e+00 0.000000e+00
      vertex   1.358900e+01 -3.367349e+00 0.000000e+00
      vertex   -1.334253e+01 -4.239901e+00 0.000000e+00
    endloop
  endfacet
  facet normal 0.000000e+00 0.000000e+00 -1.000000e+00
    outer loop
      vertex   -1.334253e+01 -4.239901e+00 0.000000e+00
      vertex   1.358900e+01 -3.367349e+00 0.000000e+00
      vertex   1.334253e+01 -4.239901e+00 0.000000e+00
    endloop
  endfacet
  facet normal 0.000000e+00 0.000000e+00 -1.000000e+00
    outer loop
      vertex   -1.334253e+01 -4.239901e+00 0.000000e+00
      vertex   1.334253e+01 -4.239901e+00 0.000000e+00
      vertex   -1.304011e+01 -5.094669e+00 0.000000e+00
    endloop
  endfacet
  facet normal 0.000000e+00 0.000000e+00 -1.000000e+00
    outer loop
      vertex   -1.304011e+01 -5.094669e+00 0.000000e+00
      vertex   1.334253e+01 -4.239901e+00 0.000000e+00
      vertex   1.304011e+01 -5.094669e+00 0.000000e+00
    endloop
  endfacet
  facet normal 0.000000e+00 0.000000e+00 -1.000000e+00
    outer loop
      vertex   -1.304011e+01 -5.094669e+00 0.000000e+00
      vertex   1.304011e+01 -5.094669e+00 0.000000e+00
      vertex   -1.268298e+01 -5.928068e+00 0.000000e+00
    endloop
  endfacet
  facet normal 0.000000e+00 0.000000e+00 -1.000000e+00
    outer loop
      vertex   -1.268298e+01 -5.928068e+00 0.000000e+00
      vertex   1.304011e+01 -5.094669e+00 0.000000e+00
      vertex   1.268298e+01 -5.928068e+00 0.000000e+00
    endloop
  endfacet
  facet normal 0.000000e+00 0.000000e+00 -1.000000e+00
    outer loop
      vertex   -1.268298e+01 -5.928068e+00 0.000000e+00
      vertex   1.268298e+01 -5.928068e+00 0.000000e+00
      vertex   -1.227266e+01 -6.736603e+00 0.000000e+00
    endloop
  endfacet
  facet normal 0.000000e+00 0.000000e+00 -1.000000e+00
    outer loop
      vertex   -1.227266e+01 -6.736603e+00 0.000000e+00
      vertex   1.268298e+01 -5.928068e+00 0.000000e+00
      vertex   1.227266e+01 -6.736603e+00 0.000000e+00
    endloop
  endfacet
  facet normal 0.000000e+00 0.000000e+00 -1.000000e+00
    outer loop
      vertex   -1.227266e+01 -6.736603e+00 0.000000e+00
      vertex   1.227266e+01 -6.736603e+00 0.000000e+00
      vertex   -1.181086e+01 -7.516882e+00 0.000000e+00
    endloop
  endfacet
  facet normal 0.000000e+00 0.000000e+00 -1.000000e+00
    outer loop
      vertex   -1.181086e+01 -7.516882e+00 0.000000e+00
      vertex   1.227266e+01 -6.736603e+00 0.000000e+00
      vertex   1.181086e+01 -7.516882e+00 0.000000e+00
    endloop
  endfacet
  facet normal 0.000000e+00 0.000000e+00 -1.000000e+00
    outer loop
      vertex   -1.181086e+01 -7.516882e+00 0.000000e+00
      vertex   1.181086e+01 -7.516882e+00 0.000000e+00
      vertex   -1.129953e+01 -8.265633e+00 0.000000e+00
    endloop
  endfacet
  facet normal 0.000000e+00 0.000000e+00 -1.000000e+00
    outer loop
      vertex   -1.129953e+01 -8.265633e+00 0.000000e+00
      vertex   1.181086e+01 -7.516882e+00 0.000000e+00
      vertex   1.129953e+01 -8.265633e+00 0.000000e+00
    endloop
  endfacet
  facet normal 0.000000e+00 0.000000e+00 -1.000000e+00
    outer loop
      vertex   -1.129953e+01 -8.265633e+00 0.000000e+00
      vertex   1.129953e+01 -8.265633e+00 0.000000e+00
      vertex   -1.074080e+01 -8.979715e+00 0.000000e+00
    endloop
  endfacet
  facet normal 0.000000e+00 0.000000e+00 -1.000000e+00
    outer loop
      vertex   -1.074080e+01 -8.979715e+00 0.000000e+00
      vertex   1.129953e+01 -8.265633e+00 0.000000e+00
      vertex   1.074080e+01 -8.979715e+00 0.000000e+00
    endloop
  endfacet
  facet normal 0.000000e+00 0.000000e+00 -1.000000e+00
    outer loop
      vertex   -1.074080e+01 -8.979715e+00 0.000000e+00
      vertex   1.074080e+01 -8.979715e+00 0.000000e+00
      vertex   -1.013702e+01 -9.656133e+00 0.000000e+00
    endloop
  endfacet
  facet normal 0.000000e+00 0.000000e+00 -1.000000e+00
    outer loop
      vertex   -1.013702e+01 -9.656133e+00 0.000000e+00
      vertex   1.074080e+01 -8.979715e+00 0.000000e+00
      vertex   1.013702e+01 -9.656133e+00 0.000000e+00
    endloop
  endfacet
  facet normal 0.000000e+00 0.000000e+00 -1.000000e+00
    outer loop
      vertex   -1.013702e+01 -9.656133e+00 0.000000e+00
      vertex   1.013702e+01 -9.656133e+00 0.000000e+00
      vertex   -9.490717e+00 -1.029205e+01 0.000000e+00
    endloop
  endfacet
  facet normal 0.000000e+00 0.000000e+00 -1.000000e+00
    outer loop
      vertex   -9.490717e+00 -1.029205e+01 0.000000e+00
      vertex   1.013702e+01 -9.656133e+00 0.000000e+00
      vertex   9.490717e+00 -1.029205e+01 0.000000e+00
    endloop
  endfacet
  facet normal 0.000000e+00 0.000000e+00 -1.000000e+00
    outer loop
      vertex   -9.490717e+00 -1.029205e+01 0.000000e+00
      vertex   9.490717e+00 -1.029205e+01 0.000000e+00
      vertex   -8.804611e+00 -1.088480e+01 0.000000e+00
    endloop
  endfacet
  facet normal 0.000000e+00 0.000000e+00 -1.000000e+00
    outer loop
      vertex   -8.804611e+00 -1.088480e+01 0.000000e+00
      vertex   9.490717e+00 -1.029205e+01 0.000000e+00
      vertex   8.804611e+00 -1.088480e+01 0.000000e+00
    endloop
  endfacet
  facet normal 0.000000e+00 0.000000e+00 -1.000000e+00
    outer loop
      vertex   -8.804611e+00 -1.088480e+01 0.000000e+00
      vertex   8.804611e+00 -1.088480e+01 0.000000e+00
      vertex   -8.081575e+00 -1.143189e+01 0.000000e+00
    endloop
  endfacet
  facet normal 0.000000e+00 0.000000e+00 -1.000000e+00
    outer loop
      vertex   -8.081575e+00 -1.143189e+01 0.000000e+00
      vertex   8.804611e+00 -1.088480e+01 0.000000e+00
      vertex   8.081575e+00 -1.143189e+01 0.000000e+00
    endloop
  endfacet
  facet normal 0.000000e+00 0.000000e+00 -1.000000e+00
    outer loop
      vertex   -8.081575e+00 -1.143189e+01 0.000000e+00
      vertex   8.081575e+00 -1.143189e+01 0.000000e+00
      vertex   -7.324643e+00 -1.193104e+01 0.000000e+00
    endloop
  endfacet
  facet normal 0.000000e+00 0.000000e+00 -1.000000e+00
    outer loop
      vertex   -7.324643e+00 -1.193104e+01 0.000000e+00
      vertex   8.081575e+00 -1.143189e+01 0.000000e+00
      vertex   7.324643e+00 -1.193104e+01 0.000000e+00
    endloop
  endfacet
  facet normal 0.000000e+00 0.000000e+00 -1.000000e+00
    outer loop
      vertex   -7.324643e+00 -1.193104e+01 0.000000e+00
      vertex   7.324643e+00 -1.193104e+01 0.000000e+00
      vertex   -6.536988e+00 -1.238014e+01 0.000000e+00
    endloop
  endfacet
  facet normal 0.000000e+00 0.000000e+00 -1.000000e+00
    outer loop
      vertex   -6.536988e+00 -1.238014e+01 0.000000e+00
      vertex   7.324643e+00 -1.193104e+01 0.000000e+00
      vertex   6.536988e+00 -1.238014e+01 0.000000e+00
    endloop
  endfacet
  facet normal 0.000000e+00 0.000000e+00 -1.000000e+00
    outer loop
      vertex   -6.536988e+00 -1.238014e+01 0.000000e+00
      vertex   6.536988e+00 -1.238014e+01 0.000000e+00
      vertex   -5.721915e+00 -1.277731e+01 0.000000e+00
    endloop
  endfacet
  facet normal 0.000000e+00 0.000000e+00 -1.000000e+00
    outer loop
      vertex   -5.721915e+00 -1.277731e+01 0.000000e+00
      vertex   6.536988e+00 -1.238014e+01 0.000000e+00
      vertex   5.721915e+00 -1.277731e+01 0.000000e+00
    endloop
  endfacet
  facet normal 0.000000e+00 0.000000e+00 -1.000000e+00
    outer loop
      vertex   -5.721915e+00 -1.277731e+01 0.000000e+00
      vertex   5.721915e+00 -1.277731e+01 0.000000e+00
      vertex   -4.882842e+00 -1.312089e+01 0.000000e+00
    endloop
  endfacet
  facet normal 0.000000e+00 0.000000e+00 -1.000000e+00
    outer loop
      vertex   -4.882842e+00 -1.312089e+01 0.000000e+00
      vertex   5.721915e+00 -1.277731e+01 0.000000e+00
      vertex   4.882842e+00 -1.312089e+01 0.000000e+00
    endloop
  endfacet
  facet normal 0.000000e+00 0.000000e+00 -1.000000e+00
    outer loop
      vertex   -4.882842e+00 -1.312089e+01 0.000000e+00
      vertex   4.882842e+00 -1.312089e+01 0.000000e+00
      vertex   -4.023289e+00 -1.340944e+01 0.000000e+00
    endloop
  endfacet
  facet normal 0.000000e+00 0.000000e+00 -1.000000e+00
    outer loop
      vertex   -4.023289e+00 -1.340944e+01 0.000000e+00
      vertex   4.882842e+00 -1.312089e+01 0.000000e+00
      vertex   4.023289e+00 -1.340944e+01 0.000000e+00
    endloop
  endfacet
  facet normal 0.000000e+00 0.000000e+00 -1.000000e+00
    outer loop
      vertex   -4.023289e+00 -1.340944e+01 0.000000e+00
      vertex   4.023289e+00 -1.340944e+01 0.000000e+00
      vertex   -3.146860e+00 -1.364175e+01 0.000000e+00
    endloop
  endfacet
  facet normal 0.000000e+00 0.000000e+00 -1.000000e+00
    outer loop
      vertex   -3.146860e+00 -1.364175e+01 0.000000e+00
      vertex   4.023289e+00 -1.340944e+01 0.000000e+00
      vertex   3.146860e+00 -1.364175e+01 0.000000e+00
    endloop
  endfacet
  facet normal 0.000000e+00 0.000000e+00 -1.000000e+00
    outer loop
      vertex   -3.146860e+00 -1.364175e+01 0.000000e+00
      vertex   3.146860e+00 -1.364175e+01 0.000000e+00
      vertex   -2.257233e+00 -1.381683e+01 0.000000e+00
    endloop
  endfacet
  facet normal 0.000000e+00 0.000000e+00 -1.000000e+00
    outer loop
      vertex   -2.257233e+00 -1.381683e+01 0.000000e+00
      vertex   3.146860e+00 -1.364175e+01 0.000000e+00
      vertex   2.257233e+00 -1.381683e+01 0.000000e+00
    endloop
  endfacet
  facet normal 0.000000e+00 0.000000e+00 -1.000000e+00
    outer loop
      vertex   -2.257233e+00 -1.381683e+01 0.000000e+00
      vertex   2.257233e+00 -1.381683e+01 0.000000e+00
      vertex   -1.358138e+00 -1.393397e+01 0.000000e+00
    endloop
  endfacet
  facet normal 0.000000e+00 0.000000e+00 -1.000000e+00
    outer loop
      vertex   -1.358138e+00 -1.393397e+01 0.000000e+00
      vertex   2.257233e+00 -1.381683e+01 0.000000e+00
      vertex   1.358138e+00 -1.393397e+01 0.000000e+00
    endloop
  endfacet
  facet normal 0.000000e+00 0.000000e+00 -1.000000e+00
    outer loop
      vertex   -1.358138e+00 -1.393397e+01 0.000000e+00
      vertex   1.358138e+00 -1.393397e+01 0.000000e+00
      vertex   -4.533465e-01 -1.399266e+01 0.000000e+00
    endloop
  endfacet
  facet normal 0.000000e+00 0.000000e+00 -1.000000e+00
    outer loop
      vertex   -4.533465e-01 -1.399266e+01 0.000000e+00
      vertex   1.358138e+00 -1.393397e+01 0.000000e+00
      vertex   4.533465e-01 -1.399266e+01 0.000000e+00
    endloop
  endfacet
endsolid
