999
dxfrw 0.5.11
0
SECTION
2
HEADER
9
$ACADVER
1
AC1021
9
$HANDSEED
5
20000
9
$DWGCODEPAGE
3
ANSI_1252
9
$INSBASE
10
0
20
0
30
0
9
$EXTMIN
10
-0.211681
20
-1.6228825
30
0
9
$EXTMAX
10
260.241579158
20
76.185413
30
0
9
$LIMMIN
10
0
20
0
9
$LIMMAX
10
12
20
9
9
$ORTHOMODE
70
0
9
$LTSCALE
40
1
9
$TEXTSTYLE
7
STANDARD
9
$CLAYER
8
Layer_1
9
$DIMASZ
40
0.18
9
$DIMLFAC
40
1
9
$DIMSCALE
40
1
9
$DIMEXO
40
0.0625
9
$DIMEXE
40
0.18
9
$DIMTXT
40
0.18
9
$DIMTSZ
40
0
9
$DIMAUNIT
70
0
9
$DIMADEC
70
0
9
$DIMLUNIT
70
2
9
$DIMSTYLE
2
ISO-25
9
$DIMGAP
40
0.09
9
$DIMTIH
70
1
9
$LUNITS
70
2
9
$LUPREC
70
4
9
$AUNITS
70
0
9
$AUPREC
70
0
9
$SPLINESEGS
70
8
9
$GRIDMODE
70
1
9
$SNAPSTYLE
70
0
9
$PINSBASE
10
0
20
0
30
0
9
$PLIMMIN
10
0
20
0
9
$PLIMMAX
10
0
20
0
9
$INSUNITS
70
0
9
$PSVPSCALE
40
0
0
ENDSEC
0
SECTION
2
CLASSES
0
ENDSEC
0
SECTION
2
TABLES
0
TABLE
2
VPORT
5
8
330
0
100
AcDbSymbolTable
70
1
0
VPORT
5
31
330
2
100
AcDbSymbolTableRecord
100
AcDbViewportTableRecord
2
*ACTIVE
70
0
10
0
20
0
11
1
21
1
12
175.038412438
22
68.0502767691
13
0
23
0
14
10
24
10
15
10
25
10
16
0
26
0
36
1
17
0
27
0
37
0
40
187.775095256
41
1.96899224806
42
50
43
0
44
0
50
0
51
0
71
0
72
100
73
1
74
3
75
0
76
1
77
0
78
0
281
0
65
1
110
0
120
0
130
0
111
1
121
0
131
0
112
0
122
1
132
0
79
0
146
0
348
10020
60
7
61
5
292
1
282
1
141
0
142
0
63
250
421
3358443
0
ENDTAB
0
TABLE
2
LTYPE
5
5
330
0
100
AcDbSymbolTable
70
4
0
LTYPE
5
14
330
5
100
AcDbSymbolTableRecord
100
AcDbLinetypeTableRecord
2
ByBlock
70
0
3

72
65
73
0
40
0
0
LTYPE
5
15
330
5
100
AcDbSymbolTableRecord
100
AcDbLinetypeTableRecord
2
ByLayer
70
0
3

72
65
73
0
40
0
0
LTYPE
5
16
330
5
100
AcDbSymbolTableRecord
100
AcDbLinetypeTableRecord
2
Continuous
70
0
3
Solid line
72
65
73
0
40
0
0
LTYPE
5
32
330
5
100
AcDbSymbolTableRecord
100
AcDbLinetypeTableRecord
2
DOT
70
0
3
Dot . . . . . . . . . . . . . . . . . . . . . .
72
65
73
2
40
6.35
49
0
74
0
49
-6.35
74
0
0
LTYPE
5
33
330
5
100
AcDbSymbolTableRecord
100
AcDbLinetypeTableRecord
2
DOT2
70
0
3
Dot (.5x) .....................................
72
65
73
2
40
3.175
49
0
74
0
49
-3.175
74
0
0
LTYPE
5
34
330
5
100
AcDbSymbolTableRecord
100
AcDbLinetypeTableRecord
2
DOTX2
70
0
3
Dot (2x) .  .  .  .  .  .  .  .  .  .  .  .  .
72
65
73
2
40
12.7
49
0
74
0
49
-12.7
74
0
0
LTYPE
5
35
330
5
100
AcDbSymbolTableRecord
100
AcDbLinetypeTableRecord
2
DASHED
70
0
3
Dot . . . . . . . . . . . . . . . . . . . . . .
72
65
73
2
40
19.05
49
12.7
74
0
49
-6.35
74
0
0
LTYPE
5
36
330
5
100
AcDbSymbolTableRecord
100
AcDbLinetypeTableRecord
2
DASHED2
70
0
3
Dashed (.5x) _ _ _ _ _ _ _ _ _ _ _ _ _ _ _ _ _
72
65
73
2
40
9.525
49
6.35
74
0
49
-3.175
74
0
0
LTYPE
5
37
330
5
100
AcDbSymbolTableRecord
100
AcDbLinetypeTableRecord
2
DASHEDX2
70
0
3
Dashed (2x) ____  ____  ____  ____  ____  ___
72
65
73
2
40
38.1
49
25.4
74
0
49
-12.7
74
0
0
LTYPE
5
38
330
5
100
AcDbSymbolTableRecord
100
AcDbLinetypeTableRecord
2
DASHDOT
70
0
3
Dash dot __ . __ . __ . __ . __ . __ . __ . __
72
65
73
4
40
25.4
49
12.7
74
0
49
-6.35
74
0
49
0
74
0
49
-6.35
74
0
0
LTYPE
5
39
330
5
100
AcDbSymbolTableRecord
100
AcDbLinetypeTableRecord
2
DASHDOT2
70
0
3
Dash dot (.5x) _._._._._._._._._._._._._._._.
72
65
73
4
40
12.7
49
6.35
74
0
49
-3.175
74
0
49
0
74
0
49
-3.175
74
0
0
LTYPE
5
3A
330
5
100
AcDbSymbolTableRecord
100
AcDbLinetypeTableRecord
2
DASHDOTX2
70
0
3
Dash dot (2x) ____  .  ____  .  ____  .  ___
72
65
73
4
40
50.8
49
25.4
74
0
49
-12.7
74
0
49
0
74
0
49
-12.7
74
0
0
LTYPE
5
3B
330
5
100
AcDbSymbolTableRecord
100
AcDbLinetypeTableRecord
2
DIVIDE
70
0
3
Divide ____ . . ____ . . ____ . . ____ . . ____
72
65
73
6
40
31.75
49
12.7
74
0
49
-6.35
74
0
49
0
74
0
49
-6.35
74
0
49
0
74
0
49
-6.35
74
0
0
LTYPE
5
3C
330
5
100
AcDbSymbolTableRecord
100
AcDbLinetypeTableRecord
2
DIVIDE2
70
0
3
Divide (.5x) __..__..__..__..__..__..__..__.._
72
65
73
6
40
15.875
49
6.35
74
0
49
-3.175
74
0
49
0
74
0
49
-3.175
74
0
49
0
74
0
49
-3.175
74
0
0
LTYPE
5
3D
330
5
100
AcDbSymbolTableRecord
100
AcDbLinetypeTableRecord
2
DIVIDEX2
70
0
3
Divide (2x) ________  .  .  ________  .  .  _
72
65
73
6
40
63.5
49
25.4
74
0
49
-12.7
74
0
49
0
74
0
49
-12.7
74
0
49
0
74
0
49
-12.7
74
0
0
LTYPE
5
3E
330
5
100
AcDbSymbolTableRecord
100
AcDbLinetypeTableRecord
2
BORDER
70
0
3
Border __ __ . __ __ . __ __ . __ __ . __ __ .
72
65
73
6
40
44.45
49
12.7
74
0
49
-6.35
74
0
49
12.7
74
0
49
-6.35
74
0
49
0
74
0
49
-6.35
74
0
0
LTYPE
5
3F
330
5
100
AcDbSymbolTableRecord
100
AcDbLinetypeTableRecord
2
BORDER2
70
0
3
Border (.5x) __.__.__.__.__.__.__.__.__.__.__.
72
65
73
6
40
22.225
49
6.35
74
0
49
-3.175
74
0
49
6.35
74
0
49
-3.175
74
0
49
0
74
0
49
-3.175
74
0
0
LTYPE
5
40
330
5
100
AcDbSymbolTableRecord
100
AcDbLinetypeTableRecord
2
BORDERX2
70
0
3
Border (2x) ____  ____  .  ____  ____  .  ___
72
65
73
6
40
88.9
49
25.4
74
0
49
-12.7
74
0
49
25.4
74
0
49
-12.7
74
0
49
0
74
0
49
-12.7
74
0
0
LTYPE
5
41
330
5
100
AcDbSymbolTableRecord
100
AcDbLinetypeTableRecord
2
CENTER
70
0
3
Center ____ _ ____ _ ____ _ ____ _ ____ _ ____
72
65
73
4
40
50.8
49
31.75
74
0
49
-6.35
74
0
49
6.35
74
0
49
-6.35
74
0
0
LTYPE
5
42
330
5
100
AcDbSymbolTableRecord
100
AcDbLinetypeTableRecord
2
CENTER2
70
0
3
Center (.5x) ___ _ ___ _ ___ _ ___ _ ___ _ ___
72
65
73
4
40
28.575
49
19.05
74
0
49
-3.175
74
0
49
3.175
74
0
49
-3.175
74
0
0
LTYPE
5
43
330
5
100
AcDbSymbolTableRecord
100
AcDbLinetypeTableRecord
2
CENTERX2
70
0
3
Center (2x) ________  __  ________  __  _____
72
65
73
4
40
101.6
49
63.5
74
0
49
-12.7
74
0
49
12.7
74
0
49
-12.7
74
0
0
ENDTAB
0
TABLE
2
LAYER
5
2
330
0
100
AcDbSymbolTable
70
1
0
LAYER
5
10
330
2
100
AcDbSymbolTableRecord
100
AcDbLayerTableRecord
2
0
70
0
62
256
6
CONTINUOUS
370
-3
390
F
0
LAYER
5
44
330
2
100
AcDbSymbolTableRecord
100
AcDbLayerTableRecord
2
Layer_1
70
0
62
7
6
CONTINUOUS
370
-3
390
F
0
ENDTAB
0
TABLE
2
STYLE
5
3
330
0
100
AcDbSymbolTable
70
3
0
STYLE
5
45
330
2
100
AcDbSymbolTableRecord
100
AcDbTextStyleTableRecord
2
Standard
70
0
40
0
41
1
50
0
71
0
42
1
3
txt
4

0
ENDTAB
0
TABLE
2
VIEW
5
6
330
0
100
AcDbSymbolTable
70
0
0
ENDTAB
0
TABLE
2
UCS
5
7
330
0
100
AcDbSymbolTable
70
0
0
ENDTAB
0
TABLE
2
APPID
5
9
330
0
100
AcDbSymbolTable
70
1
0
APPID
5
12
330
9
100
AcDbSymbolTableRecord
100
AcDbRegAppTableRecord
2
ACAD
70
0
0
ENDTAB
0
TABLE
2
DIMSTYLE
5
A
330
0
100
AcDbSymbolTable
70
1
100
AcDbDimStyleTable
71
1
0
DIMSTYLE
105
46
330
A
100
AcDbSymbolTableRecord
100
AcDbDimStyleTableRecord
2
Standard
70
0
40
1
41
0.18
42
0.0625
43
0.38
44
0.18
45
0
46
0
47
0
48
0
140
0.18
141
0.09
142
0
143
25.4
144
1
145
0
146
1
147
0.09
148
0
71
0
72
0
73
0
74
1
75
0
76
0
77
0
78
0
79
0
170
0
171
2
172
0
173
0
174
0
175
0
176
0
177
0
178
0
179
0
271
4
272
4
273
2
274
2
275
0
276
0
277
2
278
46
279
0
280
0
281
0
282
0
283
1
284
0
285
0
286
0
288
0
289
3
340
Standard
341

371
-2
372
-2
0
ENDTAB
0
TABLE
2
BLOCK_RECORD
5
1
330
0
100
AcDbSymbolTable
70
2
0
BLOCK_RECORD
5
1F
330
1
100
AcDbSymbolTableRecord
100
AcDbBlockTableRecord
2
*Model_Space
70
0
280
1
281
0
0
BLOCK_RECORD
5
1E
330
1
100
AcDbSymbolTableRecord
100
AcDbBlockTableRecord
2
*Paper_Space
70
0
280
1
281
0
0
ENDTAB
0
ENDSEC
0
SECTION
2
BLOCKS
0
BLOCK
5
20
330
1F
100
AcDbEntity
8
0
100
AcDbBlockBegin
2
*Model_Space
70
0
10
0
20
0
30
0
3
*Model_Space
1

0
ENDBLK
5
21
330
1F
100
AcDbEntity
8
0
100
AcDbBlockEnd
0
BLOCK
5
1C
330
1B
100
AcDbEntity
8
0
100
AcDbBlockBegin
2
*Paper_Space
70
0
10
0
20
0
30
0
3
*Paper_Space
1

0
ENDBLK
5
1D
330
1F
100
AcDbEntity
8
0
100
AcDbBlockEnd
0
ENDSEC
0
SECTION
2
ENTITIES
0
LWPOLYLINE
5
47
100
AcDbEntity
8
Layer_1
6
ByLayer
62
7
370
-1
100
AcDbPolyline
90
24
70
0
43
0
10
59.69388
20
16.158272
10
58.635479
20
16.017152
10
57.577075
20
15.593791
10
56.730355
20
14.888189
10
56.095313
20
13.970908
10
55.742512
20
12.912506
10
55.601393
20
11.783543
10
55.883632
20
10.725141
10
56.377555
20
9.737299
10
57.153714
20
8.890578
10
58.070998
20
8.326095
10
59.19996
20
8.043856
10
60.258362
20
8.043856
10
61.387324
20
8.326095
10
62.304605
20
8.890578
10
63.080767
20
9.737299
10
63.574687
20
10.725141
10
63.786368
20
11.783543
10
63.71581
20
12.912506
10
63.363006
20
13.970908
10
62.727967
20
14.888189
10
61.881244
20
15.593791
10
60.822843
20
16.017152
10
59.69388
20
16.158272
0
LWPOLYLINE
5
48
100
AcDbEntity
8
Layer_1
6
ByLayer
62
7
370
-1
100
AcDbPolyline
90
5
70
0
43
0
10
71.689104
20
5.997612
10
59.69388
20
5.997612
10
59.69388
20
2.963526
10
71.689104
20
2.963526
10
71.689104
20
5.997612
0
LWPOLYLINE
5
49
100
AcDbEntity
8
Layer_1
6
ByLayer
62
7
370
-1
100
AcDbPolyline
90
2
70
0
43
0
10
94.409469
20
30.411421
10
94.409469
20
29.494139
0
LWPOLYLINE
5
4A
100
AcDbEntity
8
Layer_1
6
ByLayer
62
7
370
-1
100
AcDbPolyline
90
9
70
0
43
0
10
95.044511
20
30.905342
10
94.903391
20
30.905342
10
94.83283
20
30.905342
10
94.691711
20
30.905342
10
94.621149
20
30.834782
10
94.550591
20
30.764222
10
94.48003
20
30.623101
10
94.409469
20
30.552541
10
94.409469
20
30.411421
0
LWPOLYLINE
5
4B
100
AcDbEntity
8
Layer_1
6
ByLayer
62
7
370
-1
100
AcDbPolyline
90
9
70
0
43
0
10
97.443555
20
28.012376
10
97.372997
20
28.506297
10
97.231874
20
29.000218
10
97.020196
20
29.423579
10
96.737954
20
29.84694
10
96.385154
20
30.270301
10
95.961793
20
30.552541
10
95.538431
20
30.764222
10
95.044511
20
30.905342
0
LWPOLYLINE
5
4C
100
AcDbEntity
8
Layer_1
6
ByLayer
62
7
370
-1
100
AcDbPolyline
90
2
70
0
43
0
10
97.443555
20
24.484369
10
97.443555
20
28.012376
0
LWPOLYLINE
5
4D
100
AcDbEntity
8
Layer_1
6
ByLayer
62
7
370
-1
100
AcDbPolyline
90
9
70
0
43
0
10
94.409469
20
21.450283
10
95.044511
20
21.520843
10
95.538431
20
21.732523
10
96.102912
20
22.014764
10
96.526274
20
22.367565
10
96.949635
20
22.790925
10
97.231874
20
23.355406
10
97.372997
20
23.919888
10
97.443555
20
24.484369
0
LWPOLYLINE
5
4E
100
AcDbEntity
8
Layer_1
6
ByLayer
62
7
370
-1
100
AcDbPolyline
90
2
70
0
43
0
10
91.445943
20
21.450283
10
94.409469
20
21.450283
0
LWPOLYLINE
5
4F
100
AcDbEntity
8
Layer_1
6
ByLayer
62
7
370
-1
100
AcDbPolyline
90
2
70
0
43
0
10
91.445943
20
11.007382
10
91.445943
20
21.450283
0
LWPOLYLINE
5
50
100
AcDbEntity
8
Layer_1
6
ByLayer
62
7
370
-1
100
AcDbPolyline
90
2
70
0
43
0
10
94.409469
20
11.007382
10
91.445943
20
11.007382
0
LWPOLYLINE
5
51
100
AcDbEntity
8
Layer_1
6
ByLayer
62
7
370
-1
100
AcDbPolyline
90
9
70
0
43
0
10
97.443555
20
7.973295
10
97.372997
20
8.537776
10
97.231874
20
9.102258
10
96.949635
20
9.666739
10
96.526274
20
10.0901
10
96.102912
20
10.442901
10
95.538431
20
10.725141
10
95.044511
20
10.936822
10
94.409469
20
11.007382
0
LWPOLYLINE
5
52
100
AcDbEntity
8
Layer_1
6
ByLayer
62
7
370
-1
100
AcDbPolyline
90
2
70
0
43
0
10
97.443555
20
6.985455
10
97.443555
20
7.973295
0
LWPOLYLINE
5
53
100
AcDbEntity
8
Layer_1
6
ByLayer
62
7
370
-1
100
AcDbPolyline
90
2
70
0
43
0
10
92.433786
20
6.985455
10
97.443555
20
6.985455
0
LWPOLYLINE
5
54
100
AcDbEntity
8
Layer_1
6
ByLayer
62
7
370
-1
100
AcDbPolyline
90
9
70
0
43
0
10
90.458101
20
6.773774
10
90.669782
20
6.844332
10
90.952024
20
6.844332
10
91.163704
20
6.914894
10
91.445943
20
6.914894
10
91.657624
20
6.985455
10
91.939866
20
6.985455
10
92.222105
20
6.985455
10
92.433786
20
6.985455
0
LWPOLYLINE
5
55
100
AcDbEntity
8
Layer_1
6
ByLayer
62
7
370
-1
100
AcDbPolyline
90
2
70
0
43
0
10
84.319369
20
5.503689
10
90.458101
20
6.773774
0
LWPOLYLINE
5
56
100
AcDbEntity
8
Layer_1
6
ByLayer
62
7
370
-1
100
AcDbPolyline
90
9
70
0
43
0
10
82.978726
20
5.292011
10
83.119846
20
5.292011
10
83.260968
20
5.36257
10
83.472649
20
5.36257
10
83.613769
20
5.36257
10
83.82545
20
5.433131
10
83.966569
20
5.433131
10
84.17825
20
5.503692
10
84.319369
20
5.503692
0
LWPOLYLINE
5
57
100
AcDbEntity
8
Layer_1
6
ByLayer
62
7
370
-1
100
AcDbPolyline
90
2
70
0
43
0
10
78.039516
20
4.656969
10
82.978726
20
5.292011
0
LWPOLYLINE
5
58
100
AcDbEntity
8
Layer_1
6
ByLayer
62
7
370
-1
100
AcDbPolyline
90
9
70
0
43
0
10
78.039516
20
3.104645
10
77.757277
20
3.175206
10
77.545596
20
3.316326
10
77.333915
20
3.598568
10
77.333915
20
3.880807
10
77.333915
20
4.163049
10
77.545596
20
4.445288
10
77.757277
20
4.586408
10
78.039516
20
4.656969
0
LWPOLYLINE
5
59
100
AcDbEntity
8
Layer_1
6
ByLayer
62
7
370
-1
100
AcDbPolyline
90
2
70
0
43
0
10
82.978726
20
3.810249
10
78.039516
20
3.104645
0
LWPOLYLINE
5
5A
100
AcDbEntity
8
Layer_1
6
ByLayer
62
7
370
-1
100
AcDbPolyline
90
9
70
0
43
0
10
84.319369
20
4.021927
10
84.17825
20
3.951368
10
83.966569
20
3.951368
10
83.82545
20
3.951368
10
83.613769
20
3.880807
10
83.472649
20
3.880807
10
83.260968
20
3.810246
10
83.119846
20
3.810246
10
82.978726
20
3.810246
0
LWPOLYLINE
5
5B
100
AcDbEntity
8
Layer_1
6
ByLayer
62
7
370
-1
100
AcDbPolyline
90
2
70
0
43
0
10
90.458101
20
5.292011
10
84.319369
20
4.021927
0
LWPOLYLINE
5
5C
100
AcDbEntity
8
Layer_1
6
ByLayer
62
7
370
-1
100
AcDbPolyline
90
9
70
0
43
0
10
92.433786
20
5.503689
10
92.222105
20
5.503689
10
91.939866
20
5.433131
10
91.657624
20
5.433131
10
91.445943
20
5.433131
10
91.163704
20
5.433131
10
90.952024
20
5.36257
10
90.669782
20
5.292011
10
90.458101
20
5.292011
0
LWPOLYLINE
5
5D
100
AcDbEntity
8
Layer_1
6
ByLayer
62
7
370
-1
100
AcDbPolyline
90
2
70
0
43
0
10
97.443555
20
5.503689
10
92.433786
20
5.503689
0
LWPOLYLINE
5
5E
100
AcDbEntity
8
Layer_1
6
ByLayer
62
7
370
-1
100
AcDbPolyline
90
2
70
0
43
0
10
97.443555
20
4.515849
10
97.443555
20
5.503692
0
LWPOLYLINE
5
5F
100
AcDbEntity
8
Layer_1
6
ByLayer
62
7
370
-1
100
AcDbPolyline
90
9
70
0
43
0
10
94.409469
20
1.481763
10
95.044511
20
1.552324
10
95.538431
20
1.693444
10
96.102912
20
1.975683
10
96.526274
20
2.328483
10
96.949635
20
2.822406
10
97.231874
20
3.316326
10
97.372997
20
3.880807
10
97.443555
20
4.515849
0
LWPOLYLINE
5
60
100
AcDbEntity
8
Layer_1
6
ByLayer
62
7
370
-1
100
AcDbPolyline
90
2
70
0
43
0
10
94.409469
20
2.963526
10
94.409469
20
1.481763
0
LWPOLYLINE
5
61
100
AcDbEntity
8
Layer_1
6
ByLayer
62
7
370
-1
100
AcDbPolyline
90
2
70
0
43
0
10
91.445943
20
2.963526
10
94.409469
20
2.963526
0
LWPOLYLINE
5
62
100
AcDbEntity
8
Layer_1
6
ByLayer
62
7
370
-1
100
AcDbPolyline
90
2
70
0
43
0
10
91.445943
20
0.98784
10
91.445943
20
2.963526
0
LWPOLYLINE
5
63
100
AcDbEntity
8
Layer_1
6
ByLayer
62
7
370
-1
100
AcDbPolyline
90
9
70
0
43
0
10
90.458101
20
0
10
90.599223
20
0
10
90.810904
20
0.070559
10
90.952024
20
0.14112
10
91.163704
20
0.28224
10
91.234263
20
0.423362
10
91.375385
20
0.564481
10
91.375385
20
0.776162
10
91.445943
20
0.987843
0
LWPOLYLINE
5
64
100
AcDbEntity
8
Layer_1
6
ByLayer
62
7
370
-1
100
AcDbPolyline
90
9
70
0
43
0
10
5.997612
20
0.98784
10
6.068173
20
0.776162
10
6.068173
20
0.564481
10
6.209292
20
0.423362
10
6.279854
20
0.28224
10
6.491534
20
0.14112
10
6.632654
20
0.070559
10
6.844335
20
0
10
6.985454
20
0
0
LWPOLYLINE
5
65
100
AcDbEntity
8
Layer_1
6
ByLayer
62
7
370
-1
100
AcDbPolyline
90
2
70
0
43
0
10
3.034086
20
21.450283
10
5.997612
20
21.450283
0
LWPOLYLINE
5
66
100
AcDbEntity
8
Layer_1
6
ByLayer
62
7
370
-1
100
AcDbPolyline
90
2
70
0
43
0
10
3.034086
20
29.494139
10
3.034086
20
30.411421
0
LWPOLYLINE
5
67
100
AcDbEntity
8
Layer_1
6
ByLayer
62
7
370
-1
100
AcDbPolyline
90
2
70
0
43
0
10
5.997612
20
29.494139
10
3.034086
20
29.494139
0
LWPOLYLINE
5
68
100
AcDbEntity
8
Layer_1
6
ByLayer
62
7
370
-1
100
AcDbPolyline
90
2
70
0
43
0
10
5.997612
20
31.469823
10
5.997612
20
29.494139
0
LWPOLYLINE
5
69
100
AcDbEntity
8
Layer_1
6
ByLayer
62
7
370
-1
100
AcDbPolyline
90
2
70
0
43
0
10
94.409469
20
29.494139
10
91.445943
20
29.494139
0
LWPOLYLINE
5
6A
100
AcDbEntity
8
Layer_1
6
ByLayer
62
7
370
-1
100
AcDbPolyline
90
9
70
0
43
0
10
46.640253
20
16.158272
10
46.851934
20
16.158272
10
47.063615
20
16.087712
10
47.204734
20
16.017152
10
47.345857
20
15.876032
10
47.486976
20
15.734911
10
47.628096
20
15.593791
10
47.628096
20
15.382111
10
47.698657
20
15.17043
0
LWPOLYLINE
5
6B
100
AcDbEntity
8
Layer_1
6
ByLayer
62
7
370
-1
100
AcDbPolyline
90
9
70
0
43
0
10
28.647418
20
15.17043
10
28.717979
20
15.382111
10
28.717979
20
15.593791
10
28.859099
20
15.734911
10
28.929657
20
15.876032
10
29.141338
20
16.017152
10
29.28246
20
16.087712
10
29.494138
20
16.158272
10
29.705819
20
16.158272
0
LWPOLYLINE
5
6C
100
AcDbEntity
8
Layer_1
6
ByLayer
62
7
370
-1
100
AcDbPolyline
90
9
70
0
43
0
10
29.705819
20
8.184975
10
29.494138
20
8.184975
10
29.28246
20
8.255537
10
29.141338
20
8.326095
10
28.929657
20
8.467217
10
28.859099
20
8.608337
10
28.717979
20
8.820017
10
28.717979
20
8.961138
10
28.647418
20
9.172818
0
LWPOLYLINE
5
6D
100
AcDbEntity
8
Layer_1
6
ByLayer
62
7
370
-1
100
AcDbPolyline
90
9
70
0
43
0
10
47.698657
20
9.172818
10
47.628096
20
8.961138
10
47.628096
20
8.820017
10
47.486976
20
8.608337
10
47.345857
20
8.467217
10
47.204734
20
8.326095
10
47.063615
20
8.255537
10
46.851934
20
8.184975
10
46.640253
20
8.184975
0
LWPOLYLINE
5
6E
100
AcDbEntity
8
Layer_1
6
ByLayer
62
7
370
-1
100
AcDbPolyline
90
2
70
0
43
0
10
47.698657
20
9.172818
10
47.698657
20
15.17043
0
LWPOLYLINE
5
6F
100
AcDbEntity
8
Layer_1
6
ByLayer
62
7
370
-1
100
AcDbPolyline
90
9
70
0
43
0
10
0
20
24.484369
10
0.070561
20
23.919888
10
0.282242
20
23.355406
10
0.493923
20
22.790925
10
0.917281
20
22.367565
10
1.340643
20
22.014764
10
1.905124
20
21.732523
10
2.399044
20
21.520843
10
3.034086
20
21.450283
0
LWPOLYLINE
5
70
100
AcDbEntity
8
Layer_1
6
ByLayer
62
7
370
-1
100
AcDbPolyline
90
9
70
0
43
0
10
2.399044
20
30.905342
10
1.905124
20
30.764222
10
1.481762
20
30.552541
10
1.058404
20
30.270301
10
0.705601
20
29.84694
10
0.423361
20
29.423579
10
0.211681
20
29.000218
10
0.070561
20
28.506297
10
0
20
28.012376
0
LWPOLYLINE
5
71
100
AcDbEntity
8
Layer_1
6
ByLayer
62
7
370
-1
100
AcDbPolyline
90
9
70
0
43
0
10
6.985455
20
32.457665
10
6.773774
20
32.457665
10
6.562093
20
32.387105
10
6.420974
20
32.316545
10
6.279851
20
32.175424
10
6.138732
20
32.034304
10
6.068174
20
31.893184
10
5.997612
20
31.681503
10
5.997612
20
31.469823
0
LWPOLYLINE
5
72
100
AcDbEntity
8
Layer_1
6
ByLayer
62
7
370
-1
100
AcDbPolyline
90
2
70
0
43
0
10
29.705819
20
8.184975
10
46.640253
20
8.184975
0
LWPOLYLINE
5
73
100
AcDbEntity
8
Layer_1
6
ByLayer
62
7
370
-1
100
AcDbPolyline
90
2
70
0
43
0
10
28.647418
20
15.17043
10
28.647418
20
9.172818
0
LWPOLYLINE
5
74
100
AcDbEntity
8
Layer_1
6
ByLayer
62
7
370
-1
100
AcDbPolyline
90
2
70
0
43
0
10
46.640253
20
16.158272
10
29.705819
20
16.158272
0
LWPOLYLINE
5
75
100
AcDbEntity
8
Layer_1
6
ByLayer
62
7
370
-1
100
AcDbPolyline
90
2
70
0
43
0
10
25.754451
20
2.963526
10
37.749677
20
2.963526
0
LWPOLYLINE
5
76
100
AcDbEntity
8
Layer_1
6
ByLayer
62
7
370
-1
100
AcDbPolyline
90
2
70
0
43
0
10
25.754451
20
5.997612
10
25.754451
20
2.963526
0
LWPOLYLINE
5
77
100
AcDbEntity
8
Layer_1
6
ByLayer
62
7
370
-1
100
AcDbPolyline
90
2
70
0
43
0
10
37.749677
20
5.997612
10
25.754451
20
5.997612
0
LWPOLYLINE
5
78
100
AcDbEntity
8
Layer_1
6
ByLayer
62
7
370
-1
100
AcDbPolyline
90
2
70
0
43
0
10
37.749677
20
2.963526
10
37.749677
20
5.997612
0
LWPOLYLINE
5
79
100
AcDbEntity
8
Layer_1
6
ByLayer
62
7
370
-1
100
AcDbPolyline
90
2
70
0
43
0
10
0
20
28.012376
10
0
20
24.484369
0
LWPOLYLINE
5
7A
100
AcDbEntity
8
Layer_1
6
ByLayer
62
7
370
-1
100
AcDbPolyline
90
9
70
0
43
0
10
3.034086
20
30.411421
10
3.034086
20
30.552541
10
2.963525
20
30.623101
10
2.892967
20
30.764222
10
2.822406
20
30.834782
10
2.751847
20
30.905342
10
2.610725
20
30.905342
10
2.540166
20
30.905342
10
2.399044
20
30.905342
0
LWPOLYLINE
5
7B
100
AcDbEntity
8
Layer_1
6
ByLayer
62
7
370
-1
100
AcDbPolyline
90
9
70
0
43
0
10
3.034086
20
11.007382
10
2.399044
20
10.936822
10
1.905124
20
10.725141
10
1.340643
20
10.442901
10
0.917281
20
10.0901
10
0.493923
20
9.666739
10
0.282242
20
9.102258
10
0.070561
20
8.537776
10
0
20
7.973295
0
LWPOLYLINE
5
7C
100
AcDbEntity
8
Layer_1
6
ByLayer
62
7
370
-1
100
AcDbPolyline
90
9
70
0
43
0
10
0
20
4.515849
10
0.070561
20
3.880807
10
0.282242
20
3.316326
10
0.493923
20
2.822406
10
0.917281
20
2.328483
10
1.340643
20
1.975683
10
1.905124
20
1.693444
10
2.399044
20
1.552324
10
3.034086
20
1.481763
0
LWPOLYLINE
5
7D
100
AcDbEntity
8
Layer_1
6
ByLayer
62
7
370
-1
100
AcDbPolyline
90
2
70
0
43
0
10
6.985454
20
0
10
90.458101
20
0
0
LWPOLYLINE
5
7E
100
AcDbEntity
8
Layer_1
6
ByLayer
62
7
370
-1
100
AcDbPolyline
90
2
70
0
43
0
10
5.997612
20
2.963526
10
5.997612
20
0.98784
0
LWPOLYLINE
5
7F
100
AcDbEntity
8
Layer_1
6
ByLayer
62
7
370
-1
100
AcDbPolyline
90
2
70
0
43
0
10
3.034086
20
2.963526
10
5.997612
20
2.963526
0
LWPOLYLINE
5
80
100
AcDbEntity
8
Layer_1
6
ByLayer
62
7
370
-1
100
AcDbPolyline
90
2
70
0
43
0
10
3.034086
20
1.481763
10
3.034086
20
2.963526
0
LWPOLYLINE
5
81
100
AcDbEntity
8
Layer_1
6
ByLayer
62
7
370
-1
100
AcDbPolyline
90
2
70
0
43
0
10
0
20
5.503689
10
0
20
4.515849
0
LWPOLYLINE
5
82
100
AcDbEntity
8
Layer_1
6
ByLayer
62
7
370
-1
100
AcDbPolyline
90
2
70
0
43
0
10
5.009772
20
5.503689
10
0
20
5.503689
0
LWPOLYLINE
5
83
100
AcDbEntity
8
Layer_1
6
ByLayer
62
7
370
-1
100
AcDbPolyline
90
9
70
0
43
0
10
6.985454
20
5.292011
10
6.773773
20
5.292011
10
6.491534
20
5.36257
10
6.279854
20
5.433131
10
5.997612
20
5.433131
10
5.785931
20
5.433131
10
5.503692
20
5.433131
10
5.22145
20
5.503692
10
5.009772
20
5.503692
0
LWPOLYLINE
5
84
100
AcDbEntity
8
Layer_1
6
ByLayer
62
7
370
-1
100
AcDbPolyline
90
2
70
0
43
0
10
13.124185
20
4.021927
10
6.985454
20
5.292011
0
LWPOLYLINE
5
85
100
AcDbEntity
8
Layer_1
6
ByLayer
62
7
370
-1
100
AcDbPolyline
90
9
70
0
43
0
10
14.464829
20
3.810249
10
14.323709
20
3.810249
10
14.182589
20
3.810249
10
13.970909
20
3.880807
10
13.829789
20
3.880807
10
13.618108
20
3.951368
10
13.476989
20
3.951368
10
13.335866
20
3.951368
10
13.124185
20
4.021927
0
LWPOLYLINE
5
86
100
AcDbEntity
8
Layer_1
6
ByLayer
62
7
370
-1
100
AcDbPolyline
90
2
70
0
43
0
10
19.404039
20
3.104645
10
14.464829
20
3.810249
0
LWPOLYLINE
5
87
100
AcDbEntity
8
Layer_1
6
ByLayer
62
7
370
-1
100
AcDbPolyline
90
9
70
0
43
0
10
19.404039
20
4.656969
10
19.686281
20
4.586408
10
19.897959
20
4.445288
10
20.10964
20
4.163049
10
20.10964
20
3.880807
10
20.10964
20
3.598568
10
19.897959
20
3.316326
10
19.686281
20
3.175206
10
19.404039
20
3.104645
0
LWPOLYLINE
5
88
100
AcDbEntity
8
Layer_1
6
ByLayer
62
7
370
-1
100
AcDbPolyline
90
2
70
0
43
0
10
14.464829
20
5.292011
10
19.404039
20
4.656969
0
LWPOLYLINE
5
89
100
AcDbEntity
8
Layer_1
6
ByLayer
62
7
370
-1
100
AcDbPolyline
90
9
70
0
43
0
10
13.124185
20
5.503689
10
13.335866
20
5.503689
10
13.476989
20
5.433131
10
13.618108
20
5.433131
10
13.829789
20
5.36257
10
13.970909
20
5.36257
10
14.182589
20
5.36257
10
14.323709
20
5.292011
10
14.464829
20
5.292011
0
LWPOLYLINE
5
8A
100
AcDbEntity
8
Layer_1
6
ByLayer
62
7
370
-1
100
AcDbPolyline
90
2
70
0
43
0
10
6.985454
20
6.773774
10
13.124185
20
5.503689
0
LWPOLYLINE
5
8B
100
AcDbEntity
8
Layer_1
6
ByLayer
62
7
370
-1
100
AcDbPolyline
90
9
70
0
43
0
10
5.009772
20
6.985455
10
5.22145
20
6.985455
10
5.503692
20
6.985455
10
5.785931
20
6.985455
10
5.997612
20
6.914894
10
6.279854
20
6.914894
10
6.491534
20
6.844332
10
6.773773
20
6.844332
10
6.985454
20
6.773774
0
LWPOLYLINE
5
8C
100
AcDbEntity
8
Layer_1
6
ByLayer
62
7
370
-1
100
AcDbPolyline
90
2
70
0
43
0
10
0
20
6.985455
10
5.009772
20
6.985455
0
LWPOLYLINE
5
8D
100
AcDbEntity
8
Layer_1
6
ByLayer
62
7
370
-1
100
AcDbPolyline
90
2
70
0
43
0
10
0
20
7.973295
10
0
20
6.985455
0
LWPOLYLINE
5
8E
100
AcDbEntity
8
Layer_1
6
ByLayer
62
7
370
-1
100
AcDbPolyline
90
2
70
0
43
0
10
5.997612
20
11.007382
10
3.034086
20
11.007382
0
LWPOLYLINE
5
8F
100
AcDbEntity
8
Layer_1
6
ByLayer
62
7
370
-1
100
AcDbPolyline
90
2
70
0
43
0
10
5.997612
20
21.450283
10
5.997612
20
11.007382
0
LWPOLYLINE
5
90
100
AcDbEntity
8
Layer_1
6
ByLayer
62
7
370
-1
100
AcDbPolyline
90
3
70
0
43
0
10
59.482199
20
58.988278
10
71.477423
20
58.988278
10
71.477423
20
61.951804
0
LWPOLYLINE
5
91
100
AcDbEntity
8
Layer_1
6
ByLayer
62
7
370
-1
100
AcDbPolyline
90
2
70
0
43
0
10
59.482199
20
61.951804
10
59.482199
20
58.988278
0
LWPOLYLINE
5
92
100
AcDbEntity
8
Layer_1
6
ByLayer
62
7
370
-1
100
AcDbPolyline
90
2
70
0
43
0
10
5.78593
20
35.491752
10
5.78593
20
33.445508
0
LWPOLYLINE
5
93
100
AcDbEntity
8
Layer_1
6
ByLayer
62
7
370
-1
100
AcDbPolyline
90
2
70
0
43
0
10
2.822405
20
35.491752
10
5.78593
20
35.491752
0
LWPOLYLINE
5
94
100
AcDbEntity
8
Layer_1
6
ByLayer
62
7
370
-1
100
AcDbPolyline
90
2
70
0
43
0
10
2.822405
20
34.503909
10
2.822405
20
35.491752
0
LWPOLYLINE
5
95
100
AcDbEntity
8
Layer_1
6
ByLayer
62
7
370
-1
100
AcDbPolyline
90
9
70
0
43
0
10
2.187363
20
34.009989
10
2.328485
20
34.009989
10
2.399044
20
34.009989
10
2.540166
20
34.080547
10
2.610724
20
34.151108
10
2.681286
20
34.22167
10
2.751844
20
34.292228
10
2.822405
20
34.43335
10
2.822405
20
34.503909
0
LWPOLYLINE
5
96
100
AcDbEntity
8
Layer_1
6
ByLayer
62
7
370
-1
100
AcDbPolyline
90
9
70
0
43
0
10
-0.211681
20
36.973514
10
-0.14112
20
36.479594
10
1.42108547152e-014
20
35.985671
10
0.21168
20
35.491752
10
0.493919
20
35.06839
10
0.846723
20
34.71559
10
1.270081
20
34.362789
10
1.693443
20
34.151108
10
2.187363
20
34.009989
0
LWPOLYLINE
5
97
100
AcDbEntity
8
Layer_1
6
ByLayer
62
7
370
-1
100
AcDbPolyline
90
2
70
0
43
0
10
-0.211681
20
40.430962
10
-0.211681
20
36.973514
0
LWPOLYLINE
5
98
100
AcDbEntity
8
Layer_1
6
ByLayer
62
7
370
-1
100
AcDbPolyline
90
9
70
0
43
0
10
2.822405
20
43.465049
10
2.187363
20
43.394487
10
1.693443
20
43.253368
10
1.128962
20
42.971126
10
0.7056
20
42.547764
10
0.282241
20
42.124406
10
0.070561
20
41.630483
10
-0.14112
20
41.066002
10
-0.211681
20
40.430962
0
LWPOLYLINE
5
99
100
AcDbEntity
8
Layer_1
6
ByLayer
62
7
370
-1
100
AcDbPolyline
90
2
70
0
43
0
10
5.78593
20
43.465049
10
2.822405
20
43.465049
0
LWPOLYLINE
5
9A
100
AcDbEntity
8
Layer_1
6
ByLayer
62
7
370
-1
100
AcDbPolyline
90
2
70
0
43
0
10
5.78593
20
53.978509
10
5.78593
20
43.465049
0
LWPOLYLINE
5
9B
100
AcDbEntity
8
Layer_1
6
ByLayer
62
7
370
-1
100
AcDbPolyline
90
2
70
0
43
0
10
2.822405
20
53.978509
10
5.78593
20
53.978509
0
LWPOLYLINE
5
9C
100
AcDbEntity
8
Layer_1
6
ByLayer
62
7
370
-1
100
AcDbPolyline
90
9
70
0
43
0
10
-0.211681
20
56.942035
10
-0.14112
20
56.377553
10
0.070561
20
55.813072
10
0.282241
20
55.319152
10
0.7056
20
54.82523
10
1.128962
20
54.472429
10
1.693443
20
54.19019
10
2.187363
20
54.049068
10
2.822405
20
53.978509
0
LWPOLYLINE
5
9D
100
AcDbEntity
8
Layer_1
6
ByLayer
62
7
370
-1
100
AcDbPolyline
90
2
70
0
43
0
10
-0.211681
20
57.929877
10
-0.211681
20
56.942035
0
LWPOLYLINE
5
9E
100
AcDbEntity
8
Layer_1
6
ByLayer
62
7
370
-1
100
AcDbPolyline
90
2
70
0
43
0
10
4.798091
20
57.929877
10
-0.211681
20
57.929877
0
LWPOLYLINE
5
9F
100
AcDbEntity
8
Layer_1
6
ByLayer
62
7
370
-1
100
AcDbPolyline
90
9
70
0
43
0
10
6.773773
20
58.141558
10
6.562092
20
58.141558
10
6.279853
20
58.070997
10
6.068172
20
58.070997
10
5.78593
20
58.000436
10
5.57425
20
58.000436
10
5.29201
20
58.000436
10
5.009769
20
57.929877
10
4.798091
20
57.929877
0
LWPOLYLINE
5
A0
100
AcDbEntity
8
Layer_1
6
ByLayer
62
7
370
-1
100
AcDbPolyline
90
2
70
0
43
0
10
12.912504
20
59.41164
10
6.773773
20
58.141558
0
LWPOLYLINE
5
A1
100
AcDbEntity
8
Layer_1
6
ByLayer
62
7
370
-1
100
AcDbPolyline
90
9
70
0
43
0
10
14.253147
20
59.623321
10
14.112028
20
59.623321
10
13.970908
20
59.623321
10
13.759227
20
59.552759
10
13.618108
20
59.552759
10
13.406427
20
59.552759
10
13.265308
20
59.482198
10
13.124185
20
59.482198
10
12.912504
20
59.41164
0
LWPOLYLINE
5
A2
100
AcDbEntity
8
Layer_1
6
ByLayer
62
7
370
-1
100
AcDbPolyline
90
2
70
0
43
0
10
19.192358
20
60.328921
10
14.253147
20
59.623321
0
LWPOLYLINE
5
A3
100
AcDbEntity
8
Layer_1
6
ByLayer
62
7
370
-1
100
AcDbPolyline
90
9
70
0
43
0
10
19.192358
20
61.810684
10
19.4746
20
61.740123
10
19.686278
20
61.599003
10
19.897959
20
61.316764
10
19.897959
20
61.034522
10
19.897959
20
60.752283
10
19.686278
20
60.540602
10
19.4746
20
60.399483
10
19.192358
20
60.328921
0
LWPOLYLINE
5
A4
100
AcDbEntity
8
Layer_1
6
ByLayer
62
7
370
-1
100
AcDbPolyline
90
9
70
0
43
0
10
12.912504
20
60.893403
10
13.124185
20
60.963964
10
13.265308
20
60.963964
10
13.406427
20
61.034522
10
13.618108
20
61.034522
10
13.759227
20
61.105083
10
13.970908
20
61.105083
10
14.112028
20
61.105083
10
14.253147
20
61.175642
0
LWPOLYLINE
5
A5
100
AcDbEntity
8
Layer_1
6
ByLayer
62
7
370
-1
100
AcDbPolyline
90
2
70
0
43
0
10
6.773773
20
59.693879
10
12.912504
20
60.893403
0
LWPOLYLINE
5
A6
100
AcDbEntity
8
Layer_1
6
ByLayer
62
7
370
-1
100
AcDbPolyline
90
9
70
0
43
0
10
4.798091
20
59.482198
10
5.009769
20
59.482198
10
5.29201
20
59.482198
10
5.57425
20
59.482198
10
5.78593
20
59.482198
10
6.068172
20
59.552759
10
6.279853
20
59.552759
10
6.562092
20
59.623321
10
6.773773
20
59.693879
0
LWPOLYLINE
5
A7
100
AcDbEntity
8
Layer_1
6
ByLayer
62
7
370
-1
100
AcDbPolyline
90
2
70
0
43
0
10
-0.211681
20
59.482198
10
4.798091
20
59.482198
0
LWPOLYLINE
5
A8
100
AcDbEntity
8
Layer_1
6
ByLayer
62
7
370
-1
100
AcDbPolyline
90
2
70
0
43
0
10
-0.211681
20
60.470041
10
-0.211681
20
59.482198
0
LWPOLYLINE
5
A9
100
AcDbEntity
8
Layer_1
6
ByLayer
62
7
370
-1
100
AcDbPolyline
90
9
70
0
43
0
10
2.822405
20
63.433566
10
2.187363
20
63.433566
10
1.693443
20
63.221888
10
1.128962
20
62.939646
10
0.7056
20
62.586846
10
0.282241
20
62.092926
10
0.070561
20
61.599003
10
-0.14112
20
61.034522
10
-0.211681
20
60.470041
0
LWPOLYLINE
5
AA
100
AcDbEntity
8
Layer_1
6
ByLayer
62
7
370
-1
100
AcDbPolyline
90
2
70
0
43
0
10
2.822405
20
61.951804
10
2.822405
20
63.433566
0
LWPOLYLINE
5
AB
100
AcDbEntity
8
Layer_1
6
ByLayer
62
7
370
-1
100
AcDbPolyline
90
2
70
0
43
0
10
5.78593
20
61.951804
10
2.822405
20
61.951804
0
LWPOLYLINE
5
AC
100
AcDbEntity
8
Layer_1
6
ByLayer
62
7
370
-1
100
AcDbPolyline
90
2
70
0
43
0
10
5.78593
20
63.927489
10
5.78593
20
61.951804
0
LWPOLYLINE
5
AD
100
AcDbEntity
8
Layer_1
6
ByLayer
62
7
370
-1
100
AcDbPolyline
90
9
70
0
43
0
10
6.773773
20
64.98589
10
6.632654
20
64.915332
10
6.420973
20
64.915332
10
6.279853
20
64.774209
10
6.068172
20
64.63309
10
5.997611
20
64.49197
10
5.856492
20
64.350851
10
5.856492
20
64.13917
10
5.78593
20
63.927489
0
LWPOLYLINE
5
AE
100
AcDbEntity
8
Layer_1
6
ByLayer
62
7
370
-1
100
AcDbPolyline
90
2
70
0
43
0
10
90.24642
20
64.98589
10
6.773773
20
64.98589
0
LWPOLYLINE
5
AF
100
AcDbEntity
8
Layer_1
6
ByLayer
62
7
370
-1
100
AcDbPolyline
90
9
70
0
43
0
10
91.234262
20
63.927489
10
91.163704
20
64.13917
10
91.163704
20
64.350851
10
91.022582
20
64.49197
10
90.952023
20
64.63309
10
90.740342
20
64.774209
10
90.599223
20
64.915332
10
90.387542
20
64.915332
10
90.24642
20
64.98589
0
LWPOLYLINE
5
B0
100
AcDbEntity
8
Layer_1
6
ByLayer
62
7
370
-1
100
AcDbPolyline
90
2
70
0
43
0
10
94.197788
20
61.951804
10
91.234262
20
61.951804
0
LWPOLYLINE
5
B1
100
AcDbEntity
8
Layer_1
6
ByLayer
62
7
370
-1
100
AcDbPolyline
90
2
70
0
43
0
10
94.197788
20
63.433566
10
94.197788
20
61.951804
0
LWPOLYLINE
5
B2
100
AcDbEntity
8
Layer_1
6
ByLayer
62
7
370
-1
100
AcDbPolyline
90
9
70
0
43
0
10
97.231874
20
60.470041
10
97.161316
20
61.034522
10
97.020193
20
61.599003
10
96.737954
20
62.092926
10
96.314593
20
62.586846
10
95.891231
20
62.939646
10
95.32675
20
63.221888
10
94.83283
20
63.433566
10
94.197788
20
63.433566
0
LWPOLYLINE
5
B3
100
AcDbEntity
8
Layer_1
6
ByLayer
62
7
370
-1
100
AcDbPolyline
90
2
70
0
43
0
10
92.222105
20
59.482198
10
97.231874
20
59.482198
0
LWPOLYLINE
5
B4
100
AcDbEntity
8
Layer_1
6
ByLayer
62
7
370
-1
100
AcDbPolyline
90
9
70
0
43
0
10
90.24642
20
59.693879
10
90.4581
20
59.623321
10
90.740342
20
59.552759
10
90.952023
20
59.552759
10
91.234262
20
59.482198
10
91.445943
20
59.482198
10
91.728185
20
59.482198
10
92.010424
20
59.482198
10
92.222105
20
59.482198
0
LWPOLYLINE
5
B5
100
AcDbEntity
8
Layer_1
6
ByLayer
62
7
370
-1
100
AcDbPolyline
90
2
70
0
43
0
10
84.107688
20
60.893403
10
90.24642
20
59.693879
0
LWPOLYLINE
5
B6
100
AcDbEntity
8
Layer_1
6
ByLayer
62
7
370
-1
100
AcDbPolyline
90
9
70
0
43
0
10
82.767045
20
61.175642
10
82.908165
20
61.105083
10
83.049287
20
61.105083
10
83.260968
20
61.105083
10
83.402088
20
61.034522
10
83.613768
20
61.034522
10
83.754888
20
60.963964
10
83.966569
20
60.963964
10
84.107688
20
60.893403
0
LWPOLYLINE
5
B7
100
AcDbEntity
8
Layer_1
6
ByLayer
62
7
370
-1
100
AcDbPolyline
90
9
70
0
43
0
10
77.827835
20
60.328921
10
77.545596
20
60.399483
10
77.333915
20
60.540602
10
77.122234
20
60.752283
10
77.122234
20
61.034522
10
77.122234
20
61.316764
10
77.333915
20
61.599003
10
77.545596
20
61.740123
10
77.827835
20
61.810684
0
LWPOLYLINE
5
B8
100
AcDbEntity
8
Layer_1
6
ByLayer
62
7
370
-1
100
AcDbPolyline
90
2
70
0
43
0
10
82.767045
20
59.623321
10
77.827835
20
60.328921
0
LWPOLYLINE
5
B9
100
AcDbEntity
8
Layer_1
6
ByLayer
62
7
370
-1
100
AcDbPolyline
90
9
70
0
43
0
10
92.222105
20
57.929877
10
92.010424
20
57.929877
10
91.728185
20
58.000436
10
91.445943
20
58.000436
10
91.234262
20
58.000436
10
90.952023
20
58.070997
10
90.740342
20
58.070997
10
90.4581
20
58.141558
10
90.24642
20
58.141558
0
LWPOLYLINE
5
BA
100
AcDbEntity
8
Layer_1
6
ByLayer
62
7
370
-1
100
AcDbPolyline
90
2
70
0
43
0
10
97.231874
20
57.929877
10
92.222105
20
57.929877
0
LWPOLYLINE
5
BB
100
AcDbEntity
8
Layer_1
6
ByLayer
62
7
370
-1
100
AcDbPolyline
90
2
70
0
43
0
10
97.231874
20
56.942035
10
97.231874
20
57.929877
0
LWPOLYLINE
5
BC
100
AcDbEntity
8
Layer_1
6
ByLayer
62
7
370
-1
100
AcDbPolyline
90
9
70
0
43
0
10
94.197788
20
53.978509
10
94.83283
20
54.049068
10
95.32675
20
54.19019
10
95.891231
20
54.472429
10
96.314593
20
54.82523
10
96.737954
20
55.319152
10
97.020193
20
55.813072
10
97.161316
20
56.377553
10
97.231874
20
56.942035
0
LWPOLYLINE
5
BD
100
AcDbEntity
8
Layer_1
6
ByLayer
62
7
370
-1
100
AcDbPolyline
90
2
70
0
43
0
10
91.234262
20
53.978509
10
94.197788
20
53.978509
0
LWPOLYLINE
5
BE
100
AcDbEntity
8
Layer_1
6
ByLayer
62
7
370
-1
100
AcDbPolyline
90
2
70
0
43
0
10
91.234262
20
43.465049
10
91.234262
20
53.978509
0
LWPOLYLINE
5
BF
100
AcDbEntity
8
Layer_1
6
ByLayer
62
7
370
-1
100
AcDbPolyline
90
2
70
0
43
0
10
94.197788
20
43.465049
10
91.234262
20
43.465049
0
LWPOLYLINE
5
C0
100
AcDbEntity
8
Layer_1
6
ByLayer
62
7
370
-1
100
AcDbPolyline
90
9
70
0
43
0
10
97.231874
20
40.430962
10
97.161316
20
41.066002
10
97.020193
20
41.630483
10
96.737954
20
42.124406
10
96.314593
20
42.547764
10
95.891231
20
42.971126
10
95.32675
20
43.253368
10
94.83283
20
43.394487
10
94.197788
20
43.465049
0
LWPOLYLINE
5
C1
100
AcDbEntity
8
Layer_1
6
ByLayer
62
7
370
-1
100
AcDbPolyline
90
2
70
0
43
0
10
97.231874
20
36.973514
10
97.231874
20
40.430962
0
LWPOLYLINE
5
C2
100
AcDbEntity
8
Layer_1
6
ByLayer
62
7
370
-1
100
AcDbPolyline
90
9
70
0
43
0
10
94.83283
20
34.009989
10
95.32675
20
34.151108
10
95.750111
20
34.362789
10
96.173473
20
34.71559
10
96.526273
20
35.06839
10
96.808515
20
35.491752
10
97.020193
20
35.985671
10
97.161316
20
36.479594
10
97.231874
20
36.973514
0
LWPOLYLINE
5
C3
100
AcDbEntity
8
Layer_1
6
ByLayer
62
7
370
-1
100
AcDbPolyline
90
9
70
0
43
0
10
94.197788
20
34.503909
10
94.197788
20
34.43335
10
94.268349
20
34.292228
10
94.33891
20
34.22167
10
94.409468
20
34.151108
10
94.48003
20
34.080547
10
94.621149
20
34.009989
10
94.69171
20
34.009989
10
94.83283
20
34.009989
0
LWPOLYLINE
5
C4
100
AcDbEntity
8
Layer_1
6
ByLayer
62
7
370
-1
100
AcDbPolyline
90
2
70
0
43
0
10
94.197788
20
35.491752
10
94.197788
20
34.503909
0
LWPOLYLINE
5
C5
100
AcDbEntity
8
Layer_1
6
ByLayer
62
7
370
-1
100
AcDbPolyline
90
2
70
0
43
0
10
91.234262
20
35.491752
10
94.197788
20
35.491752
0
LWPOLYLINE
5
C6
100
AcDbEntity
8
Layer_1
6
ByLayer
62
7
370
-1
100
AcDbPolyline
90
4
70
0
43
0
10
25.54277
20
58.988278
10
37.537996
20
58.988278
10
37.537996
20
61.951804
10
25.54277
20
61.951804
0
LWPOLYLINE
5
C7
100
AcDbEntity
8
Layer_1
6
ByLayer
62
7
370
-1
100
AcDbPolyline
90
2
70
0
43
0
10
25.54277
20
61.951804
10
25.54277
20
58.988278
0
LWPOLYLINE
5
C8
100
AcDbEntity
8
Layer_1
6
ByLayer
62
7
370
-1
100
AcDbPolyline
90
2
70
0
43
0
10
97.231874
20
59.482198
10
97.231874
20
60.470041
0
LWPOLYLINE
5
C9
100
AcDbEntity
8
Layer_1
6
ByLayer
62
7
370
-1
100
AcDbPolyline
90
9
70
0
43
0
10
5.78593
20
33.445508
10
5.78593
20
33.233827
10
5.856491
20
33.092707
10
5.92705
20
32.881027
10
6.068169
20
32.739907
10
6.209292
20
32.598785
10
6.350411
20
32.528226
10
6.562092
20
32.457665
10
6.773773
20
32.457665
0
LWPOLYLINE
5
CA
100
AcDbEntity
8
Layer_1
6
ByLayer
62
7
370
-1
100
AcDbPolyline
90
2
70
0
43
0
10
77.827835
20
61.810684
10
82.767045
20
61.175642
0
LWPOLYLINE
5
CB
100
AcDbEntity
8
Layer_1
6
ByLayer
62
7
370
-1
100
AcDbPolyline
90
9
70
0
43
0
10
84.107688
20
59.41164
10
83.966569
20
59.482198
10
83.754888
20
59.482198
10
83.613768
20
59.552759
10
83.402088
20
59.552759
10
83.260968
20
59.552759
10
83.049287
20
59.623321
10
82.908165
20
59.623321
10
82.767045
20
59.623321
0
LWPOLYLINE
5
CC
100
AcDbEntity
8
Layer_1
6
ByLayer
62
7
370
-1
100
AcDbPolyline
90
2
70
0
43
0
10
6.562092
20
32.457665
10
90.4581
20
32.457665
0
LWPOLYLINE
5
CD
100
AcDbEntity
8
Layer_1
6
ByLayer
62
7
370
-1
100
AcDbPolyline
90
2
70
0
43
0
10
71.477423
20
61.951804
10
59.482199
20
61.951804
0
LWPOLYLINE
5
CE
100
AcDbEntity
8
Layer_1
6
ByLayer
62
7
370
-1
100
AcDbPolyline
90
2
70
0
43
0
10
91.234262
20
61.951804
10
91.234262
20
63.927489
0
LWPOLYLINE
5
CF
100
AcDbEntity
8
Layer_1
6
ByLayer
62
7
370
-1
100
AcDbPolyline
90
2
70
0
43
0
10
90.24642
20
58.141558
10
84.107688
20
59.41164
0
LWPOLYLINE
5
D0
100
AcDbEntity
8
Layer_1
6
ByLayer
62
7
370
-1
100
AcDbPolyline
90
2
70
0
43
0
10
14.253147
20
61.175642
10
19.192358
20
61.810684
0
LWPOLYLINE
5
D1
100
AcDbEntity
8
Layer_1
6
ByLayer
62
7
370
-1
100
AcDbPolyline
90
5
70
0
43
0
10
11.077942
20
14.232952
10
22.297006
20
14.232952
10
22.297006
20
6.722951
10
11.077942
20
6.722951
10
11.077942
20
14.232952
0
LWPOLYLINE
5
D2
100
AcDbEntity
8
Layer_1
6
ByLayer
62
7
370
-1
100
AcDbPolyline
90
2
70
0
43
0
10
91.445943
20
31.469823
10
91.445943
20
29.494139
0
LWPOLYLINE
5
D3
100
AcDbEntity
8
Layer_1
6
ByLayer
62
7
370
-1
100
AcDbPolyline
90
9
70
0
43
0
10
90.4581
20
32.457665
10
90.669781
20
32.457665
10
90.881462
20
32.387105
10
91.022581
20
32.316545
10
91.163704
20
32.175424
10
91.304823
20
32.034304
10
91.375381
20
31.893184
10
91.445943
20
31.681503
10
91.445943
20
31.469823
0
LWPOLYLINE
5
D4
100
AcDbEntity
8
Layer_1
6
ByLayer
62
7
370
-1
100
AcDbPolyline
90
2
70
0
43
0
10
91.234262
20
35.491752
10
91.234262
20
33.445508
0
LWPOLYLINE
5
D5
100
AcDbEntity
8
Layer_1
6
ByLayer
62
7
370
-1
100
AcDbPolyline
90
9
70
0
43
0
10
91.234262
20
33.445508
10
91.234262
20
33.233827
10
91.163701
20
33.092707
10
91.093142
20
32.881027
10
90.952023
20
32.739907
10
90.8109
20
32.598785
10
90.669781
20
32.528226
10
90.4581
20
32.457665
10
90.246419
20
32.457665
0
LWPOLYLINE
5
D6
100
AcDbEntity
8
Layer_1
6
ByLayer
62
7
370
-1
100
AcDbPolyline
90
5
70
0
43
0
10
156.361659638
20
2.987843
10
166.381197638
20
2.987843
10
166.381197638
20
6.02193
10
156.361659638
20
6.02193
10
156.361659638
20
2.987843
0
LWPOLYLINE
5
D7
100
AcDbEntity
8
Layer_1
6
ByLayer
62
7
370
-1
100
AcDbPolyline
90
2
70
0
43
0
10
169.133033638
20
68.185413
10
138.157141638
20
68.185413
0
LWPOLYLINE
5
D8
100
AcDbEntity
8
Layer_1
6
ByLayer
62
7
370
-1
100
AcDbPolyline
90
9
70
0
43
0
10
171.108730638
20
66.20973
10
171.108730638
20
66.562531
10
170.967591638
20
66.985892
10
170.755924638
20
67.338693
10
170.544229638
20
67.620932
10
170.262007638
20
67.832612
10
169.909201638
20
68.044293
10
169.485839638
20
68.185413
10
169.133033638
20
68.185413
0
LWPOLYLINE
5
D9
100
AcDbEntity
8
Layer_1
6
ByLayer
62
7
370
-1
100
AcDbPolyline
90
2
70
0
43
0
10
171.108730638
20
2.000001
10
171.108730638
20
66.20973
0
LWPOLYLINE
5
DA
100
AcDbEntity
8
Layer_1
6
ByLayer
62
7
370
-1
100
AcDbPolyline
90
9
70
0
43
0
10
169.133033638
20
0.024318
10
169.485839638
20
0.024318
10
169.909201638
20
0.165438
10
170.262007638
20
0.306557
10
170.544229638
20
0.588799
10
170.755924638
20
0.871038
10
170.967591638
20
1.223839
10
171.108730638
20
1.576639
10
171.108730638
20
2.000001
0
LWPOLYLINE
5
DB
100
AcDbEntity
8
Layer_1
6
ByLayer
62
7
370
-1
100
AcDbPolyline
90
2
70
0
43
0
10
138.157141638
20
0.024318
10
169.133033638
20
0.024318
0
LWPOLYLINE
5
DC
100
AcDbEntity
8
Layer_1
6
ByLayer
62
7
370
-1
100
AcDbPolyline
90
9
70
0
43
0
10
136.110888638
20
2.000001
10
136.181444638
20
1.576639
10
136.251999638
20
1.223839
10
136.463694638
20
0.871038
10
136.675361638
20
0.588799
10
137.028167638
20
0.306557
10
137.380973638
20
0.165438
10
137.733779638
20
0.024318
10
138.157141638
20
0.024318
0
LWPOLYLINE
5
DD
100
AcDbEntity
8
Layer_1
6
ByLayer
62
7
370
-1
100
AcDbPolyline
90
9
70
0
43
0
10
138.157141638
20
68.185413
10
137.733779638
20
68.185413
10
137.380973638
20
68.044293
10
137.028167638
20
67.832612
10
136.675361638
20
67.620932
10
136.463694638
20
67.338693
10
136.251999638
20
66.985892
10
136.181444638
20
66.562531
10
136.110888638
20
66.20973
0
LWPOLYLINE
5
DE
100
AcDbEntity
8
Layer_1
6
ByLayer
62
7
370
-1
100
AcDbPolyline
90
2
70
0
43
0
10
147.471067638
20
6.02193
10
139.003864638
20
6.02193
0
LWPOLYLINE
5
DF
100
AcDbEntity
8
Layer_1
6
ByLayer
62
7
370
-1
100
AcDbPolyline
90
9
70
0
43
0
10
144.930897638
20
59.083156
10
144.930897638
20
59.365395
10
145.072037638
20
59.647637
10
145.213148638
20
59.929877
10
145.354259638
20
60.141557
10
145.565954638
20
60.353238
10
145.848176638
20
60.494358
10
146.130426638
20
60.564919
10
146.412677638
20
60.635477
0
LWPOLYLINE
5
E0
100
AcDbEntity
8
Layer_1
6
ByLayer
62
7
370
-1
100
AcDbPolyline
90
9
70
0
43
0
10
144.930897638
20
40.031917
10
144.930897638
20
40.314156
10
145.072037638
20
40.596398
10
145.213148638
20
40.878638
10
145.354259638
20
41.090318
10
145.565954638
20
41.301999
10
145.848176638
20
41.443119
10
146.130426638
20
41.51368
10
146.412677638
20
41.584241
0
LWPOLYLINE
5
E1
100
AcDbEntity
8
Layer_1
6
ByLayer
62
7
370
-1
100
AcDbPolyline
90
9
70
0
43
0
10
144.930897638
20
21.968521
10
144.930897638
20
22.321321
10
145.072037638
20
22.603563
10
145.213148638
20
22.815241
10
145.354259638
20
23.026922
10
145.565954638
20
23.238603
10
145.848176638
20
23.379722
10
146.130426638
20
23.450284
10
146.412677638
20
23.520845
0
LWPOLYLINE
5
E2
100
AcDbEntity
8
Layer_1
6
ByLayer
62
7
370
-1
100
AcDbPolyline
90
9
70
0
43
0
10
163.629333638
20
8.491535
10
163.629333638
20
8.209293
10
163.488222638
20
7.927054
10
163.347111638
20
7.644812
10
163.205971638
20
7.433131
10
162.994305638
20
7.22145
10
162.712054638
20
7.080331
10
162.429832638
20
7.00977
10
162.147582638
20
7.00977
0
LWPOLYLINE
5
E3
100
AcDbEntity
8
Layer_1
6
ByLayer
62
7
370
-1
100
AcDbPolyline
90
9
70
0
43
0
10
163.629333638
20
26.554931
10
163.629333638
20
26.272689
10
163.488222638
20
25.99045
10
163.347111638
20
25.708208
10
163.205971638
20
25.496527
10
162.994305638
20
25.284847
10
162.712054638
20
25.143727
10
162.429832638
20
25.073166
10
162.147582638
20
25.073166
0
LWPOLYLINE
5
E4
100
AcDbEntity
8
Layer_1
6
ByLayer
62
7
370
-1
100
AcDbPolyline
90
9
70
0
43
0
10
162.147582638
20
41.584241
10
162.429832638
20
41.51368
10
162.712054638
20
41.443119
10
162.994305638
20
41.301999
10
163.205971638
20
41.090318
10
163.347111638
20
40.878638
10
163.488222638
20
40.596398
10
163.629333638
20
40.314156
10
163.629333638
20
40.031917
0
LWPOLYLINE
5
E5
100
AcDbEntity
8
Layer_1
6
ByLayer
62
7
370
-1
100
AcDbPolyline
90
9
70
0
43
0
10
146.412677638
20
25.073166
10
146.130426638
20
25.073166
10
145.848176638
20
25.143727
10
145.565954638
20
25.284847
10
145.354259638
20
25.496527
10
145.213148638
20
25.708208
10
145.072037638
20
25.99045
10
144.930897638
20
26.272689
10
144.930897638
20
26.554931
0
LWPOLYLINE
5
E6
100
AcDbEntity
8
Layer_1
6
ByLayer
62
7
370
-1
100
AcDbPolyline
90
9
70
0
43
0
10
162.147582638
20
23.520845
10
162.429832638
20
23.450284
10
162.712054638
20
23.379722
10
162.994305638
20
23.238603
10
163.205971638
20
23.026922
10
163.347111638
20
22.815241
10
163.488222638
20
22.603563
10
163.629333638
20
22.321321
10
163.629333638
20
21.968521
0
LWPOLYLINE
5
E7
100
AcDbEntity
8
Layer_1
6
ByLayer
62
7
370
-1
100
AcDbPolyline
90
9
70
0
43
0
10
146.412677638
20
7.00977
10
146.130426638
20
7.00977
10
145.848176638
20
7.080331
10
145.565954638
20
7.22145
10
145.354259638
20
7.433131
10
145.213148638
20
7.644812
10
145.072037638
20
7.927054
10
144.930897638
20
8.209293
10
144.930897638
20
8.491535
0
LWPOLYLINE
5
E8
100
AcDbEntity
8
Layer_1
6
ByLayer
62
7
370
-1
100
AcDbPolyline
90
2
70
0
43
0
10
144.930897638
20
59.083156
10
144.930897638
20
44.477205
0
LWPOLYLINE
5
E9
100
AcDbEntity
8
Layer_1
6
ByLayer
62
7
370
-1
100
AcDbPolyline
90
2
70
0
43
0
10
159.607412638
20
60.635477
10
146.412677638
20
60.635477
0
LWPOLYLINE
5
EA
100
AcDbEntity
8
Layer_1
6
ByLayer
62
7
370
-1
100
AcDbPolyline
90
2
70
0
43
0
10
161.159747638
20
44.477205
10
161.159747638
20
59.083156
0
LWPOLYLINE
5
EB
100
AcDbEntity
8
Layer_1
6
ByLayer
62
7
370
-1
100
AcDbPolyline
90
2
70
0
43
0
10
146.412677638
20
42.995443
10
159.607412638
20
42.995443
0
LWPOLYLINE
5
EC
100
AcDbEntity
8
Layer_1
6
ByLayer
62
7
370
-1
100
AcDbPolyline
90
2
70
0
43
0
10
144.930897638
20
40.031917
10
144.930897638
20
26.554931
0
LWPOLYLINE
5
ED
100
AcDbEntity
8
Layer_1
6
ByLayer
62
7
370
-1
100
AcDbPolyline
90
2
70
0
43
0
10
162.147582638
20
41.584241
10
146.412677638
20
41.584241
0
LWPOLYLINE
5
EE
100
AcDbEntity
8
Layer_1
6
ByLayer
62
7
370
-1
100
AcDbPolyline
90
2
70
0
43
0
10
163.629333638
20
26.554931
10
163.629333638
20
40.031917
0
LWPOLYLINE
5
EF
100
AcDbEntity
8
Layer_1
6
ByLayer
62
7
370
-1
100
AcDbPolyline
90
2
70
0
43
0
10
146.412677638
20
25.073166
10
162.147582638
20
25.073166
0
LWPOLYLINE
5
F0
100
AcDbEntity
8
Layer_1
6
ByLayer
62
7
370
-1
100
AcDbPolyline
90
2
70
0
43
0
10
163.629333638
20
8.491535
10
163.629333638
20
21.968521
0
LWPOLYLINE
5
F1
100
AcDbEntity
8
Layer_1
6
ByLayer
62
7
370
-1
100
AcDbPolyline
90
2
70
0
43
0
10
146.412677638
20
7.00977
10
162.147582638
20
7.00977
0
LWPOLYLINE
5
F2
100
AcDbEntity
8
Layer_1
6
ByLayer
62
7
370
-1
100
AcDbPolyline
90
2
70
0
43
0
10
144.930897638
20
21.968521
10
144.930897638
20
8.491535
0
LWPOLYLINE
5
F3
100
AcDbEntity
8
Layer_1
6
ByLayer
62
7
370
-1
100
AcDbPolyline
90
2
70
0
43
0
10
162.147582638
20
23.520845
10
146.412677638
20
23.520845
0
LWPOLYLINE
5
F4
100
AcDbEntity
8
Layer_1
6
ByLayer
62
7
370
-1
100
AcDbPolyline
90
2
70
0
43
0
10
156.361659638
20
62.187801
10
166.381197638
20
62.187801
0
LWPOLYLINE
5
F5
100
AcDbEntity
8
Layer_1
6
ByLayer
62
7
370
-1
100
AcDbPolyline
90
2
70
0
43
0
10
156.361659638
20
65.221888
10
156.361659638
20
62.187801
0
LWPOLYLINE
5
F6
100
AcDbEntity
8
Layer_1
6
ByLayer
62
7
370
-1
100
AcDbPolyline
90
2
70
0
43
0
10
166.381197638
20
65.221888
10
156.361659638
20
65.221888
0
LWPOLYLINE
5
F7
100
AcDbEntity
8
Layer_1
6
ByLayer
62
7
370
-1
100
AcDbPolyline
90
2
70
0
43
0
10
166.381197638
20
62.187801
10
166.381197638
20
65.221888
0
LWPOLYLINE
5
F8
100
AcDbEntity
8
Layer_1
6
ByLayer
62
7
370
-1
100
AcDbPolyline
90
2
70
0
43
0
10
139.003864638
20
62.187801
10
147.471067638
20
62.187801
0
LWPOLYLINE
5
F9
100
AcDbEntity
8
Layer_1
6
ByLayer
62
7
370
-1
100
AcDbPolyline
90
2
70
0
43
0
10
139.003864638
20
65.221888
10
139.003864638
20
62.187801
0
LWPOLYLINE
5
FA
100
AcDbEntity
8
Layer_1
6
ByLayer
62
7
370
-1
100
AcDbPolyline
90
2
70
0
43
0
10
147.471067638
20
65.221888
10
139.003864638
20
65.221888
0
LWPOLYLINE
5
FB
100
AcDbEntity
8
Layer_1
6
ByLayer
62
7
370
-1
100
AcDbPolyline
90
2
70
0
43
0
10
147.471067638
20
62.187801
10
147.471067638
20
65.221888
0
LWPOLYLINE
5
FC
100
AcDbEntity
8
Layer_1
6
ByLayer
62
7
370
-1
100
AcDbPolyline
90
2
70
0
43
0
10
147.471067638
20
2.987843
10
147.471067638
20
6.02193
0
LWPOLYLINE
5
FD
100
AcDbEntity
8
Layer_1
6
ByLayer
62
7
370
-1
100
AcDbPolyline
90
2
70
0
43
0
10
139.003864638
20
6.02193
10
139.003864638
20
2.987843
0
LWPOLYLINE
5
FE
100
AcDbEntity
8
Layer_1
6
ByLayer
62
7
370
-1
100
AcDbPolyline
90
9
70
0
43
0
10
159.607412638
20
60.635477
10
159.889663638
20
60.564919
10
160.171885638
20
60.494358
10
160.454135638
20
60.353238
10
160.665830638
20
60.141557
10
160.877497638
20
59.929877
10
161.018608638
20
59.647637
10
161.089192638
20
59.365395
10
161.159747638
20
59.083156
0
LWPOLYLINE
5
FF
100
AcDbEntity
8
Layer_1
6
ByLayer
62
7
370
-1
100
AcDbPolyline
90
9
70
0
43
0
10
161.159747638
20
44.477205
10
161.089192638
20
44.194966
10
161.018608638
20
43.912724
10
160.877497638
20
43.701043
10
160.665830638
20
43.418804
10
160.454135638
20
43.277685
10
160.171885638
20
43.136562
10
159.889663638
20
42.995443
10
159.607412638
20
42.995443
0
LWPOLYLINE
5
100
100
AcDbEntity
8
Layer_1
6
ByLayer
62
7
370
-1
100
AcDbPolyline
90
9
70
0
43
0
10
146.412677638
20
42.995443
10
146.130426638
20
42.995443
10
145.848176638
20
43.136562
10
145.565954638
20
43.277685
10
145.354259638
20
43.418804
10
145.213148638
20
43.701043
10
145.072037638
20
43.912724
10
144.930897638
20
44.194966
10
144.930897638
20
44.477205
0
LWPOLYLINE
5
101
100
AcDbEntity
8
Layer_1
6
ByLayer
62
7
370
-1
100
AcDbPolyline
90
2
70
0
43
0
10
139.003864638
20
2.987843
10
147.471067638
20
2.987843
0
LWPOLYLINE
5
102
100
AcDbEntity
8
Layer_1
6
ByLayer
62
7
370
-1
100
AcDbPolyline
90
5
70
0
43
0
10
103.935463638
20
65.221887
10
103.935463638
20
62.1878
10
112.473241638
20
62.1878
10
112.473241638
20
65.221887
10
103.935463638
20
65.221887
0
LWPOLYLINE
5
103
100
AcDbEntity
8
Layer_1
6
ByLayer
62
7
370
-1
100
AcDbPolyline
90
5
70
0
43
0
10
121.363820638
20
2.987843
10
131.312799638
20
2.987843
10
131.312799638
20
6.021929
10
121.363820638
20
6.021929
10
121.363820638
20
2.987843
0
LWPOLYLINE
5
104
100
AcDbEntity
8
Layer_1
6
ByLayer
62
7
370
-1
100
AcDbPolyline
90
5
70
0
43
0
10
103.935463638
20
2.987843
10
112.473241638
20
2.987843
10
112.473241638
20
6.021929
10
103.935463638
20
6.021929
10
103.935463638
20
2.987843
0
LWPOLYLINE
5
105
100
AcDbEntity
8
Layer_1
6
ByLayer
62
7
370
-1
100
AcDbPolyline
90
5
70
0
43
0
10
121.363820638
20
65.221887
10
121.363820638
20
62.1878
10
131.312799638
20
62.1878
10
131.312799638
20
65.221887
10
121.363820638
20
65.221887
0
LWPOLYLINE
5
106
100
AcDbEntity
8
Layer_1
6
ByLayer
62
7
370
-1
100
AcDbPolyline
90
9
70
0
43
0
10
134.064644638
20
0.024317
10
134.488005638
20
0.024317
10
134.840806638
20
0.165437
10
135.193606638
20
0.377118
10
135.475848638
20
0.588799
10
135.758087638
20
0.871038
10
135.969768638
20
1.223838
10
136.040329638
20
1.6472
10
136.110888638
20
2
0
LWPOLYLINE
5
107
100
AcDbEntity
8
Layer_1
6
ByLayer
62
7
370
-1
100
AcDbPolyline
90
2
70
0
43
0
10
103.088743638
20
0.024317
10
134.064644638
20
0.024317
0
LWPOLYLINE
5
108
100
AcDbEntity
8
Layer_1
6
ByLayer
62
7
370
-1
100
AcDbPolyline
90
9
70
0
43
0
10
101.113057638
20
2
10
101.113057638
20
1.6472
10
101.254180638
20
1.223838
10
101.395299638
20
0.871038
10
101.677538638
20
0.588799
10
101.959780638
20
0.377118
10
102.312581638
20
0.165437
10
102.735942638
20
0.024317
10
103.088743638
20
0.024317
0
LWPOLYLINE
5
109
100
AcDbEntity
8
Layer_1
6
ByLayer
62
7
370
-1
100
AcDbPolyline
90
2
70
0
43
0
10
101.113057638
20
25.143726
10
101.113057638
20
2
0
LWPOLYLINE
5
10A
100
AcDbEntity
8
Layer_1
6
ByLayer
62
7
370
-1
100
AcDbPolyline
90
9
70
0
43
0
10
103.088743638
20
27.119412
10
102.735942638
20
27.048851
10
102.312581638
20
26.978289
10
101.959780638
20
26.766611
10
101.677538638
20
26.554931
10
101.395299638
20
26.20213
10
101.254180638
20
25.849327
10
101.113057638
20
25.496527
10
101.113057638
20
25.143726
0
LWPOLYLINE
5
10B
100
AcDbEntity
8
Layer_1
6
ByLayer
62
7
370
-1
100
AcDbPolyline
90
2
70
0
43
0
10
103.088743638
20
27.119412
10
109.086354638
20
27.119412
0
LWPOLYLINE
5
10C
100
AcDbEntity
8
Layer_1
6
ByLayer
62
7
370
-1
100
AcDbPolyline
90
9
70
0
43
0
10
111.062040638
20
29.095094
10
111.062040638
20
28.742294
10
110.920917638
20
28.318932
10
110.779798638
20
27.966132
10
110.497559638
20
27.683893
10
110.215317638
20
27.472212
10
109.862516638
20
27.260531
10
109.509716638
20
27.119412
10
109.086354638
20
27.119412
0
LWPOLYLINE
5
10D
100
AcDbEntity
8
Layer_1
6
ByLayer
62
7
370
-1
100
AcDbPolyline
90
2
70
0
43
0
10
111.062040638
20
29.095094
10
111.062040638
20
39.114635
0
LWPOLYLINE
5
10E
100
AcDbEntity
8
Layer_1
6
ByLayer
62
7
370
-1
100
AcDbPolyline
90
9
70
0
43
0
10
109.086354638
20
41.090318
10
109.509716638
20
41.090318
10
109.862516638
20
40.949198
10
110.215317638
20
40.737517
10
110.497559638
20
40.525837
10
110.779798638
20
40.243597
10
110.920917638
20
39.890797
10
111.062040638
20
39.467436
10
111.062040638
20
39.114635
0
LWPOLYLINE
5
10F
100
AcDbEntity
8
Layer_1
6
ByLayer
62
7
370
-1
100
AcDbPolyline
90
2
70
0
43
0
10
109.086354638
20
41.090318
10
103.088743638
20
41.090318
0
LWPOLYLINE
5
110
100
AcDbEntity
8
Layer_1
6
ByLayer
62
7
370
-1
100
AcDbPolyline
90
9
70
0
43
0
10
101.113057638
20
43.136564
10
101.113057638
20
42.713203
10
101.254180638
20
42.360402
10
101.395299638
20
42.007602
10
101.677538638
20
41.72536
10
101.959780638
20
41.443121
10
102.312581638
20
41.23144
10
102.735942638
20
41.160879
10
103.088743638
20
41.090318
0
LWPOLYLINE
5
111
100
AcDbEntity
8
Layer_1
6
ByLayer
62
7
370
-1
100
AcDbPolyline
90
2
70
0
43
0
10
101.113057638
20
66.20973
10
101.113057638
20
43.136564
0
LWPOLYLINE
5
112
100
AcDbEntity
8
Layer_1
6
ByLayer
62
7
370
-1
100
AcDbPolyline
90
9
70
0
43
0
10
103.088743638
20
68.185412
10
102.735942638
20
68.185412
10
102.312581638
20
68.044293
10
101.959780638
20
67.903173
10
101.677538638
20
67.620931
10
101.395299638
20
67.338692
10
101.254180638
20
66.985892
10
101.113057638
20
66.633091
10
101.113057638
20
66.20973
0
LWPOLYLINE
5
113
100
AcDbEntity
8
Layer_1
6
ByLayer
62
7
370
-1
100
AcDbPolyline
90
2
70
0
43
0
10
134.064644638
20
68.185412
10
103.088743638
20
68.185412
0
LWPOLYLINE
5
114
100
AcDbEntity
8
Layer_1
6
ByLayer
62
7
370
-1
100
AcDbPolyline
90
9
70
0
43
0
10
136.110888638
20
66.20973
10
136.040329638
20
66.633091
10
135.969768638
20
66.985892
10
135.758087638
20
67.338692
10
135.475848638
20
67.620931
10
135.193606638
20
67.903173
10
134.840806638
20
68.044293
10
134.488005638
20
68.185412
10
134.064644638
20
68.185412
0
LWPOLYLINE
5
115
100
AcDbEntity
8
Layer_1
6
ByLayer
62
7
370
-1
100
AcDbPolyline
90
2
70
0
43
0
10
136.110888638
20
2
10
136.110888638
20
66.20973
0
LWPOLYLINE
5
116
100
AcDbEntity
8
Layer_1
6
ByLayer
62
7
370
-1
100
AcDbPolyline
90
17
70
0
43
0
10
256.501892158
20
7.973297
10
256.007969158
20
7.832175
10
255.584608158
20
7.549936
10
255.302368158
20
7.126574
10
255.161249158
20
6.632654
10
255.302368158
20
6.068173
10
255.584608158
20
5.644812
10
256.007969158
20
5.36257
10
256.501892158
20
5.292011
10
257.066373158
20
5.36257
10
257.489732158
20
5.644812
10
257.771974158
20
6.068173
10
257.842532158
20
6.632654
10
257.771974158
20
7.126574
10
257.489732158
20
7.549936
10
257.066373158
20
7.832175
10
256.501892158
20
7.973297
0
LWPOLYLINE
5
117
100
AcDbEntity
8
Layer_1
6
ByLayer
62
7
370
-1
100
AcDbPolyline
90
17
70
0
43
0
10
198.501455158
20
56.942034
10
198.007532158
20
56.871475
10
197.584173158
20
56.589233
10
197.301931158
20
56.165872
10
197.160812158
20
55.601391
10
197.301931158
20
55.107471
10
197.584173158
20
54.684109
10
198.007532158
20
54.40187
10
198.501455158
20
54.26075
10
199.065936158
20
54.40187
10
199.489297158
20
54.684109
10
199.771537158
20
55.107471
10
199.842098158
20
55.601391
10
199.771537158
20
56.165872
10
199.489297158
20
56.589233
10
199.065936158
20
56.871475
10
198.501455158
20
56.942034
0
LWPOLYLINE
5
118
100
AcDbEntity
8
Layer_1
6
ByLayer
62
7
370
-1
100
AcDbPolyline
90
9
70
0
43
0
10
253.185564158
20
36.126793
10
253.256125158
20
36.479593
10
253.397244158
20
36.902955
10
253.538364158
20
37.255755
10
253.820606158
20
37.537994
10
254.102845158
20
37.749675
10
254.455645158
20
37.961356
10
254.808449158
20
38.102475
10
255.231807158
20
38.102475
0
LWPOLYLINE
5
119
100
AcDbEntity
8
Layer_1
6
ByLayer
62
7
370
-1
100
AcDbPolyline
90
2
70
0
43
0
10
253.185564158
20
36.126793
10
253.185564158
20
26.107252
0
LWPOLYLINE
5
11A
100
AcDbEntity
8
Layer_1
6
ByLayer
62
7
370
-1
100
AcDbPolyline
90
9
70
0
43
0
10
255.231807158
20
24.131569
10
254.808449158
20
24.131569
10
254.455645158
20
24.272689
10
254.102845158
20
24.48437
10
253.820606158
20
24.696051
10
253.538364158
20
24.97829
10
253.397244158
20
25.33109
10
253.256125158
20
25.754452
10
253.185564158
20
26.107252
0
LWPOLYLINE
5
11B
100
AcDbEntity
8
Layer_1
6
ByLayer
62
7
370
-1
100
AcDbPolyline
90
9
70
0
43
0
10
260.241579158
20
22.155884
10
260.171018158
20
22.508684
10
260.100457158
20
22.861485
10
259.888779158
20
23.214288
10
259.606537158
20
23.567088
10
259.324298158
20
23.778769
10
258.971494158
20
23.990447
10
258.618694158
20
24.061008
10
258.195335158
20
24.131569
0
LWPOLYLINE
5
11C
100
AcDbEntity
8
Layer_1
6
ByLayer
62
7
370
-1
100
AcDbPolyline
90
9
70
0
43
0
10
259.253736158
20
3.034087
10
259.394856158
20
3.034087
10
259.606537158
20
3.104645
10
259.747656158
20
3.175206
10
259.959337158
20
3.316326
10
260.029898158
20
3.457448
10
260.171018158
20
3.669126
10
260.171018158
20
3.810249
10
260.241579158
20
4.021929
0
LWPOLYLINE
5
11D
100
AcDbEntity
8
Layer_1
6
ByLayer
62
7
370
-1
100
AcDbPolyline
90
2
70
0
43
0
10
240.484739158
20
3.034087
10
259.253736158
20
3.034087
0
LWPOLYLINE
5
11E
100
AcDbEntity
8
Layer_1
6
ByLayer
62
7
370
-1
100
AcDbPolyline
90
2
70
0
43
0
10
240.484739158
20
0.987843
10
240.484739158
20
3.034087
0
LWPOLYLINE
5
11F
100
AcDbEntity
8
Layer_1
6
ByLayer
62
7
370
-1
100
AcDbPolyline
90
9
70
0
43
0
10
239.496897158
20
-1.13686837722e-013
10
239.708578158
20
0.0705619999999
10
239.920258158
20
0.0705619999999
10
240.061378158
20
0.211681
10
240.202497158
20
0.282239
10
240.343617158
20
0.49392
10
240.414178158
20
0.635043
10
240.484739158
20
0.846721
10
240.484739158
20
0.987843
0
LWPOLYLINE
5
120
100
AcDbEntity
8
Layer_1
6
ByLayer
62
7
370
-1
100
AcDbPolyline
90
2
70
0
43
0
10
229.547917158
20
-1.13686837722e-013
10
239.496897158
20
-1.13686837722e-013
0
LWPOLYLINE
5
121
100
AcDbEntity
8
Layer_1
6
ByLayer
62
7
370
-1
100
AcDbPolyline
90
9
70
0
43
0
10
228.489513158
20
0.987843
10
228.560074158
20
0.846721
10
228.560074158
20
0.635043
10
228.701194158
20
0.49392
10
228.842316158
20
0.282239
10
228.983436158
20
0.211681
10
229.124556158
20
0.0705619999999
10
229.336236158
20
0.0705619999999
10
229.547917158
20
-1.13686837722e-013
0
LWPOLYLINE
5
122
100
AcDbEntity
8
Layer_1
6
ByLayer
62
7
370
-1
100
AcDbPolyline
90
2
70
0
43
0
10
206.545310158
20
3.034087
10
228.489513158
20
3.034087
0
LWPOLYLINE
5
123
100
AcDbEntity
8
Layer_1
6
ByLayer
62
7
370
-1
100
AcDbPolyline
90
2
70
0
43
0
10
195.537930158
20
0
10
205.486909158
20
0
0
LWPOLYLINE
5
124
100
AcDbEntity
8
Layer_1
6
ByLayer
62
7
370
-1
100
AcDbPolyline
90
9
70
0
43
0
10
194.550087158
20
0.987843
10
194.550087158
20
0.846721
10
194.620645158
20
0.635043
10
194.691206158
20
0.49392
10
194.832326158
20
0.282239
10
194.973448158
20
0.211681
10
195.114568158
20
0.070562
10
195.326249158
20
0.070562
10
195.537930158
20
0
0
LWPOLYLINE
5
125
100
AcDbEntity
8
Layer_1
6
ByLayer
62
7
370
-1
100
AcDbPolyline
90
9
70
0
43
0
10
174.793247158
20
4.021929
10
174.863806158
20
3.810249
10
174.863806158
20
3.669126
10
175.004928158
20
3.457448
10
175.075486158
20
3.316326
10
175.287167158
20
3.175206
10
175.428287158
20
3.104645
10
175.639967158
20
3.034087
10
175.781090158
20
3.034087
0
LWPOLYLINE
5
126
100
AcDbEntity
8
Layer_1
6
ByLayer
62
7
370
-1
100
AcDbPolyline
90
2
70
0
43
0
10
174.793247158
20
58.212118
10
174.793247158
20
4.021929
0
LWPOLYLINE
5
127
100
AcDbEntity
8
Layer_1
6
ByLayer
62
7
370
-1
100
AcDbPolyline
90
9
70
0
43
0
10
175.781090158
20
59.199958
10
175.639967158
20
59.199958
10
175.428287158
20
59.1294
10
175.287167158
20
59.058839
10
175.075486158
20
58.917719
10
175.004928158
20
58.776599
10
174.863806158
20
58.635477
10
174.863806158
20
58.423796
10
174.793247158
20
58.212118
0
LWPOLYLINE
5
128
100
AcDbEntity
8
Layer_1
6
ByLayer
62
7
370
-1
100
AcDbPolyline
90
2
70
0
43
0
10
194.550087158
20
59.199958
10
175.781090158
20
59.199958
0
LWPOLYLINE
5
129
100
AcDbEntity
8
Layer_1
6
ByLayer
62
7
370
-1
100
AcDbPolyline
90
2
70
0
43
0
10
194.550087158
20
61.246202
10
194.550087158
20
59.199958
0
LWPOLYLINE
5
12A
100
AcDbEntity
8
Layer_1
6
ByLayer
62
7
370
-1
100
AcDbPolyline
90
9
70
0
43
0
10
195.537930158
20
62.234045
10
195.326249158
20
62.234045
10
195.114568158
20
62.163486
10
194.973448158
20
62.022364
10
194.832326158
20
61.951805
10
194.691206158
20
61.810683
10
194.620645158
20
61.599005
10
194.550087158
20
61.387324
10
194.550087158
20
61.246202
0
LWPOLYLINE
5
12B
100
AcDbEntity
8
Layer_1
6
ByLayer
62
7
370
-1
100
AcDbPolyline
90
2
70
0
43
0
10
205.486909158
20
62.234045
10
195.537930158
20
62.234045
0
LWPOLYLINE
5
12C
100
AcDbEntity
8
Layer_1
6
ByLayer
62
7
370
-1
100
AcDbPolyline
90
9
70
0
43
0
10
206.545310158
20
61.246202
10
206.474749158
20
61.387324
10
206.474749158
20
61.599005
10
206.333629158
20
61.810683
10
206.192510158
20
61.951805
10
206.051390158
20
62.022364
10
205.910268158
20
62.163486
10
205.698590158
20
62.234045
10
205.486909158
20
62.234045
0
LWPOLYLINE
5
12D
100
AcDbEntity
8
Layer_1
6
ByLayer
62
7
370
-1
100
AcDbPolyline
90
2
70
0
43
0
10
228.489513158
20
61.246202
10
228.489513158
20
59.199958
0
LWPOLYLINE
5
12E
100
AcDbEntity
8
Layer_1
6
ByLayer
62
7
370
-1
100
AcDbPolyline
90
9
70
0
43
0
10
240.484739158
20
61.246202
10
240.484739158
20
61.387324
10
240.414178158
20
61.599005
10
240.343617158
20
61.810683
10
240.202497158
20
61.951805
10
240.061378158
20
62.022364
10
239.920258158
20
62.163486
10
239.708578158
20
62.234045
10
239.496897158
20
62.234045
0
LWPOLYLINE
5
12F
100
AcDbEntity
8
Layer_1
6
ByLayer
62
7
370
-1
100
AcDbPolyline
90
2
70
0
43
0
10
259.253736158
20
59.199958
10
240.484739158
20
59.199958
0
LWPOLYLINE
5
130
100
AcDbEntity
8
Layer_1
6
ByLayer
62
7
370
-1
100
AcDbPolyline
90
9
70
0
43
0
10
260.241579158
20
58.212118
10
260.171018158
20
58.423796
10
260.171018158
20
58.635477
10
260.029898158
20
58.776599
10
259.959337158
20
58.917719
10
259.747656158
20
59.058839
10
259.606537158
20
59.1294
10
259.394856158
20
59.199958
10
259.253736158
20
59.199958
0
LWPOLYLINE
5
131
100
AcDbEntity
8
Layer_1
6
ByLayer
62
7
370
-1
100
AcDbPolyline
90
2
70
0
43
0
10
260.241579158
20
40.148722
10
260.241579158
20
58.212118
0
LWPOLYLINE
5
132
100
AcDbEntity
8
Layer_1
6
ByLayer
62
7
370
-1
100
AcDbPolyline
90
9
70
0
43
0
10
258.195335158
20
38.102475
10
258.618694158
20
38.173037
10
258.971494158
20
38.243598
10
259.324298158
20
38.455279
10
259.606537158
20
38.737518
10
259.888779158
20
39.01976
10
260.100457158
20
39.37256
10
260.171018158
20
39.72536
10
260.241579158
20
40.148722
0
LWPOLYLINE
5
133
100
AcDbEntity
8
Layer_1
6
ByLayer
62
7
370
-1
100
AcDbPolyline
90
2
70
0
43
0
10
258.195335158
20
38.102475
10
255.231807158
20
38.102475
0
LWPOLYLINE
5
134
100
AcDbEntity
8
Layer_1
6
ByLayer
62
7
370
-1
100
AcDbPolyline
90
9
70
0
43
0
10
205.486909158
20
0
10
205.698590158
20
0.070562
10
205.910268158
20
0.070562
10
206.051390158
20
0.211681
10
206.192510158
20
0.282239
10
206.333629158
20
0.49392
10
206.474749158
20
0.635043
10
206.474749158
20
0.846721
10
206.545310158
20
0.987843
0
LWPOLYLINE
5
135
100
AcDbEntity
8
Layer_1
6
ByLayer
62
7
370
-1
100
AcDbPolyline
90
17
70
0
43
0
10
198.501455158
20
5.292011
10
199.065936158
20
5.36257
10
199.489297158
20
5.644812
10
199.771537158
20
6.068173
10
199.842098158
20
6.632654
10
199.771537158
20
7.126574
10
199.489297158
20
7.549936
10
199.065936158
20
7.832175
10
198.501455158
20
7.973297
10
198.007532158
20
7.832175
10
197.584173158
20
7.549936
10
197.301931158
20
7.126574
10
197.160812158
20
6.632654
10
197.301931158
20
6.068173
10
197.584173158
20
5.644812
10
198.007532158
20
5.36257
10
198.501455158
20
5.292011
0
LWPOLYLINE
5
136
100
AcDbEntity
8
Layer_1
6
ByLayer
62
7
370
-1
100
AcDbPolyline
90
2
70
0
43
0
10
228.489513158
20
3.034087
10
228.489513158
20
0.987843
0
LWPOLYLINE
5
137
100
AcDbEntity
8
Layer_1
6
ByLayer
62
7
370
-1
100
AcDbPolyline
90
2
70
0
43
0
10
206.545310158
20
0.987843
10
206.545310158
20
3.034087
0
LWPOLYLINE
5
138
100
AcDbEntity
8
Layer_1
6
ByLayer
62
7
370
-1
100
AcDbPolyline
90
2
70
0
43
0
10
206.545310158
20
59.199958
10
206.545310158
20
61.246202
0
LWPOLYLINE
5
139
100
AcDbEntity
8
Layer_1
6
ByLayer
62
7
370
-1
100
AcDbPolyline
90
2
70
0
43
0
10
240.484739158
20
59.199958
10
240.484739158
20
61.246202
0
LWPOLYLINE
5
13A
100
AcDbEntity
8
Layer_1
6
ByLayer
62
7
370
-1
100
AcDbPolyline
90
2
70
0
43
0
10
255.231807158
20
24.131569
10
258.195335158
20
24.131569
0
LWPOLYLINE
5
13B
100
AcDbEntity
8
Layer_1
6
ByLayer
62
7
370
-1
100
AcDbPolyline
90
17
70
0
43
0
10
256.501892158
20
54.26075
10
257.066373158
20
54.40187
10
257.489732158
20
54.684109
10
257.771974158
20
55.107471
10
257.842532158
20
55.601391
10
257.771974158
20
56.165872
10
257.489732158
20
56.589233
10
257.066373158
20
56.871475
10
256.501892158
20
56.942034
10
256.007969158
20
56.871475
10
255.584608158
20
56.589233
10
255.302368158
20
56.165872
10
255.161249158
20
55.601391
10
255.302368158
20
55.107471
10
255.584608158
20
54.684109
10
256.007969158
20
54.40187
10
256.501892158
20
54.26075
0
LWPOLYLINE
5
13C
100
AcDbEntity
8
Layer_1
6
ByLayer
62
7
370
-1
100
AcDbPolyline
90
2
70
0
43
0
10
175.781090158
20
3.034087
10
194.550087158
20
3.034087
0
LWPOLYLINE
5
13D
100
AcDbEntity
8
Layer_1
6
ByLayer
62
7
370
-1
100
AcDbPolyline
90
2
70
0
43
0
10
228.489513158
20
59.199958
10
206.545310158
20
59.199958
0
LWPOLYLINE
5
13E
100
AcDbEntity
8
Layer_1
6
ByLayer
62
7
370
-1
100
AcDbPolyline
90
2
70
0
43
0
10
239.496897158
20
62.234045
10
229.547917158
20
62.234045
0
LWPOLYLINE
5
13F
100
AcDbEntity
8
Layer_1
6
ByLayer
62
7
370
-1
100
AcDbPolyline
90
2
70
0
43
0
10
260.241579158
20
4.021929
10
260.241579158
20
22.155884
0
LWPOLYLINE
5
140
100
AcDbEntity
8
Layer_1
6
ByLayer
62
7
370
-1
100
AcDbPolyline
90
2
70
0
43
0
10
194.550087158
20
3.034087
10
194.550087158
20
0.987843
0
LWPOLYLINE
5
141
100
AcDbEntity
8
Layer_1
6
ByLayer
62
7
370
-1
100
AcDbPolyline
90
9
70
0
43
0
10
229.547917158
20
62.234045
10
229.336236158
20
62.234045
10
229.124556158
20
62.163486
10
228.983436158
20
62.022364
10
228.842316158
20
61.951805
10
228.701194158
20
61.810683
10
228.560074158
20
61.599005
10
228.560074158
20
61.387324
10
228.489513158
20
61.246202
0
ENDSEC
0
SECTION
2
OBJECTS
0
DICTIONARY
5
C
330
0
100
AcDbDictionary
281
1
3
ACAD_GROUP
350
D
0
DICTIONARY
5
D
330
C
100
AcDbDictionary
281
1
0
ENDSEC
0
EOF
